<?xml version="1.0" standalone="no"?>
<!DOCTYPE svg PUBLIC "-//W3C//DTD SVG 1.1//EN" "http://www.w3.org/Graphics/SVG/1.1/DTD/svg11.dtd" >
<svg xmlns="http://www.w3.org/2000/svg">
<metadata></metadata>
<defs>
<font id="maxwell_slabdemibold" horiz-adv-x="745" >
<font-face units-per-em="2048" ascent="1536" descent="-512" />
<missing-glyph horiz-adv-x="514" />
<glyph unicode="&#xfb01;" horiz-adv-x="903" d="M70 1001v197h129v102q0 78 28.5 147t76.5 120t111.5 80.5t133.5 29.5q55 0 119.5 -21.5t109.5 -60.5q49 -47 72.5 -96t30.5 -78l4 -18q12 -59 -18 -106.5t-81 -57.5q-53 -8 -96 26.5t-55 92.5q-4 16 -3 32.5t5 32.5q0 10 -1 23.5t-20 21.5l-12 7q-23 8 -55 8 q-66 -4 -113 -55.5t-47 -127.5v-102h135v-197h-135v-806h68v-193h-330v193h72v806h-129zM588 2v193h69v813h-69v192h330v-192h-66v-813h66v-193h-330z" />
<glyph unicode="&#xfb02;" horiz-adv-x="1032" d="M72 997v197h129v86q0 78 25.5 146.5t70.5 119.5t105.5 81t129.5 30q55 0 124 -21.5t114 -60.5q59 -55 92 -130t33 -165v-1090h66v-192h-330v192h69v1090q0 45 -15 86t-46 64q-12 12 -43 23t-64 9q-55 -4 -98 -55t-43 -127v-86h135v-197h-135v-807h68v-192h-330v192h72 v807h-129z" />
<glyph unicode="&#xfb03;" horiz-adv-x="1572" d="M55 1001v197h127v82q0 78 25.5 146.5t71 119.5t105.5 81t130 30q55 0 108.5 -21.5t98.5 -58.5l2 -2q47 -39 57.5 -92t-20.5 -99q-29 -43 -85.5 -50t-105.5 28q-29 18 -45 49q-2 0 -2 2q-14 18 -27.5 31.5t-37.5 -0.5l-8 -4q-33 -23 -54.5 -66t-21.5 -94v-82h418v102 q0 78 28.5 147t76.5 120t111.5 80.5t133.5 29.5q55 0 119.5 -21.5t109.5 -60.5q49 -47 72.5 -96t30.5 -78l4 -18q12 -59 -18 -106.5t-81 -57.5q-53 -8 -96 26.5t-55 92.5q-4 16 -3 32.5t5 32.5q0 10 -1 23.5t-20 21.5l-12 7q-23 8 -55 8q-66 -4 -113 -55.5t-47 -127.5v-102 h135v-197h-135v-806h68v-193h-330v193h72v806h-418v-808h71v-193h-325v193h63v808h-127zM1180 2v193h69v813h-69v192h329v-192h-65v-813h65v-193h-329z" />
<glyph unicode="&#xfb04;" horiz-adv-x="1626" d="M55 997v197h127v104q0 78 25.5 146.5t71 120t105.5 81t130 29.5q55 0 108.5 -21.5t98.5 -58.5l2 -2q47 -39 57.5 -92t-20.5 -98q-29 -43 -85.5 -50t-105.5 27q-29 18 -45 50q-2 0 -2 2q-14 18 -27.5 31.5t-37.5 -1.5l-8 -4q-33 -23 -54.5 -65.5t-21.5 -94.5v-104h420v86 q0 78 25.5 146.5t70.5 119.5t105.5 81t129.5 30q55 0 124 -21.5t114 -60.5q59 -55 92 -130t33 -165v-1090h65v-192h-329v192h69v1090q0 45 -15 86t-46 64q-12 12 -43 23t-64 9q-55 -4 -98 -55t-43 -127v-86h135v-197h-135v-807h68v-192h-330v192h72v807h-420v-804h71v-193 h-325v193h63v804h-127z" />
<glyph horiz-adv-x="0" />
<glyph unicode="&#xd;" horiz-adv-x="514" />
<glyph horiz-adv-x="0" />
<glyph horiz-adv-x="0" />
<glyph unicode=" "  horiz-adv-x="514" />
<glyph unicode="&#x09;" horiz-adv-x="514" />
<glyph unicode="&#xa0;" horiz-adv-x="514" />
<glyph unicode="!" horiz-adv-x="370" d="M68 1686h235l-41 -1350h-153zM72 117q0 47 32.5 79.5t79.5 32.5t81 -32.5t34 -79.5t-34 -80t-81 -33t-79.5 33t-32.5 80z" />
<glyph unicode="&#x22;" horiz-adv-x="520" d="M72 1669h166l-19 -270h-127zM283 1669h166l-21 -270h-127z" />
<glyph unicode="#" horiz-adv-x="1212" d="M72 487v191h182v377h-182v194h182v412h195v-412h360v412h195v-412h143v-194h-143v-377h143v-191h-143v-479h-195v479h-360v-479h-195v479h-182zM449 678h360v377h-360v-377z" />
<glyph unicode="$" horiz-adv-x="837" d="M72 1309q0 63 21.5 119.5t59 101.5t89 76.5t112.5 46.5v168h193v-168q57 -16 109.5 -49t90 -81t60 -107.5t22.5 -127.5q-2 -59 -39.5 -101t-91.5 -40q-53 2 -89 45t-34 102q0 14 5.5 29.5t9.5 31t4 30t-10 28.5q-16 14 -37 31v-557q53 -49 104 -101.5t91 -115t64.5 -136 t22.5 -163.5q-4 -141 -78.5 -233.5t-203.5 -119.5v-155h-193v157q-59 16 -110 51t-88 83.5t-56.5 108t-19.5 124.5q4 59 42 100t91 37q51 -2 87 -46t34 -103q-4 -29 -12 -56q-12 -31 -4 -51t36 -39v572q-53 47 -103 99t-90 113.5t-64.5 134.5t-24.5 161zM266 1307 q0 -70 23.5 -124.5t64.5 -105.5v369q-41 -20 -64.5 -56t-23.5 -83zM547 219q45 16 65.5 56.5t22.5 97.5q2 72 -22.5 130t-65.5 109v-393z" />
<glyph unicode="%" horiz-adv-x="1783" d="M72 1092v196q0 78 26.5 145.5t71.5 119t106.5 80t133.5 28.5q68 0 128 -28.5t105 -80t71.5 -119t26.5 -145.5v-196q0 -78 -26.5 -145.5t-71.5 -118t-105.5 -79t-127.5 -28.5q-72 0 -133.5 28.5t-106.5 79t-71.5 118t-26.5 145.5zM266 1092q0 -74 42 -127.5t102 -53.5 q55 0 95 53.5t40 127.5v196q0 74 -40 126t-95 52q-59 0 -101.5 -52t-42.5 -126v-196zM504 8l583 1653h195l-584 -1653h-194zM1042 381v194q0 78 27 147t72 119t106 78.5t133 28.5q68 0 128.5 -28.5t105.5 -78.5t71.5 -119t26.5 -147v-194q0 -78 -26.5 -145.5t-71.5 -118.5 t-105.5 -80t-128.5 -29q-72 0 -133 29t-106 80t-72 118.5t-27 145.5zM1237 381q0 -74 42 -127t101 -53q55 0 96.5 53t41.5 127v194q0 37 -11.5 69t-30 56.5t-44 39t-52.5 14.5q-29 0 -55.5 -14.5t-45.5 -39t-30.5 -56.5t-11.5 -69v-194z" />
<glyph unicode="&#x26;" horiz-adv-x="1124" d="M72 436q0 76 20.5 153t56 153.5t83 152.5t100.5 147q-35 76 -57.5 132.5t-35 97.5t-16.5 68.5t-4 45.5q0 78 33 150t88 119q47 39 99.5 56.5t105.5 8.5q70 -10 126 -55t85 -111q10 -25 19 -61.5t5 -84.5t-24.5 -106.5t-69.5 -121.5q-8 -10 -18.5 -22.5t-22.5 -29.5 q-16 -18 -39.5 -45.5t-46.5 -58.5q39 -82 93.5 -183.5t129.5 -230.5q0 -4 1 -6t1 -6q6 49 11.5 100.5t9.5 104.5q2 16 -1 46t-20 46q-31 41 -20.5 92t51.5 84q41 35 85 37t71 -39q12 -20 20 -37.5t11.5 -43t0 -70t-11.5 -118t-20.5 -186t-30.5 -276.5l207 -338h-227l-89 143 q-78 -82 -182 -116.5t-203 -22.5q-72 8 -138 39t-119.5 84t-85 131t-31.5 178zM266 436q0 -59 18.5 -103t47 -73t63.5 -44t70 -19q72 -10 142.5 19.5t115.5 107.5q-35 57 -76 126.5t-81 140.5t-75.5 137.5t-62.5 117.5q-66 -100 -114 -208t-48 -202zM416 1386q0 -12 8 -50 t41 -115q10 6 17 14l14 16q10 14 19 25.5t13 17.5q37 53 51.5 101.5t-1.5 85.5q-16 35 -47 44t-64 -16q-23 -23 -37 -55.5t-14 -67.5z" />
<glyph unicode="'" horiz-adv-x="163" d="M31 1669h166l-19 -270h-127z" />
<glyph unicode="(" horiz-adv-x="501" d="M72 834.5q0 242.5 50 482t148 461.5h197q-100 -221 -150.5 -461t-50.5 -482.5t50.5 -481t150.5 -459.5h-197q-98 221 -148 459.5t-50 481z" />
<glyph unicode=")" horiz-adv-x="503" d="M72 -106q100 221 149 459.5t49 481t-49 482t-149 461.5h194q100 -221 149.5 -461t49.5 -482.5t-49 -481t-150 -459.5h-194z" />
<glyph unicode="*" horiz-adv-x="608" d="M72 1495l67 111l103 -62v117h131v-117l100 58l66 -111l-103 -57l103 -60l-66 -110l-100 55v-117h-131v115l-103 -55l-65 110l104 62z" />
<glyph unicode="+" horiz-adv-x="806" d="M72 586v190h235v234h195v-234h235v-190h-235v-240h-195v240h-235z" />
<glyph unicode="," horiz-adv-x="374" d="M72 106q0 47 32.5 80t79.5 33q45 0 77 -28.5t36 -73.5l2 2q4 -31 2 -68t-17.5 -67.5t-48 -52t-92.5 -21.5v63q6 -2 15 0q6 2 14 6.5t14 14.5h-2q-47 0 -79.5 32.5t-32.5 79.5z" />
<glyph unicode="-" horiz-adv-x="768" d="M72 737v195h626v-195h-626z" />
<glyph unicode="." horiz-adv-x="370" d="M72 115q0 47 32.5 79.5t79.5 32.5t81 -32.5t34 -79.5t-34 -81t-81 -34t-79.5 34t-32.5 81z" />
<glyph unicode="/" horiz-adv-x="884" d="M72 8l583 1653h193l-582 -1653h-194z" />
<glyph unicode="0" horiz-adv-x="917" d="M72 373v909q0 78 29.5 146.5t80.5 118.5t119 80t145 30h33q78 0 146.5 -30t120 -80t81 -118.5t29.5 -146.5v-909q0 -78 -29.5 -145.5t-81 -118t-120 -80t-146.5 -29.5h-33q-78 0 -145.5 29.5t-118.5 80t-80.5 118t-29.5 145.5zM266 373q0 -76 53.5 -128t126.5 -52h33 q74 0 127 52t53 128v909q0 37 -14 69.5t-38.5 57.5t-57.5 39t-70 14h-33q-37 0 -69.5 -14t-57 -39t-39 -57.5t-14.5 -69.5v-909z" />
<glyph unicode="1" horiz-adv-x="567" d="M72 1481l168 174l184 2v-1464h72v-193h-326v193h59v1245l-57 -56z" />
<glyph unicode="2" horiz-adv-x="907" d="M73 1285.5q1 60.5 30.5 130t84 129t127 98t160.5 38.5q80 0 149.5 -31.5t122 -88t83 -132t30.5 -163.5q2 -111 -25.5 -204t-72.5 -173t-101.5 -147.5t-111.5 -125.5q-47 -49 -89 -97t-77 -99t-59.5 -106.5t-32.5 -118.5h348v69h192l-6 -264h-735q-2 150 25.5 263.5 t72.5 200.5t102.5 155.5t115.5 128.5q51 57 99 114.5t84 118.5t56.5 131t20.5 152q0 47 -15.5 88t-41 70.5t-60.5 47t-74 17.5t-72.5 -18.5t-60.5 -49.5q-14 -23 -15 -42t3 -38.5t9 -40t3 -43.5q-4 -53 -43 -84.5t-92 -29.5q-72 2 -103.5 43t-30.5 101.5z" />
<glyph unicode="3" horiz-adv-x="950" d="M72 422q0 47 32.5 78.5t85.5 34.5q53 2 92.5 -35t43.5 -90q2 -23 -3.5 -44.5t-8.5 -42t-2 -41t18 -44.5q55 -61 129 -62q33 0 67.5 25.5t61 77t44 126t17.5 170.5q0 111 -23.5 203t-72.5 146q-20 25 -46 43t-73 30.5t-124 16.5t-201 2l364 452h-178v-71h-193v266h777 l-387 -477q84 -27 149.5 -82t110.5 -134t68.5 -178.5t23.5 -216.5q0 -252 -101 -415q-53 -86 -125.5 -131t-158.5 -45q-80 0 -150.5 34.5t-123 94t-83 139.5t-30.5 170z" />
<glyph unicode="4" horiz-adv-x="1007" d="M72 557l549 1106h196v-909h176v-197h-176v-362h64v-193h-328v193h68v362h-549zM385 754h236v473z" />
<glyph unicode="5" horiz-adv-x="849" d="M72 420v2q0 47 31.5 78.5t84.5 34.5q53 2 93.5 -36t44.5 -89q2 -23 -2.5 -41.5t-7.5 -39t-3 -41t13 -44.5q55 -68 133 -68q74 0 123 68q12 18 25.5 45.5t23.5 69.5t17 98.5t7 132.5q0 147 -31.5 257.5t-91.5 151.5q-51 35 -146 36t-267 -44v668h639v-266h-193v71h-254 v-237q199 26 334 -70q102 -72 152.5 -220.5t50.5 -346.5q0 -154 -25.5 -266.5t-79.5 -190.5q-106 -152 -284 -151q-98 0 -185.5 53t-140.5 147q-61 104 -61 238z" />
<glyph unicode="6" horiz-adv-x="778" d="M72 379v928q0 78 27.5 146.5t75.5 118.5t111.5 79.5t137.5 29.5t137.5 -29.5t110.5 -79.5t73.5 -119t26.5 -146q0 -102 -108 -115q-53 -4 -96.5 23.5t-49.5 80.5q-4 25 -1 56.5t-1 61.5t-23.5 50.5t-68.5 22.5q-33 0 -61.5 -14.5t-50 -39t-34 -57.5t-12.5 -69v-220 q76 41 158 41q74 0 137.5 -29.5t110.5 -79.5t73.5 -119t26.5 -144v-377q0 -78 -26.5 -145.5t-73.5 -119t-110.5 -81t-137.5 -29.5t-137.5 29.5t-111.5 81t-75.5 119t-27.5 145.5zM266 397q0 -74 46 -127t112 -53t110 53.5t44 126.5v359q0 74 -44 127t-110 53t-112 -53.5 t-46 -126.5v-359z" />
<glyph unicode="7" horiz-adv-x="880" d="M72 1397v266h727v-145q-2 -2 -33 -42t-77 -118t-101.5 -191.5t-104.5 -261t-83.5 -326t-43.5 -384.5h74v-193h-326v193h78q8 238 49 438.5t98.5 363t120 285.5t113.5 203h-299v-88h-192z" />
<glyph unicode="8" horiz-adv-x="843" d="M72 354v434q0 88 40 164t105 127q-49 47 -78.5 112.5t-29.5 139.5q0 70 27.5 133.5t74.5 109.5t111.5 73.5t136.5 27.5q70 0 133 -27.5t109.5 -73.5t74 -109.5t27.5 -133.5q0 -74 -29 -139.5t-76 -112.5q63 -51 102.5 -126.5t39.5 -164.5v-434q0 -78 -30 -145.5 t-80 -117.5t-118.5 -79.5t-146.5 -29.5h-19q-78 0 -145.5 29.5t-118.5 79.5t-80.5 117.5t-29.5 145.5zM266 354q0 -76 53.5 -128t126.5 -52h19q76 0 128 52.5t52 127.5v434q0 74 -52 126.5t-128 52.5h-19q-74 0 -127 -52.5t-53 -126.5v-434zM303 1331q0 -63 45 -108t111 -45 q61 0 106 45t45 108t-45 106.5t-106 43.5q-66 0 -111 -43t-45 -107z" />
<glyph unicode="9" horiz-adv-x="778" d="M72 360v2q0 100 108 113q53 4 95 -23.5t51 -80.5q2 -18 -1 -39t-6.5 -40.5t-2.5 -40t14 -38.5q43 -33 94 -33q66 0 110 52.5t44 127.5v244q-33 -18 -73 -29.5t-81 -11.5q-74 0 -137.5 30t-111.5 81t-75.5 118.5t-27.5 145.5v369q0 78 27.5 146.5t75.5 118.5t111.5 79.5 t137.5 29.5h4q72 0 135.5 -30.5t109.5 -80.5t72.5 -119t26.5 -144v-947q0 -78 -26.5 -145.5t-73.5 -118.5t-110.5 -80.5t-137.5 -29.5t-137.5 29.5t-111.5 80.5t-75.5 119t-27.5 145zM266 938q0 -74 46 -127t112 -53t110 53t44 127v367q0 76 -44.5 129t-107.5 53h-2 q-33 0 -61.5 -14.5t-50 -39t-34 -58.5t-12.5 -70v-367z" />
<glyph unicode=":" horiz-adv-x="370" d="M72 115q0 47 32.5 79.5t79.5 32.5t81 -32.5t34 -79.5t-34 -81t-81 -34t-79.5 34t-32.5 81zM72 1083q0 47 32.5 80t79.5 33t81 -33t34 -80t-34 -80.5t-81 -33.5t-79.5 33.5t-32.5 80.5z" />
<glyph unicode=";" horiz-adv-x="374" d="M72 106q0 47 32.5 80t79.5 33q45 0 77 -28.5t36 -73.5q4 -31 3 -67t-16.5 -66.5t-48 -52t-92.5 -21.5v63q6 -2 15 0q6 2 14 6.5t14 14.5h-2q-47 0 -79.5 32.5t-32.5 79.5zM76 1081q0 47 33.5 80t80.5 33t80 -33t33 -80t-32.5 -80.5t-80.5 -33.5q-47 0 -80.5 33.5 t-33.5 80.5z" />
<glyph unicode="&#x3c;" horiz-adv-x="681" d="M72 807l440 684l164 -102l-377 -586l356 -570l-168 -100z" />
<glyph unicode="=" horiz-adv-x="768" d="M72 563v195h626v-195h-626zM72 872v197h626v-197h-626z" />
<glyph unicode="&#x3e;" horiz-adv-x="681" d="M72 1389l166 102l438 -684l-412 -674l-168 100l355 570z" />
<glyph unicode="?" horiz-adv-x="851" d="M61 1235q0 90 30 170t82 139.5t122 93t149 33.5q80 0 151 -31.5t123 -88t81.5 -132.5t31.5 -164q2 -111 -16 -192.5t-49 -143t-70 -107.5t-75 -87q-35 -39 -68 -76t-59.5 -83t-42 -106.5t-13.5 -146.5l-151 -4q-2 115 12 199t41 147.5t62.5 110.5t76.5 90q33 37 61.5 74 t51 81t35 102t12.5 142q-2 45 -17.5 86t-42 71t-61.5 47.5t-74 17.5q-78 0 -133 -68q-14 -18 -14 -40.5t5 -47.5t10 -48.5t3 -45.5q-8 -53 -50 -81t-95 -24q-109 12 -109 113zM254 115q0 47 33 79.5t80 32.5t80.5 -32.5t33.5 -79.5t-33.5 -81t-80.5 -34t-80 34t-33 81z" />
<glyph unicode="@" horiz-adv-x="1306" d="M72 401v420q0 127 48 240t132 195.5t195.5 131t238.5 48.5t239.5 -48.5t195.5 -131t131 -195.5t48 -240v-497q0 -55 -23.5 -107.5t-63 -92.5t-92 -64.5t-109.5 -24.5q-53 0 -108.5 28.5t-84.5 79.5q-72 -49 -147 -49q-63 0 -119.5 33t-99.5 90q-76 106 -76 254v289 q0 72 19.5 138.5t56.5 117.5q43 57 99 89t120 32q29 0 68.5 -8.5t72.5 -41.5v23h158v-811q0 -41 20 -61q14 -16 35 -15.5t38 13t29.5 36t12.5 52.5v497q0 86 -33 163t-90 134.5t-134 91t-163 33.5t-161.5 -33.5t-133 -91t-91.5 -134.5t-34 -163v-420q0 -127 66.5 -227 t173.5 -151q23 -10 42 -8.5t37.5 8t38 12.5t42.5 6q53 0 86.5 -39t35.5 -92q2 -47 -30.5 -85t-91.5 -38q-127 0 -235.5 49t-188.5 132t-125 194.5t-45 238.5zM571 471q0 -78 32 -113.5t69 -35.5t71.5 35.5t34.5 113.5v289q0 80 -34.5 129t-71.5 49t-69 -49t-32 -129v-289z " />
<glyph unicode="A" horiz-adv-x="1021" d="M72 0v193h82l280 1464h166l285 -1464h65v-193h-327v193h63l-47 245h-242l-47 -245h49v-193h-327zM434 631h168l-86 438z" />
<glyph unicode="B" horiz-adv-x="954" d="M72 0v193h108v1271h-108v193h432q66 0 124 -27.5t102 -77t69.5 -114t27.5 -138.5v-32q0 -158 -94 -262q68 -47 109 -125t41 -170v-351q0 -74 -28 -139t-76 -114.5t-112.5 -78t-138.5 -28.5h-456zM373 193h155q33 0 63 13t51.5 35.5t33.5 53.5t12 65v351q0 68 -47 117 t-113 49h-155v-684zM373 1094h133q51 0 90 49t41 119v26q0 37 -11.5 69t-29.5 55.5t-42 37.5t-50 14h-131v-370z" />
<glyph unicode="C" horiz-adv-x="899" d="M72 354v946q0 78 29.5 147t79.5 119t118 79.5t145 29.5h21q74 0 140.5 -27.5t119.5 -80.5q35 -31 56.5 -67t35.5 -77q8 -25 9 -55q0 -3 1 -5q0 -25 -9 -51q-9 -28 -28.5 -49.5t-52.5 -29.5q-14 -3 -28 -3q-36 0 -69 22q-46 30 -62 89q-8 35 -8.5 60.5t-9.5 42t-34.5 26 t-81.5 11.5q-76 0 -128 -53.5t-52 -127.5v-946q0 -74 52.5 -126t127.5 -52q51 0 75 9.5t32 26.5t10 42t12 55q17 57 67 85q32 18 63 18q18 0 36 -6q25 -6 44.5 -26t30.5 -46q12 -28 12 -58q0 -27 -13 -53q-20 -53 -56 -98t-82 -77t-99.5 -49t-110.5 -17h-21 q-78 0 -145.5 29.5t-117.5 80.5t-79.5 119t-29.5 143z" />
<glyph unicode="D" horiz-adv-x="974" d="M72 0v193h102v1271h-102v193h475q74 0 138.5 -27.5t113.5 -77t76.5 -114t27.5 -138.5v-942q0 -74 -27.5 -139t-75.5 -114.5t-111.5 -78t-135.5 -28.5zM369 193h184q66 0 113 48t47 117v942q0 68 -48.5 115t-117.5 47h-178v-1269z" />
<glyph unicode="E" horiz-adv-x="839" d="M72 0v193h106v1271h-106v193h696v-326h-193v131h-204v-606h258v-194h-258v-469h204v135h193v-328h-696z" />
<glyph unicode="F" horiz-adv-x="804" d="M72 0v193h71v1271h-55v193h645v-326h-192v131h-205v-606h217v-194h-217v-469h63v-193h-327z" />
<glyph unicode="G" horiz-adv-x="909" d="M72 354v946q0 78 29.5 147t79.5 119t118 79.5t145 29.5q90 0 159 -27.5t122 -80.5q33 -29 55.5 -68t42.5 -94q6 -23 6 -44q0 -34 -15 -65q-26 -49 -77 -63q-15 -3 -29 -3q-19 0 -38 6q-31 11 -53.5 35.5t-34.5 57.5q-10 25 -10 51q0 9 1 17q0 47 -31.5 65.5t-97.5 18.5 q-76 0 -128 -53.5t-52 -127.5v-946q0 -76 52.5 -128t127.5 -52h21q74 0 126 52.5t52 127.5v310h-225v192h420v-502q0 -78 -30 -145.5t-81 -117.5t-118.5 -79.5t-143.5 -29.5h-21q-78 0 -145.5 29.5t-117.5 79.5t-79.5 117.5t-29.5 145.5z" />
<glyph unicode="H" horiz-adv-x="1019" d="M72 1464v193h327v-193h-67v-608h354v608h-68v193h328v-193h-67v-1271h69v-193h-327v193h65v469h-354v-469h69v-193h-327v193h63v1271h-65z" />
<glyph unicode="I" horiz-adv-x="475" d="M72 0v193h69v1271h-65v193h327v-193h-69v-1271h65v-193h-327z" />
<glyph unicode="J" horiz-adv-x="954" d="M72 365v380h2v6q0 55 32 95q35 43 87 47h5q50 0 87 -39q39 -41 41 -100q1 -7 1 -13q0 -43 -24 -77l-4 -7l-4 -4q0 -2 -2 -2q-8 -12 -18.5 -30.5t-10.5 -40.5v-215q0 -39 14.5 -75t39 -62.5t58.5 -42t70 -15.5q37 0 70 15.5t57.5 42t39 62.5t14.5 75v1099h-70v193h326 v-193h-62v-1099q0 -80 -29.5 -151t-79.5 -123t-119 -81.5t-147 -29.5t-146.5 29.5t-118.5 81.5t-79.5 123t-29.5 151z" />
<glyph unicode="K" horiz-adv-x="1011" d="M72 0v193h73v1271h-69v193h327v-193h-71v-422l268 422h-43v193h332v-193h-66l-266 -422l311 -849h72v-193h-326v193h56l-240 653l-98 -158v-495h67v-193h-327z" />
<glyph unicode="L" horiz-adv-x="800" d="M72 1464v193h327v-193h-69v-1269h207v133h192v-328h-592v1464h-65z" />
<glyph unicode="M" horiz-adv-x="1183" d="M72 0v193h67v1464h189l260 -801l262 801h192v-2l-2 -1462h72v-193h-328v193h66v835l-184 -563h-154l-178 545v-817h65v-193h-327z" />
<glyph unicode="N" horiz-adv-x="1089" d="M72 0v193h65v1464h209l406 -1112v919h-62v193h328v-193h-72v-1464h-201l-413 1126v-933h67v-193h-327z" />
<glyph unicode="O" horiz-adv-x="909" d="M72 358v940q0 78 29.5 146.5t79.5 120t119 81t146 29.5h19q76 0 144.5 -29.5t118.5 -81t80 -120t30 -146.5v-940q0 -78 -30 -145.5t-81 -119.5t-118.5 -81.5t-143.5 -29.5h-21q-78 0 -145.5 29.5t-117.5 81.5t-79.5 120t-29.5 145zM264 358q0 -78 52.5 -129t127.5 -51h21 q74 0 126 51.5t52 128.5v940q0 76 -52 129.5t-126 53.5h-21q-76 0 -128 -53.5t-52 -129.5v-940z" />
<glyph unicode="P" horiz-adv-x="933" d="M72 0v193h63v1271h-47v193h424q74 0 137.5 -29t110.5 -77t74.5 -113.5t27.5 -139.5v-352q0 -74 -27.5 -139.5t-74.5 -114.5t-110.5 -77.5t-137.5 -28.5h-184v-393h71v-193h-327zM328 778h184q66 0 112 48t46 120v352q0 68 -46 116t-112 48h-184v-684z" />
<glyph unicode="Q" horiz-adv-x="923" d="M72 358v940q0 78 29.5 146.5t79.5 120t119 81t146 29.5h19q76 0 144.5 -29.5t118.5 -81t80 -120t30 -146.5v-940q0 -92 -41 -170q10 -6 17 -13t17 -15q12 -14 45 -57.5t69 -90.5t67.5 -89t44.5 -54q16 -23 31.5 -21t32 14.5t36 31t42 31t51 12.5t63.5 -25q27 -18 36 -50 q6 -22 6 -45q0 -11 -1 -21q-4 -34 -20.5 -63.5t-41.5 -45.5q-35 -25 -78 -36t-86 -11q-78 0 -143 65q-2 2 -37 46t-80 100.5t-90 111.5t-69 82q-8 12 -25 6l-14 -6q-92 -63 -205 -63h-21q-78 0 -145.5 29.5t-117.5 81.5t-79.5 120t-29.5 145zM264 358q0 -78 52.5 -129 t127.5 -51h21q74 0 126 51.5t52 128.5v940q0 76 -52 129.5t-126 53.5h-21q-76 0 -128 -53.5t-52 -129.5v-940z" />
<glyph unicode="R" horiz-adv-x="1007" d="M72 0v193h63v1271h-47v193h426q72 0 135.5 -29t110.5 -77t74.5 -113.5t27.5 -139.5v-352q0 -80 -30.5 -147.5t-81.5 -118.5q55 -51 87.5 -122t32.5 -152v-213h66v-193h-328v193h68v213q0 76 -53.5 129t-128.5 53h-164v-395h69v-193h-327zM330 782h184q66 0 111 48.5 t45 115.5v352q0 68 -45 116t-111 48h-184v-680z" />
<glyph unicode="S" horiz-adv-x="901" d="M74 1321q0 74 29.5 139.5t81 113.5t120 75.5t146.5 27.5q76 0 143.5 -28.5t117.5 -78.5t80.5 -120t34.5 -150q-2 -59 -39.5 -100t-91.5 -41q-53 2 -89 45q-34 41 -34 97v6q0 10 5.5 26.5t8.5 34.5t2 35.5t-14 30.5q-53 49 -124 49q-78 0 -131.5 -47t-53.5 -115 q0 -63 19.5 -118.5t54.5 -105.5t80 -95.5t96 -90.5q55 -51 111.5 -108.5t102.5 -127t72 -151.5q25 -76 25 -166v-14q-4 -164 -104 -262t-272 -98q-78 0 -145.5 29.5t-118 81.5t-80 121t-29.5 146q4 58 42 100q36 40 86 40h5q53 -2 87 -46t34 -104q0 -20 -5 -37.5t-9.5 -32 t-5.5 -25.5t5 -19q53 -59 134 -60q178 0 182 172v12q1 59 -17 109q-20 55 -54 105.5t-80 96.5t-97 93q-55 49 -111.5 106.5t-101.5 125.5q-44 67 -72 147q-26 75 -26 163v13z" />
<glyph unicode="T" horiz-adv-x="1019" d="M72 1331v326h876v-326h-192v131h-148v-1269h72v-193h-328v193h62v1269h-150v-131h-192z" />
<glyph unicode="U" horiz-adv-x="1026" d="M72 1464v193h327v-193h-69v-1106q0 -78 52 -130t128 -52h20q74 0 126.5 52.5t52.5 129.5v1106h-82v193h327v-193h-51v-1106q0 -78 -29.5 -146.5t-81 -119.5t-119 -80.5t-143.5 -29.5h-20q-78 0 -145.5 29.5t-117.5 80.5t-80 120t-30 146v1106h-65z" />
<glyph unicode="V" horiz-adv-x="1011" d="M72 1464v193h327v-193h-57l170 -874l166 874h-66v193h328v-193h-63l-283 -1464h-166l-283 1464h-73z" />
<glyph unicode="W" horiz-adv-x="1497" d="M72 1464v193h327v-193h-51l125 -719l41 -268l43 271l115 690h172l110 -693l41 -268l43 268l129 719h-69v193h327v-193h-65l-281 -1464h-166l-157 838l-156 -838h-170l-276 1464h-82z" />
<glyph unicode="X" horiz-adv-x="960" d="M72 1464v193h325v-193h-63l139 -391l139 391h-51v193h328l-2 -2v-191h-68l-241 -680l210 -591h66v-189l2 -4h-328v193h54l-109 303l-108 -303h59v-193h-322l-4 193h62l211 591l-242 680h-57z" />
<glyph unicode="Y" horiz-adv-x="978" d="M72 1464v193h327v-193h-63l151 -481l148 481h-55v193h327v-193h-65l-256 -823v-448h73v-193h-327v193h63v446l-260 825h-63z" />
<glyph unicode="Z" horiz-adv-x="946" d="M72 0l524 1462h-268v-137h-193v328h2v4h737l-528 -1462h289v133h192v-328h-755z" />
<glyph unicode="[" horiz-adv-x="624" d="M72 -88v1847h516v-196h-322v-1457h322v-194h-516z" />
<glyph unicode="\" horiz-adv-x="884" d="M72 1661h194l582 -1653h-193z" />
<glyph unicode="]" horiz-adv-x="624" d="M72 -88v194h325v1457h-325v196h516v-1847h-516z" />
<glyph unicode="^" horiz-adv-x="1032" d="M72 1436l463 387l471 -385l-125 -152l-344 287l-336 -287z" />
<glyph unicode="_" horiz-adv-x="1114" d="M72 0h972v-193h-972v193z" />
<glyph unicode="`" horiz-adv-x="354" d="M72 1626h166l45 -270h-127z" />
<glyph unicode="a" horiz-adv-x="886" d="M72 358v134q0 78 26.5 145.5t71.5 118.5t106.5 79.5t131.5 28.5q37 0 78.5 -17.5t64.5 -51.5v131q0 23 -9.5 40t-25.5 29t-31.5 5t-31 -22t-30.5 -32.5t-32 -25.5q-33 -18 -64 -18q-18 0 -36 6q-49 16 -74 61q-18 35 -18 67q-1 15 3 29q12 45 49.5 79t90.5 52 q48 16 101 17q6 0 12 -1q61 -2 114.5 -25.5t92 -62.5t60 -90t21.5 -108v-733h72v-193h-268v59q-20 -29 -49 -53t-90 -24q-70 0 -131.5 29.5t-106.5 80.5t-71.5 120t-26.5 146zM264 358q0 -78 42 -130t102 -52q55 0 95 32t40 109v215q0 72 -40 106t-95 34q-29 0 -55.5 -14.5 t-46 -39t-31 -57.5t-11.5 -69v-134z" />
<glyph unicode="b" horiz-adv-x="880" d="M72 0v193h71v1290h-67v192h327v-192h-67v-348q23 45 62.5 61t78.5 16q68 0 128.5 -28.5t105.5 -79.5t71.5 -118.5t26.5 -145.5v-482q0 -78 -23.5 -146.5t-66.5 -119.5t-101.5 -80.5t-125.5 -29.5q-41 0 -67 7t-42 19t-26.5 26.5t-18.5 28.5v-63h-266zM336 358 q0 -78 42 -130t99 -52q55 0 97 52.5t42 129.5v482q0 37 -11 68.5t-30.5 55t-45 38t-52.5 14.5q-29 0 -54.5 -14.5t-45 -38t-30.5 -55t-11 -68.5v-482z" />
<glyph unicode="c" horiz-adv-x="800" d="M72 354v486q0 78 25.5 145.5t70.5 118.5t106.5 79.5t131.5 28.5q104 0 188 -64.5t121 -168.5q6 -18 11 -42q3 -13 3 -27q0 -12 -2 -22q-4 -24 -20.5 -46.5t-51.5 -38.5q-26 -13 -53 -13q-22 0 -45 8q-51 18 -76 74q-14 29 -14 68q-2 23 0 40t-21 28q-20 8 -40 8 q-29 0 -54.5 -14.5t-46 -38t-32 -55t-11.5 -68.5v-486q0 -74 43 -126t101 -52q41 0 48 20.5t9 55.5v2q0 16 4 32.5t10 32.5q25 55 76 74q23 9 45 9q27 0 53 -13q55 -25 63 -75q4 -21 4 -42q0 -30 -7 -61q-37 -100 -119 -164.5t-186 -64.5q-70 0 -131.5 29.5t-106.5 80.5 t-70.5 119t-25.5 143z" />
<glyph unicode="d" horiz-adv-x="886" d="M72 358v482q0 78 26.5 145.5t71.5 118.5t105.5 79.5t130.5 28.5q39 0 78.5 -15t66.5 -46v332h-68v192h328v-192h-66v-1290h70v-193h-266v63q-14 -41 -59 -61t-84 -20q-70 0 -130.5 29.5t-105.5 80.5t-71.5 120t-26.5 146zM266 358q0 -78 40 -130t100 -52q57 0 97 52.5 t40 129.5v482q0 72 -40 124t-97 52q-59 0 -99.5 -52.5t-40.5 -123.5v-482z" />
<glyph unicode="e" horiz-adv-x="811" d="M72 358v461q0 78 26.5 146.5t71.5 119t105.5 80t130.5 29.5q68 0 129 -29.5t106 -80t71.5 -119t26.5 -146.5v-262h-473v-199q0 -74 41 -128t99 -54q29 0 54 15.5t44 41.5q6 14 0 26.5t-12 29.5v2q-4 16 -7.5 32.5t-1.5 34.5q4 59 46 93q38 30 85 30h11q47 -4 76.5 -36.5 t35.5 -86.5h2q0 -78 -26.5 -146.5t-71.5 -119.5t-106.5 -80.5t-128.5 -29.5q-70 0 -130.5 29.5t-105.5 80.5t-71.5 120t-26.5 146zM266 752h277v67q0 74 -40 126t-97 52t-98.5 -52t-41.5 -126v-67z" />
<glyph unicode="f" horiz-adv-x="872" d="M72 997v197h127v104q0 78 25.5 146.5t70.5 120t105.5 81t129.5 29.5q55 0 108.5 -21.5t98.5 -58.5l2 -2q47 -39 57 -92q3 -13 3 -26q0 -38 -23 -72q-29 -43 -85 -50q-10 -1 -19 -1q-45 0 -86 28q-29 18 -45 50q-2 0 -2 2q-14 18 -27.5 31.5t-38.5 -1.5l-8 -4 q-33 -23 -54.5 -65.5t-21.5 -94.5v-104h135v-197h-135v-804h72v-193h-326v193h64v804h-127z" />
<glyph unicode="g" horiz-adv-x="876" d="M72 352v488q0 78 26.5 145.5t71.5 118.5t105.5 79.5t130.5 28.5q35 0 75.5 -19t59.5 -63v62h264v-193h-64v-997q0 -78 -26.5 -146.5t-72.5 -118.5t-107.5 -80t-128.5 -30q-57 0 -110.5 21.5t-98.5 60.5q-47 39 -57 93q-3 13 -3 26q0 38 23 72q29 43 85 50q9 1 18 1 q46 0 87 -29q31 -23 47 -49v-2q16 -20 28.5 -32.5t37.5 1.5q8 4 10 4q33 25 52.5 67t19.5 91v41q-61 -61 -139 -61q-70 0 -130.5 29.5t-105.5 79.5t-71.5 117.5t-26.5 143.5zM266 352q0 -37 11.5 -68.5t30 -56t44 -39t54.5 -14.5t54 14.5t43.5 39t30 56t11.5 68.5v488 q0 72 -40 124t-99 52q-29 0 -54.5 -14.5t-44 -38t-30 -55t-11.5 -68.5v-488z" />
<glyph unicode="h" horiz-adv-x="935" d="M72 0v193h69v1271h-69v193h327v-193h-65v-288q66 36 139 36h4q68 0 128.5 -28.5t105.5 -79.5t71.5 -118.5t26.5 -145.5v-647h55v-193h-325v193h75v647q0 72 -41 124t-96 52q-29 0 -55.5 -14.5t-46 -38t-30.5 -55t-11 -68.5v-647h65v-193h-327z" />
<glyph unicode="i" horiz-adv-x="471" d="M72 0v193h67v806h-67v193h327v-193h-65v-806h65v-193h-327zM123 1386q0 47 32.5 80t80.5 33q47 0 80.5 -32.5t33.5 -80.5q0 -47 -33.5 -79.5t-80.5 -32.5t-80 32.5t-33 79.5z" />
<glyph unicode="j" horiz-adv-x="473" d="M-262 -181q-5 17 -5 34q0 32 19 61q31 43 88 50q9 1 19 1q45 0 86 -28q31 -25 45 -50l2 -2q12 -16 23.5 -29.5t29.5 -7.5q43 16 71.5 64.5t28.5 107.5v979h-71v193h327v-193h-61v-979q0 -78 -26.5 -146.5t-71.5 -118.5t-106.5 -79.5t-131.5 -29.5q-55 0 -108.5 21.5 t-96.5 60.5q-47 39 -61 91zM125 1386q0 47 32.5 80t80.5 33q47 0 80.5 -32.5t33.5 -80.5q0 -47 -33.5 -79.5t-80.5 -32.5t-80 32.5t-33 79.5z" />
<glyph unicode="k" horiz-adv-x="954" d="M72 0v193h67v1290h-67v192h327v-192h-71v-723l192 241h-37v193h328v-193h-63l-158 -206l217 -602h76v-193h-328v193h53l-157 430l-123 -164v-266h71v-193h-327z" />
<glyph unicode="l" horiz-adv-x="471" d="M72 0v193h63v1290h-63v192h327v-192h-69v-1290h69v-193h-327z" />
<glyph unicode="m" horiz-adv-x="1425" d="M72 0v193h69v808h-69v193h266v-78q33 47 76 71.5t82 24.5q68 0 118 -29.5t97 -82.5q45 53 106.5 82.5t128.5 29.5q70 0 131.5 -28.5t107.5 -79.5t71.5 -118.5t25.5 -145.5v-647h72v-193h-328v193h61v647q0 37 -11 68.5t-30.5 55t-45 38t-54.5 14.5q-55 0 -96 -52.5 t-41 -123.5v-647h65v-193h-327v193h65v647q0 72 -40 124t-97 52q-29 0 -54.5 -14.5t-44 -38t-29.5 -55t-11 -68.5v-647h63v-193h-327z" />
<glyph unicode="n" horiz-adv-x="948" d="M72 1001v193h266v-78q6 25 23.5 42.5t40 29.5t47 18t43.5 6q68 0 127 -28.5t102 -79.5t67.5 -118.5t24.5 -145.5v-647h64v-193h-328v193h67v647q0 72 -39.5 124t-97.5 52q-29 0 -54.5 -14.5t-45 -38t-30.5 -55t-11 -68.5v-647h68v-193h-328v193h67v808h-73z" />
<glyph unicode="o" horiz-adv-x="808" d="M72 354v486q0 78 25.5 145.5t70.5 118.5t106.5 79.5t131.5 28.5q68 0 128 -28.5t105 -79.5t71.5 -118.5t26.5 -145.5v-486q0 -76 -26.5 -143.5t-71.5 -118.5t-105.5 -80.5t-127.5 -29.5q-70 0 -131.5 29.5t-106.5 80.5t-70.5 119t-25.5 143zM262 354q0 -74 43 -126 t101 -52q55 0 96 52.5t41 125.5v486q0 72 -41 124t-96 52q-29 0 -54.5 -14.5t-46 -38t-32 -55t-11.5 -68.5v-486z" />
<glyph unicode="p" horiz-adv-x="886" d="M72 1001v193h266v-80q33 53 81 75.5t87 22.5q61 0 117.5 -28.5t99.5 -79.5t67.5 -118.5t24.5 -145.5v-486q0 -76 -25.5 -143.5t-70.5 -118.5t-105.5 -80.5t-130.5 -29.5q-39 0 -77.5 14t-67.5 43v-193h63v-192h-325v192h69v1155h-73zM346 354q0 -74 40 -126t97 -52 t97.5 52.5t40.5 125.5v486q0 37 -11.5 68.5t-30 56t-43 39t-53.5 14.5t-53 -14.5t-42.5 -39t-30 -56t-11.5 -68.5v-486z" />
<glyph unicode="q" horiz-adv-x="1005" d="M72 354v486q0 78 26.5 145.5t70.5 118.5t100.5 79.5t115.5 28.5q18 0 42 -5t47.5 -16t44 -30.5t30.5 -46.5v80h270v-193h-76v-1058q0 -41 20.5 -45.5t45.5 -8.5q59 -4 93 -46q30 -38 30 -84v-11q-4 -53 -45 -83t-101 -30q-49 0 -93 18.5t-75.5 51.5t-50 77t-18.5 93v164 q-33 -33 -70 -45t-73 -12q-70 0 -131.5 29.5t-106.5 80.5t-70.5 119t-25.5 143zM266 354q0 -74 40 -126t100 -52q55 0 95 52.5t40 125.5v486q0 72 -40 124t-95 52q-59 0 -99.5 -52.5t-40.5 -123.5v-486z" />
<glyph unicode="r" horiz-adv-x="837" d="M72 1001v193h266v-68q20 51 66 68.5t85 17.5q33 0 71 -11t73 -30.5t64.5 -48t45.5 -63.5q21 -42 21 -82q0 -11 -1 -21q-7 -50 -52 -77q-29 -17 -64 -21q-8 -1 -15 -1q-28 -1 -52 9q-32 12 -53 40t-21 73q-6 16 -14.5 26.5t-26.5 10.5q-53 -8 -91 -58.5t-38 -117.5v-647 h65v-193h-327v193h69v808h-71z" />
<glyph unicode="s" horiz-adv-x="774" d="M74 938q0 57 25.5 107.5t68.5 87t99.5 58t121.5 21.5q37 0 78 -10t80 -29.5t69.5 -48t47.5 -65.5q22 -40 22 -78q0 -13 -2 -25q-10 -50 -55 -77q-31 -20 -69 -20q-14 0 -26 2q-54 9 -88 61q-8 12 -14 28.5t-12 30.5t-16.5 24.5t-28.5 10.5h-4q-45 -4 -74 -27.5t-29 -56.5 v-5q0 -63 47 -122q49 -61 129 -129q43 -33 90.5 -75t83.5 -93q36 -52 60 -114q22 -58 22 -126v-12q-4 -125 -89 -199.5t-222 -74.5q-98 0 -176 49t-113 131q-14 35 -14 67q0 20 6 38q14 48 62 71q26 14 56 14q19 0 39 -6q52 -14 81 -70q4 -10 7 -26.5t9 -32.5t15.5 -28.5 t27.5 -12.5q43 0 66.5 10.5t34 24.5t12.5 28.5t2 24.5v6q0 68 -45 126q-47 60 -131 130q-43 33 -88 75t-82 92t-60.5 111.5t-23.5 133.5z" />
<glyph unicode="t" horiz-adv-x="798" d="M72 999v195h114v291h197v-291h227v-195h-227v-641q0 -29 6 -58.5t14.5 -52t18.5 -36.5t20 -14q8 0 13.5 9t11.5 22.5t14.5 30t22.5 30.5q43 43 98 43q49 0 87 -36t38 -83q0 -37 -20.5 -78t-56.5 -74.5t-82 -56t-95 -22.5q-59 0 -111.5 29.5t-91.5 80.5t-61.5 120 t-22.5 146v641h-114z" />
<glyph unicode="u" horiz-adv-x="944" d="M72 1001v193h319v-193h-61v-643q0 -74 41 -128t98 -54q55 0 96 54.5t41 127.5v643h-67v193h321v-193h-59v-808h71v-193h-266v45q-27 -27 -63.5 -45t-73.5 -18q-70 0 -130 29.5t-105.5 80.5t-72 120t-26.5 146v643h-63z" />
<glyph unicode="v" horiz-adv-x="839" d="M72 1001v193h309v-193h-53l92 -444l90 444h-55v193h313v-193h-61l-203 -1001h-168l-205 1001h-59z" />
<glyph unicode="w" horiz-adv-x="1286" d="M72 1001v193h317v-193h-57l65 -372l33 -256l29 254l106 567h158l102 -567l33 -254l31 254l69 374h-59v193h315v-193h-65l-217 -1001h-148l-141 772l-139 -772h-148l-215 1001h-69z" />
<glyph unicode="x" horiz-adv-x="860" d="M72 1001v193h309v-193h-47l94 -202l96 202h-51v193h315v-193h-53l-200 -421l190 -387h51v-193h-313v193h47l-82 165l-80 -165h45v-193h-305v193h47l184 387l-200 421h-47z" />
<glyph unicode="y" horiz-adv-x="937" d="M72 1001v193h327v-193h-69v-665q0 -74 40 -127t97 -53q55 0 96 53t41 127v665h-65v193h327v-193h-67v-997q0 -78 -25.5 -147.5t-71 -122.5t-105.5 -85t-130 -32q-45 0 -102.5 21.5t-99.5 58.5t-56 84q-3 12 -3 23q0 37 32 77q31 39 84 47q9 2 18 2q43 0 84 -34 q10 -10 21.5 -22.5t17.5 -29.5q10 -14 22.5 -21t34.5 3q37 23 60.5 65.5t23.5 106.5q-63 -35 -137 -35q-70 0 -130.5 30t-105.5 80t-71.5 117.5t-26.5 145.5v665h-61z" />
<glyph unicode="z" horiz-adv-x="841" d="M72 4l407 1000h-160v-105h-192v299h643l-408 -999h162v92h195v-287h-647z" />
<glyph unicode="{" horiz-adv-x="624" d="M72 848q0 49 24.5 91t71.5 71q12 8 26.5 29.5t25.5 49t18.5 58.5t7.5 59v162q0 61 17.5 114.5t46 92.5t68.5 61.5t85 22.5h125v-193h-117q-8 -6 -19.5 -31.5t-11.5 -66.5v-162q0 -51 -13 -104t-35.5 -101.5t-52.5 -87.5t-65 -63q0 -2 5 -2q37 -25 67.5 -64t54 -87 t36 -101t12.5 -104v-195q0 -41 10 -65.5t18 -32.5h111v-191h-117q-47 0 -86 22.5t-68.5 61.5t-46 91.5t-16.5 113.5v195q0 29 -7 59.5t-18.5 57t-27 47t-29.5 30.5q-47 29 -73.5 72t-26.5 90z" />
<glyph unicode="|" horiz-adv-x="337" d="M72 -143v1958h194v-1958h-194z" />
<glyph unicode="}" horiz-adv-x="624" d="M72 8v191h112q6 8 18.5 32.5t12.5 65.5v195q0 51 12.5 104t35 101t53 87t65.5 64q6 0 6 2q-35 25 -65.5 63.5t-53 87t-36 101.5t-13.5 104v162q0 41 -9 66.5t-20 31.5h-118v193h125q45 0 85 -22.5t69.5 -61.5t47 -92t17.5 -115v-162q0 -29 7 -59.5t19.5 -58t27 -49 t26.5 -29.5q47 -29 69.5 -71t22.5 -91q0 -47 -25.5 -90t-73.5 -72q-14 -10 -29.5 -30.5t-27.5 -47t-19 -57.5t-7 -59v-195q0 -61 -16.5 -113.5t-45.5 -91.5t-68.5 -61.5t-85.5 -22.5h-118z" />
<glyph unicode="~" horiz-adv-x="1067" d="M84 668.5q2 56.5 43 99.5q29 31 63 43q70 41 130.5 58.5t119.5 7.5q70 -10 117 -42t82 -63q29 -23 52.5 -40t45.5 -21h15q6 0 14 2q4 0 20 4q14 6 18.5 18.5t8.5 22.5q8 23 29 49q41 45 95 53.5t95 -26.5t42 -91.5t-40 -101.5q-6 -8 -14 -14v-2h-2q-14 -14 -35 -25 q-78 -49 -142.5 -68.5t-129.5 -11.5h-2q-66 10 -112 42t-81 65q-29 23 -52.5 38t-45.5 19h-4q-18 2 -45 -4q-12 -6 -17.5 -17.5t-9.5 -19.5q-10 -27 -31 -47q-41 -45 -96 -50t-94 29q-39 37 -37 93.5z" />
<glyph unicode="&#xa1;" horiz-adv-x="370" d="M68 -483l41 1349h153l41 -1349h-235zM72 1085q0 47 32.5 80t79.5 33t81 -32.5t34 -80.5q0 -47 -34 -79.5t-81 -32.5t-79.5 32.5t-32.5 79.5z" />
<glyph unicode="&#xa2;" horiz-adv-x="727" d="M72 418v651q0 49 17 95t48 84t73 64.5t91 39.5v135h162v-127q92 -18 160 -76q66 -57 86 -131q23 -51 10.5 -94t-53.5 -68q-43 -23 -91.5 -9.5t-74.5 60.5q-14 27 -19 60v2q-4 16 -3 28.5t-7 22.5q-4 4 -8 4v-829l2 2q27 12 34 26.5t13 34.5v2q8 29 25 49q31 39 74.5 44.5 t78.5 -23.5q35 -27 39 -68t-24 -84q-33 -72 -95.5 -121t-146.5 -63v-131h-162v137q-49 12 -91 39t-73 63.5t-48 83t-17 97.5zM266 418q0 -20 10.5 -39t24.5 -31v791q-14 -12 -24.5 -29.5t-10.5 -40.5v-651z" />
<glyph unicode="&#xa3;" horiz-adv-x="987" d="M72 594v190h131v514q0 78 25.5 146.5t70.5 120t105.5 81t130.5 29.5q51 0 102 -18.5t92 -52.5q2 0 6 -5q53 -39 67.5 -77.5t4.5 -77.5q-12 -53 -51 -75.5t-92 -12.5q-61 12 -89 65q-10 20 -32.5 41t-53.5 8q-41 -18 -68.5 -65t-27.5 -107v-514h246v-190h-246v-221 q0 -49 -9 -94.5t-24 -83.5q76 0 156 1t143 1q20 0 39 6q14 8 19.5 20.5t5.5 26.5t-4 26.5t-8 22.5v2q-10 25 -10.5 53.5t14.5 55.5q25 47 74 62.5t96 -7.5q37 -18 53 -52t12 -100v-2q-2 -47 -18.5 -101t-50 -100.5t-89 -76t-133.5 -29.5q-68 0 -155.5 -1t-169.5 -2 t-144.5 -2t-80.5 -1h-5l-2 192h4q12 0 29 13.5t32 36t25.5 56.5t10.5 77v221h-131z" />
<glyph unicode="&#xa4;" horiz-adv-x="858" d="M72 53l118 226q-27 74 -26 159v295q0 84 26 156l-118 225l174 90l73 -143q72 45 142 45q76 0 137 -45l76 143l172 -90l-117 -225q27 -72 27 -156v-295q0 -86 -27 -159l117 -226l-172 -90l-76 143q-59 -43 -137 -43q-74 0 -142 43l-73 -143zM356 438q0 -78 35 -129t70 -51 q37 0 69.5 51t32.5 129v295q0 76 -32.5 127t-69.5 51q-18 0 -36.5 -13t-34 -37.5t-25 -57.5t-9.5 -70v-295z" />
<glyph unicode="&#xa5;" horiz-adv-x="978" d="M72 1473v192h327v-192h-57l150 -476l145 476h-53v192h327v-192h-69l-183 -594h113v-193h-172l-14 -45h186v-195h-186v-245h67v-193h-327v193h65v245h-186v195h186v27l-6 18h-180v193h119l-187 594h-65z" />
<glyph unicode="&#xa6;" horiz-adv-x="337" d="M72 164v645h194v-645h-194zM72 946v647h194v-647h-194z" />
<glyph unicode="&#xa7;" horiz-adv-x="1142" d="M72 743q0 66 26.5 124.5t72.5 103.5t107.5 73.5t135.5 34.5q-35 86 -35 183q0 70 29.5 132t81 109t120 74t148.5 27q76 0 142.5 -27t116.5 -73t81.5 -107.5t36.5 -132.5q0 -8 2 -11q2 -59 -35 -103t-88 -46q-53 -2 -91 39t-40 100q-2 16 1 29.5t7 27.5q2 10 6 26.5 t-12 35.5q-51 45 -127 45q-78 0 -131.5 -42t-53.5 -105q0 -55 19.5 -102.5t53.5 -90.5t79 -83t94 -83q55 -47 112.5 -99t103.5 -114.5t75 -137.5t27 -169q-6 -147 -96.5 -238.5t-243.5 -105.5q16 -41 23 -84t3 -92q0 -78 -27.5 -141.5t-76.5 -108.5t-118 -69.5t-150 -24.5 q-78 0 -145.5 28.5t-119 76.5t-80 113.5t-28.5 139.5q2 59 38 99t87 42q53 0 90 -42t39 -101q0 -29 -10 -55v-2q-4 -10 -8.5 -25.5t12.5 -34.5q51 -45 125 -45q90 0 134 39t48 115q2 59 -17.5 108.5t-54.5 93.5t-80 83.5t-96 82.5q-55 45 -111.5 96.5t-100.5 113t-72.5 135 t-28.5 165.5zM266 741q0 -57 19.5 -104t53.5 -90t78 -83t93 -83q29 -23 57.5 -47.5t57.5 -52.5q29 -23 62.5 -37.5t70.5 -14.5q180 0 184 158q0 59 -19.5 107.5t-53 91.5t-79 84t-96.5 84q-27 23 -52.5 42t-47.5 40q-25 25 -65 39t-78 14q-78 0 -131.5 -43t-53.5 -105z" />
<glyph unicode="&#xa8;" horiz-adv-x="667" d="M72 1446q0 47 32.5 80t79.5 33t81 -33t34 -80t-34 -80t-81 -33t-79.5 33t-32.5 80zM369 1446q0 47 32.5 80t79.5 33t81 -33t34 -80t-34 -80t-81 -33t-79.5 33t-32.5 80z" />
<glyph unicode="&#xa9;" horiz-adv-x="1228" d="M72 551v510q0 127 48 238.5t130 195.5t192.5 132t237.5 48q125 0 234.5 -48t191.5 -132t130 -195.5t48 -238.5v-510q0 -127 -48 -237.5t-130 -194.5t-191.5 -132t-234.5 -48q-127 0 -237.5 48t-192.5 132t-130 194.5t-48 237.5zM274 551q0 -88 32 -165t87.5 -133t129 -89 t157.5 -33t156.5 33t126 89t84 133t30.5 165v510q0 86 -30.5 161.5t-84 133t-126 91.5t-156.5 34t-157.5 -34t-129 -91.5t-87.5 -133t-32 -161.5v-510zM348 582v446q0 78 26.5 146.5t72 118.5t105.5 79t130 29q43 0 94 -17.5t96.5 -48t75 -73.5t29.5 -95q0 -43 -34 -76.5 t-83 -33.5q-39 0 -73.5 25.5t-51.5 76.5q-12 37 -23 43t-34 6q-29 0 -53.5 -15t-43 -40t-28.5 -56.5t-10 -68.5v-446q0 -74 41 -127.5t98 -53.5q27 0 47.5 12.5t36.5 47.5t46 56.5t62 21.5q41 0 74 -30t33 -71q0 -47 -30.5 -88t-76 -73.5t-97.5 -51t-95 -18.5 q-70 0 -130 29.5t-105.5 81t-72 119t-26.5 145.5z" />
<glyph unicode="&#xaa;" horiz-adv-x="520" d="M63 1151v74q0 43 14.5 80.5t40 66.5t59.5 45.5t73 16.5q23 0 46 -10.5t36 -28.5v71q0 25 -21 39q-10 6 -18 3t-16.5 -11t-17.5 -18.5t-17 -14.5q-29 -16 -56.5 -7t-42.5 34q-14 29 -7 54.5t27.5 44t50.5 29.5t62 9q72 -4 117 -50t45 -112v-409h41v-107h-149v33 q-12 -16 -28.5 -29.5t-51.5 -13.5q-39 0 -73 16.5t-59.5 45t-40 67.5t-14.5 82zM170 1151q0 -43 23.5 -72.5t56.5 -29.5t54.5 18t21.5 61v119q0 41 -21.5 59.5t-54.5 18.5t-56.5 -29.5t-23.5 -70.5v-74z" />
<glyph unicode="&#xab;" horiz-adv-x="915" d="M72 807l282 448l166 -100l-221 -352l221 -357l-168 -100zM397 807l283 448l164 -100l-221 -352l221 -357l-168 -100z" />
<glyph unicode="&#xac;" horiz-adv-x="1253" d="M72 641v195h1149v-447h-195v252h-954z" />
<glyph unicode="&#xad;" horiz-adv-x="768" d="M72 737v195h626v-195h-626z" />
<glyph unicode="&#xae;" horiz-adv-x="1114" d="M72 580v706q0 86 33.5 163t90 134t133.5 90t163 33h196q88 0 165 -33t134 -90t90 -134t33 -163v-706q0 -88 -33 -165t-90 -134.5t-134 -91t-165 -33.5h-196q-86 0 -163 33.5t-133.5 91t-90 134.5t-33.5 165zM266 580q0 -49 17.5 -91.5t48 -73t71.5 -48t89 -17.5h196 q98 0 162.5 65.5t64.5 164.5v706q0 47 -17 89t-48 73t-72 49.5t-90 18.5h-196q-47 0 -88.5 -18.5t-72 -49.5t-48 -73t-17.5 -89v-706zM322 463v192h30v775h248q49 0 92 -19.5t75 -52.5t50.5 -77t18.5 -95v-195q0 -94 -52 -153q55 -72 56 -181v-2h24v-192h-252v192h35v2 q0 39 -19.5 67t-41.5 28h-43v-97h30v-192h-251zM543 942h57q18 0 30.5 14.5t12.5 34.5v195q0 18 -12.5 33.5t-30.5 15.5h-57v-293z" />
<glyph unicode="&#xaf;" horiz-adv-x="768" d="M72 1274v192h626v-192h-626z" />
<glyph unicode="&#xb0;" horiz-adv-x="503" d="M72 1483q0 76 53 128t129 52q74 0 127 -52t53 -128q0 -37 -14 -70t-39 -57.5t-57.5 -38.5t-69.5 -14t-70.5 14t-58.5 38.5t-39 57.5t-14 70zM203 1483q0 -23 14 -38t37 -15t37 15t14 38t-14.5 37t-36.5 14q-23 0 -37 -14.5t-14 -36.5z" />
<glyph unicode="&#xb1;" horiz-adv-x="806" d="M72 209v192h665v-192h-665zM72 711v196h235v234h195v-234h235v-196h-235v-234h-195v234h-235z" />
<glyph unicode="&#xb2;" horiz-adv-x="536" d="M74 836q0 61 14 110t36.5 91t52.5 77t61 68q25 29 47 56.5t39.5 57t27.5 64.5t10 76t-23.5 72.5t-57.5 31.5q-31 0 -53.5 -35t-22.5 -82h-131q0 49 16 94.5t45 79t66 53t80 19.5q45 0 82.5 -18.5t66.5 -50t45.5 -73.5t16.5 -91q0 -59 -14.5 -108.5t-38 -90.5t-52.5 -76 t-55 -65q-41 -47 -75 -91t-48 -104h250v-129h-381z" />
<glyph unicode="&#xb3;" horiz-adv-x="579" d="M72 1004h129q0 -47 23.5 -81t54.5 -34q25 0 53 46t28 146q0 209 -153 209h-129l180 238h-152v129h416l-198 -260q78 -35 120.5 -115t42.5 -201q0 -137 -51 -221q-57 -100 -157 -100q-43 0 -80 19.5t-66 52t-45 77.5t-16 95z" />
<glyph unicode="&#xb4;" horiz-adv-x="354" d="M72 1356l49 270h162l-80 -270h-131z" />
<glyph unicode="&#xb5;" horiz-adv-x="874" d="M72 1004v192h327v-192h-69v-631q0 -74 42 -127t101 -53q55 0 95 53t40 127v631h-71v192h327v-192h-59v-1004h-197v33q-33 -16 -65.5 -24.5t-69.5 -8.5q-41 0 -74.5 8t-68.5 25v-295h-195v1266h-63z" />
<glyph unicode="&#xb6;" horiz-adv-x="1077" d="M72 938v350q0 74 27.5 139.5t75.5 114.5t112.5 78t136.5 29l649 -2v-1657h-192v1462h-82v-1462h-191v588h-184q-72 0 -136.5 28.5t-112.5 77.5t-75.5 114.5t-27.5 139.5z" />
<glyph unicode="&#xb7;" horiz-adv-x="360" d="M72 864q0 47 31.5 79t76.5 32t77 -32t32 -79q0 -43 -32 -74.5t-77 -31.5t-76.5 31.5t-31.5 74.5z" />
<glyph unicode="&#xb8;" horiz-adv-x="497" d="M82 -221q-8 43 17.5 80t74.5 45q27 6 55 -2h2q23 -4 33 -3t-4 23q-20 29 -42.5 73t-22.5 114h194q0 -29 9.5 -42.5t23.5 -35.5q18 -23 37.5 -54.5t19.5 -78.5q0 -92 -74.5 -148.5t-197.5 -56.5q-53 -2 -86 21.5t-39 64.5z" />
<glyph unicode="&#xb9;" horiz-adv-x="401" d="M72 1561l98 102h178v-897h-129v762l-53 -55z" />
<glyph unicode="&#xba;" d="M72 440v449q0 76 26.5 144.5t71.5 119.5t106.5 81t133.5 30q68 0 128 -30t105 -81t71.5 -119.5t26.5 -144.5v-449q0 -78 -26.5 -146.5t-71.5 -118.5t-105.5 -79.5t-127.5 -29.5q-72 0 -133.5 29.5t-106.5 79.5t-71.5 118.5t-26.5 146.5zM266 440q0 -37 11.5 -68.5t31 -56 t46 -39t55.5 -14.5q27 0 51 14.5t42.5 39t30 56t11.5 68.5v449q0 74 -40 127t-95 53q-59 0 -101.5 -53t-42.5 -127v-449z" />
<glyph unicode="&#xbb;" horiz-adv-x="915" d="M72 446l221 357l-221 352l166 100l282 -448l-280 -461zM397 446l221 357l-221 352l164 100l283 -448l-281 -461z" />
<glyph unicode="&#xbc;" horiz-adv-x="1085" d="M72 1561l98 102h178v-897h-129v762l-53 -55zM113 8l583 1653h193l-582 -1653h-194zM567 287l273 608h135v-479h74v-129h-74v-289h-131v289h-277zM766 416h78v174z" />
<glyph unicode="&#xbd;" horiz-adv-x="919" d="M72 8l583 1653h193l-582 -1653h-194z" />
<glyph unicode="&#xbe;" horiz-adv-x="1208" d="M63 1001q0 25 16.5 42.5t45.5 19.5q29 0 49.5 -19.5t22.5 -48.5q4 -25 -5.5 -45t7.5 -45q29 -33 69 -33q35 0 68 53.5t33 157.5q0 59 -12.5 108.5t-39.5 78.5q-10 12 -23 22.5t-39 16.5t-67 9t-106 1l194 240h-96v-39h-100v143h412l-207 -254q92 -29 140 -115t48 -211 q0 -133 -53 -221q-59 -92 -152 -92q-43 0 -79.5 18.5t-64.5 50t-44.5 73.5t-16.5 89zM201 8l583 1653h193l-582 -1653h-194zM602 297l293 592h104v-488h95v-104h-95v-193h33v-102h-174v102h37v193h-293zM768 401h127v254z" />
<glyph unicode="&#xbf;" horiz-adv-x="851" d="M66 -59q-2 111 16 192.5t49 143t70 107.5t75 87q35 39 68 76t59.5 83t42 106.5t13.5 146.5l151 4q2 -115 -12 -199t-41 -147.5t-63.5 -110.5t-75.5 -90q-33 -37 -61.5 -74t-51 -81t-35 -103t-12.5 -141q2 -47 17.5 -87t42 -70t61.5 -47.5t74 -17.5q78 0 133 68 q14 18 14 40.5t-5 47.5t-10 48.5t-3 45.5q8 53 50 81t95 24q109 -12 109 -113q0 -90 -30 -170t-82 -139.5t-122 -93t-149 -33.5q-80 0 -151 31.5t-123 88t-81.5 132.5t-31.5 164zM416 1081q0 47 33.5 81t80.5 34t80 -34t33 -81t-33 -79.5t-80 -32.5t-80.5 32.5t-33.5 79.5z " />
<glyph unicode="&#xc0;" horiz-adv-x="1007" d="M72 -2v195h82l280 1464h166l285 -1464h65v-193h-327v193h63l-47 245h-242l-47 -245h49v-3h2v-192h-329zM379 2085h166l45 -270h-127zM434 631h168l-86 438z" />
<glyph unicode="&#xc1;" horiz-adv-x="1007" d="M72 0v193h82l280 1464h166l285 -1464h65v-193h-327v193h63l-47 245h-242l-47 -245h49v-193h-327zM434 631h168l-86 438zM436 1804l49 271h162l-80 -271h-131z" />
<glyph unicode="&#xc2;" horiz-adv-x="1007" d="M72 0v193h82l280 1464h166l285 -1464h65v-193h-327v193h63l-47 245h-242l-47 -245h49v-193h-327zM236 1845l256 219l268 -217l-111 -129l-157 127l-146 -127zM434 631h168l-86 438z" />
<glyph unicode="&#xc3;" horiz-adv-x="1007" d="M72 0v193h82l280 1464h166l285 -1464h65v-193h-327v193h63l-47 245h-242l-47 -245h49v-193h-327zM156.5 1867q1.5 44 31.5 79q18 20 48 37.5t64 31t70 19.5t66 2q41 -6 74 -25.5t61.5 -41t53 -40t47.5 -20.5q23 0 37 8t24 31q4 14 23 39q29 35 72.5 42t76.5 -18 q41 -51 22.5 -99t-64.5 -84t-105.5 -56.5t-102.5 -14.5h-2q-41 6 -70.5 24.5t-55 39t-51 38t-58.5 23.5q-18 2 -29.5 -4t-19 -17.5t-14.5 -24.5t-17 -26q-31 -35 -76 -40t-74 24q-33 29 -31.5 73zM434 631h168l-86 438z" />
<glyph unicode="&#xc4;" horiz-adv-x="1007" d="M72 0v193h82l280 1464h166l285 -1464h65v-193h-327v193h63l-47 245h-242l-47 -245h49v-193h-327zM260 1880q0 47 33 80t80 33t80.5 -33t33.5 -80t-33.5 -80t-80.5 -33t-80 33t-33 80zM434 631h168l-86 438zM557 1880q0 47 33 80t80 33t80.5 -33t33.5 -80t-33.5 -80 t-80.5 -33t-80 33t-33 80z" />
<glyph unicode="&#xc5;" horiz-adv-x="1007" d="M72 0v193h82l276 1449q-43 23 -69.5 65t-26.5 95q0 76 53 129.5t129 53.5q37 0 69.5 -14.5t57.5 -39t39 -58.5t14 -71q0 -51 -26.5 -93t-67.5 -64l283 -1452h65v-193h-327v193h63l-47 245h-242l-47 -245h49v-193h-327zM434 631h168l-86 438zM465 1802q0 -20 14 -35.5 t37 -15.5t37 15.5t14 35.5q0 23 -14 37t-37 14t-37 -14t-14 -37z" />
<glyph unicode="&#xc6;" horiz-adv-x="1325" d="M72 -4v192h71l541 1469h604v-279h-192v84h-203v-606h106v39h193v-277h-193v44h-106v-469h203v86h192v-279h-606l-6 438h-246l-92 -250h51v-192h-317zM504 631h166l-4 438z" />
<glyph unicode="&#xc7;" horiz-adv-x="837" d="M72 354v946q0 78 29.5 147t79.5 119t118 79.5t145 29.5h21q74 0 140.5 -27.5t119.5 -80.5q35 -31 56.5 -67t35.5 -77q8 -25 9 -54.5t-8 -57t-28.5 -49t-52.5 -29.5q-51 -12 -97 18.5t-62 89.5q-8 35 -8.5 60.5t-9.5 42t-34.5 26t-81.5 11.5q-76 0 -128 -53.5t-52 -127.5 v-946q0 -74 52.5 -126t127.5 -52q51 0 75 9.5t32 26.5t10 42t12 55q18 57 67.5 85t98.5 12q25 -6 44.5 -26t30.5 -45.5t12 -55t-13 -56.5q-35 -86 -103.5 -146.5t-154.5 -82.5q4 -6 8 -11.5t8 -13.5q18 -23 38 -54.5t20 -78.5q0 -92 -75 -148.5t-198 -56.5 q-53 -2 -85.5 21.5t-39.5 64.5q-8 43 17.5 80t75.5 45q27 6 55 -2h2q23 -4 33 -3t-4 24q-16 23 -35 55.5t-27 79.5q-59 14 -110.5 49t-88 82t-57 105.5t-20.5 121.5z" />
<glyph unicode="&#xc8;" horiz-adv-x="671" d="M72 0v193h106v1271h-106v193h696v-326h-193v131h-204v-606h258v-194h-258v-469h204v135h193v-328h-696zM272 2081h166l45 -271h-127z" />
<glyph unicode="&#xc9;" horiz-adv-x="671" d="M72 0v193h106v1271h-106v193h696v-326h-193v131h-204v-606h258v-194h-258v-469h204v135h193v-328h-696zM297 1815l49 270h162l-80 -270h-131z" />
<glyph unicode="&#xca;" horiz-adv-x="733" d="M72 0v193h106v1271h-106v193h696v-326h-193v131h-204v-606h258v-194h-258v-469h204v135h193v-328h-696zM135 1896l256 220l268 -218l-110 -129l-158 127l-145 -127z" />
<glyph unicode="&#xcb;" horiz-adv-x="671" d="M72 0v193h106v1271h-106v193h696v-326h-193v131h-204v-606h258v-194h-258v-469h204v135h193v-328h-696zM117 1901q0 47 32.5 79.5t79.5 32.5t81 -32.5t34 -79.5t-34 -80t-81 -33t-79.5 32.5t-32.5 80.5zM414 1901q0 47 32.5 79.5t79.5 32.5t81 -32.5t34 -79.5t-34 -80 t-81 -33t-79.5 32.5t-32.5 80.5z" />
<glyph unicode="&#xcc;" horiz-adv-x="475" d="M72 0v193h69v1271h-65v193h327v-193h-69v-1271h65v-193h-327zM174 2085h166l45 -270h-127z" />
<glyph unicode="&#xcd;" horiz-adv-x="475" d="M72 0v193h69v1271h-65v193h327v-193h-69v-1271h65v-193h-327zM156 1739l49 270h162l-80 -270h-131z" />
<glyph unicode="&#xce;" horiz-adv-x="460" d="M-35 1855l256 220l268 -217l-110 -129l-158 126l-145 -126zM59 0v193h70v1271h-66v193h328v-193h-69v-1271h65v-193h-328z" />
<glyph unicode="&#xcf;" horiz-adv-x="471" d="M-18 1905q0 47 32.5 79.5t79.5 32.5t81 -32.5t34 -79.5t-34 -80t-81 -33t-79.5 33t-32.5 80zM72 0v193h69v1271h-65v193h327v-193h-69v-1271h65v-193h-327zM279 1905q0 47 32.5 79.5t79.5 32.5t81 -32.5t34 -79.5t-34 -80t-81 -33t-79.5 33t-32.5 80z" />
<glyph unicode="&#xd0;" horiz-adv-x="901" d="M72 0v193h102v536h-102v211h102v524h-102v193h475q74 0 138.5 -27.5t113.5 -77t76.5 -114t27.5 -138.5v-942q0 -74 -27.5 -139t-75.5 -114.5t-111.5 -78t-135.5 -28.5zM369 193h184q66 0 113 48t47 117v942q0 68 -48.5 115t-117.5 47h-178v-522h71v-211h-71v-536z" />
<glyph unicode="&#xd1;" horiz-adv-x="1024" d="M72 0v193h65v1464h209l406 -1112v919h-62v193h328v-193h-72v-1464h-201l-413 1126v-933h67v-193h-327zM185 1889.5q1 43.5 32 78.5q18 20 48 37.5t63.5 31t69.5 19.5t67 2q41 -6 73.5 -25.5t61.5 -41t53.5 -40t46.5 -20.5q23 0 37.5 8.5t24.5 30.5q4 14 22 39 q29 35 73 42.5t77 -17.5q41 -51 22.5 -99.5t-64.5 -84t-105.5 -56t-102.5 -14.5h-2q-41 6 -70.5 24.5t-55.5 39t-51.5 37.5t-58.5 24q-18 2 -29 -4.5t-18.5 -17.5t-14.5 -24.5t-17 -25.5q-31 -35 -76 -40t-74 24q-33 29 -32 72.5z" />
<glyph unicode="&#xd2;" horiz-adv-x="843" d="M72 358v940q0 78 29.5 146.5t79.5 120t119 81t146 29.5h19q76 0 144.5 -29.5t118.5 -81t80 -120t30 -146.5v-940q0 -78 -30 -145.5t-81 -119.5t-118.5 -81.5t-143.5 -29.5h-21q-78 0 -145.5 29.5t-117.5 81.5t-79.5 120t-29.5 145zM264 358q0 -78 52.5 -129t127.5 -51h21 q74 0 126 51.5t52 128.5v940q0 76 -52 129.5t-126 53.5h-21q-76 0 -128 -53.5t-52 -129.5v-940zM332 2001h166l45 -270h-127z" />
<glyph unicode="&#xd3;" horiz-adv-x="843" d="M72 358v940q0 78 29.5 146.5t79.5 120t119 81t146 29.5h19q76 0 144.5 -29.5t118.5 -81t80 -120t30 -146.5v-940q0 -78 -30 -145.5t-81 -119.5t-118.5 -81.5t-143.5 -29.5h-21q-78 0 -145.5 29.5t-117.5 81.5t-79.5 120t-29.5 145zM264 358q0 -78 52.5 -129t127.5 -51h21 q74 0 126 51.5t52 128.5v940q0 76 -52 129.5t-126 53.5h-21q-76 0 -128 -53.5t-52 -129.5v-940zM346 1774l49 270h162l-80 -270h-131z" />
<glyph unicode="&#xd4;" horiz-adv-x="843" d="M72 358v940q0 78 29.5 146.5t79.5 120t119 81t146 29.5h19q76 0 144.5 -29.5t118.5 -81t80 -120t30 -146.5v-940q0 -78 -30 -145.5t-81 -119.5t-118.5 -81.5t-143.5 -29.5h-21q-78 0 -145.5 29.5t-117.5 81.5t-79.5 120t-29.5 145zM184 1835l256 219l269 -217l-111 -129 l-158 127l-145 -127zM264 358q0 -78 52.5 -129t127.5 -51h21q74 0 126 51.5t52 128.5v940q0 76 -52 129.5t-126 53.5h-21q-76 0 -128 -53.5t-52 -129.5v-940z" />
<glyph unicode="&#xd5;" horiz-adv-x="884" d="M83 1863q1 44 32 79q18 20 48 37.5t63.5 30.5t69.5 19.5t66 2.5q41 -6 74 -25.5t61.5 -41t53 -40t47.5 -20.5q23 0 37 8t24 31q4 14 23 38q29 35 72.5 42.5t76.5 -17.5q41 -51 23 -99t-64.5 -84t-105.5 -56.5t-102 -14.5h-2q-41 6 -71 24.5t-55.5 39t-51 38t-58.5 23.5 q-18 2 -29.5 -4t-18.5 -17.5t-14.5 -24.5t-17.5 -26q-31 -35 -76 -40t-73 24q-33 29 -32 73zM86 358v940q0 78 29.5 146.5t80 120t119 81t146.5 29.5h18q76 0 144.5 -29.5t119 -81t80 -120t29.5 -146.5v-940q0 -78 -29.5 -145.5t-81 -119.5t-119 -81.5t-143.5 -29.5h-20 q-78 0 -145.5 29.5t-118 81.5t-80 120t-29.5 145zM279 358q0 -78 52 -129t128 -51h20q74 0 126 51.5t52 128.5v940q0 76 -52 129.5t-126 53.5h-20q-76 0 -128 -53.5t-52 -129.5v-940z" />
<glyph unicode="&#xd6;" horiz-adv-x="843" d="M72 358v940q0 78 29.5 146.5t79.5 120t119 81t146 29.5h19q76 0 144.5 -29.5t118.5 -81t80 -120t30 -146.5v-940q0 -78 -30 -145.5t-81 -119.5t-118.5 -81.5t-143.5 -29.5h-21q-78 0 -145.5 29.5t-117.5 81.5t-79.5 120t-29.5 145zM190 1868q0 47 33 79.5t80 32.5 t81 -32.5t34 -79.5t-34 -80t-81 -33t-80 33t-33 80zM264 358q0 -78 52.5 -129t127.5 -51h21q74 0 126 51.5t52 128.5v940q0 76 -52 129.5t-126 53.5h-21q-76 0 -128 -53.5t-52 -129.5v-940zM487 1868q0 47 33 79.5t80 32.5t81 -32.5t34 -79.5t-34 -80t-81 -33t-80 33t-33 80 z" />
<glyph unicode="&#xd7;" horiz-adv-x="702" d="M72 512l168 166l-168 168l141 137l164 -168l164 168l139 -137l-168 -168l168 -166l-139 -133l-164 164l-164 -164z" />
<glyph unicode="&#xd8;" horiz-adv-x="864" d="M72 379v907q0 76 29.5 144.5t80.5 118.5t119 80t145 30h19q94 0 174 -45l43 133l184 -59l-71 -226q20 -39 32.5 -84t12.5 -92v-907q0 -78 -30 -146.5t-80 -120t-118.5 -80t-146.5 -28.5h-19q-51 0 -110 16l-45 -153l-187 59l66 201q-47 51 -72.5 115.5t-25.5 136.5z M266 440l312 985q-23 16 -50.5 27.5t-62.5 11.5h-19q-74 0 -127 -52t-53 -126v-846zM397 205q12 -4 23.5 -6t25.5 -2h19q76 0 128 53t52 129v614z" />
<glyph unicode="&#xd9;" horiz-adv-x="968" d="M72 1464v193h327v-193h-69v-1106q0 -78 52 -130t128 -52h20q74 0 126.5 52.5t52.5 129.5v1106h-82v193h327v-193h-51v-1106q0 -78 -29.5 -146.5t-81 -119.5t-119 -80.5t-143.5 -29.5h-20q-78 0 -145.5 29.5t-117.5 80.5t-80 120t-30 146v1106h-65zM387 2085h166l45 -270 h-127z" />
<glyph unicode="&#xda;" horiz-adv-x="968" d="M72 1464v193h327v-193h-69v-1106q0 -78 52 -130t128 -52h20q74 0 126.5 52.5t52.5 129.5v1106h-82v193h327v-193h-51v-1106q0 -78 -29.5 -146.5t-81 -119.5t-119 -80.5t-143.5 -29.5h-20q-78 0 -145.5 29.5t-117.5 80.5t-80 120t-30 146v1106h-65zM459 1815l49 270h162 l-80 -270h-131z" />
<glyph unicode="&#xdb;" horiz-adv-x="968" d="M72 1464v193h327v-193h-69v-1106q0 -78 52 -130t128 -52h20q74 0 126.5 52.5t52.5 129.5v1106h-82v193h327v-193h-51v-1106q0 -78 -29.5 -146.5t-81 -119.5t-119 -80.5t-143.5 -29.5h-20q-78 0 -145.5 29.5t-117.5 80.5t-80 120t-30 146v1106h-65zM248 1894l256 220 l268 -218l-110 -129l-158 127l-146 -127z" />
<glyph unicode="&#xdc;" horiz-adv-x="968" d="M72 1464v193h327v-193h-69v-1106q0 -78 52 -130t128 -52h20q74 0 126.5 52.5t52.5 129.5v1106h-82v193h327v-193h-51v-1106q0 -78 -29.5 -146.5t-81 -119.5t-119 -80.5t-143.5 -29.5h-20q-78 0 -145.5 29.5t-117.5 80.5t-80 120t-30 146v1106h-65zM266 1905q0 47 33 79.5 t80 32.5t81 -32.5t34 -79.5t-34 -80t-81 -33t-80 33t-33 80zM563 1905q0 47 33 79.5t80 32.5t81 -32.5t34 -79.5t-34 -80t-81 -33t-80 33t-33 80z" />
<glyph unicode="&#xdd;" horiz-adv-x="919" d="M72 1464v193h327v-193h-63l151 -481l148 481h-55v193h327v-193h-65l-256 -823v-448h73v-193h-327v193h63v446l-260 825h-63zM428 1784l49 270h162l-80 -270h-131z" />
<glyph unicode="&#xde;" horiz-adv-x="806" d="M72 -63h61v1527h-61v193h327v-193h-71v-71q65 39 147 39q68 0 128.5 -30t105.5 -81t71.5 -118.5t26.5 -143.5v-449q0 -76 -26.5 -143.5t-71.5 -118.5t-105.5 -80.5t-128.5 -29.5q-39 0 -76 10t-71 26v-337h71v-193h-327v193zM336 610q0 -74 40 -126t99 -52q57 0 97 52.5 t40 125.5v449q0 72 -40 125t-97 53q-59 0 -99 -53.5t-40 -124.5v-449z" />
<glyph unicode="&#xdf;" horiz-adv-x="964" d="M72 -2v1388q0 100 48 178t136 126q94 47 201.5 41.5t191.5 -64.5q25 -18 54.5 -49t53 -78t36 -112.5t2.5 -151.5q-10 -84 -45 -143.5t-82 -100.5q59 -35 101 -91t68.5 -127t39 -149.5t12.5 -154.5q0 -295 -139 -428q-18 -31 -59.5 -55.5t-92.5 -39t-105.5 -15.5 t-97.5 13.5t-67.5 47.5t-16.5 88q8 51 55.5 81.5t106.5 22.5l19 -7q20 -7 43.5 -14t42 -9t16.5 8q35 18 54.5 54t29.5 81t13 90t3 82q0 242 -110 344q-29 25 -58.5 37t-55.5 18t-44 6h-25q-2 -2 -4 -2l-20 191l2 2q39 0 76 15.5t66.5 41t51 61.5t29.5 76q2 27 2 55.5 t-6 56.5t-20.5 53.5t-38.5 43.5q-41 27 -92.5 29t-98.5 -20q-29 -16 -55.5 -47t-26.5 -85v-1388h-194z" />
<glyph unicode="&#xe0;" horiz-adv-x="817" d="M72 358v134q0 78 26.5 145.5t71.5 118.5t106.5 79.5t131.5 28.5q37 0 78.5 -17.5t64.5 -51.5v131q0 23 -9.5 40t-25.5 29t-31.5 5t-31 -22t-30.5 -32.5t-32 -25.5q-51 -29 -100 -12.5t-74 61.5q-27 51 -14.5 96t49.5 79t90 52t113 16q61 -2 114.5 -25.5t92 -62.5t60 -90 t21.5 -108v-733h72v-193h-268v59q-20 -29 -49 -53t-90 -24q-70 0 -131.5 29.5t-106.5 80.5t-71.5 120t-26.5 146zM264 358q0 -78 42 -130t102 -52q55 0 95 32t40 109v215q0 72 -40 106t-95 34q-29 0 -55.5 -14.5t-46 -39t-31 -57.5t-11.5 -69v-134zM322 1626h165l45 -270 h-126z" />
<glyph unicode="&#xe1;" horiz-adv-x="817" d="M72 358v134q0 78 26.5 145.5t71.5 118.5t106.5 79.5t131.5 28.5q37 0 78.5 -17.5t64.5 -51.5v131q0 23 -9.5 40t-25.5 29t-31.5 5t-31 -22t-30.5 -32.5t-32 -25.5q-51 -29 -100 -12.5t-74 61.5q-27 51 -14.5 96t49.5 79t90 52t113 16q61 -2 114.5 -25.5t92 -62.5t60 -90 t21.5 -108v-733h72v-193h-268v59q-20 -29 -49 -53t-90 -24q-70 0 -131.5 29.5t-106.5 80.5t-71.5 120t-26.5 146zM264 358q0 -78 42 -130t102 -52q55 0 95 32t40 109v215q0 72 -40 106t-95 34q-29 0 -55.5 -14.5t-46 -39t-31 -57.5t-11.5 -69v-134zM362 1333l50 271h161 l-79 -271h-132z" />
<glyph unicode="&#xe2;" horiz-adv-x="817" d="M72 358v134q0 78 26.5 145.5t71.5 118.5t106.5 79.5t131.5 28.5q37 0 78.5 -17.5t64.5 -51.5v131q0 23 -9.5 40t-25.5 29t-31.5 5t-31 -22t-30.5 -32.5t-32 -25.5q-51 -29 -100 -12.5t-74 61.5q-27 51 -14.5 96t49.5 79t90 52t113 16q61 -2 114.5 -25.5t92 -62.5t60 -90 t21.5 -108v-733h72v-193h-268v59q-20 -29 -49 -53t-90 -24q-70 0 -131.5 29.5t-106.5 80.5t-71.5 120t-26.5 146zM174 1421l256 219l268 -217l-110 -129l-158 127l-145 -127zM264 358q0 -78 42 -130t102 -52q55 0 95 32t40 109v215q0 72 -40 106t-95 34q-29 0 -55.5 -14.5 t-46 -39t-31 -57.5t-11.5 -69v-134z" />
<glyph unicode="&#xe3;" horiz-adv-x="817" d="M72 358v134q0 78 26.5 145.5t71.5 118.5t106.5 79.5t131.5 28.5q37 0 78.5 -17.5t64.5 -51.5v131q0 23 -9.5 40t-25.5 29t-31.5 5t-31 -22t-30.5 -32.5t-32 -25.5q-51 -29 -100 -12.5t-74 61.5q-27 51 -14.5 96t49.5 79t90 52t113 16q61 -2 114.5 -25.5t92 -62.5t60 -90 t21.5 -108v-733h72v-193h-268v59q-20 -29 -49 -53t-90 -24q-70 0 -131.5 29.5t-106.5 80.5t-71.5 120t-26.5 146zM148.5 1337.5q1.5 32.5 25.5 61.5q14 14 36.5 28.5t49.5 24.5t54.5 14t52.5 2q31 -4 57.5 -19t48 -31.5t39.5 -31t37 -16.5q16 0 27.5 6t19.5 25q4 8 8 14 t10 17q23 29 56.5 32.5t60.5 -14.5q31 -41 17.5 -78t-50 -64.5t-83 -43t-78.5 -11.5h-2q-31 6 -54.5 19.5t-43 29t-40 30t-45.5 18.5q-29 4 -38 -16.5t-25 -39.5q-23 -29 -57.5 -31.5t-57.5 19.5q-27 23 -25.5 55.5zM264 358q0 -78 42 -130t102 -52q55 0 95 32t40 109v215 q0 72 -40 106t-95 34q-29 0 -55.5 -14.5t-46 -39t-31 -57.5t-11.5 -69v-134z" />
<glyph unicode="&#xe4;" horiz-adv-x="817" d="M72 358v134q0 78 26.5 145.5t71.5 118.5t106.5 79.5t131.5 28.5q37 0 78.5 -17.5t64.5 -51.5v131q0 23 -9.5 40t-25.5 29t-31.5 5t-31 -22t-30.5 -32.5t-32 -25.5q-51 -29 -100 -12.5t-74 61.5q-27 51 -14.5 96t49.5 79t90 52t113 16q61 -2 114.5 -25.5t92 -62.5t60 -90 t21.5 -108v-733h72v-193h-268v59q-20 -29 -49 -53t-90 -24q-70 0 -131.5 29.5t-106.5 80.5t-71.5 120t-26.5 146zM199 1411q0 47 32.5 80t79.5 33t81 -33t34 -80t-34 -80t-81 -33t-79.5 33t-32.5 80zM264 358q0 -78 42 -130t102 -52q55 0 95 32t40 109v215q0 72 -40 106 t-95 34q-29 0 -55.5 -14.5t-46 -39t-31 -57.5t-11.5 -69v-134zM496 1411q0 47 32.5 80t79.5 33t81 -33t34 -80t-34 -80t-81 -33t-79.5 33t-32.5 80z" />
<glyph unicode="&#xe5;" horiz-adv-x="817" d="M72 358v134q0 78 26.5 145.5t71.5 118.5t106.5 79.5t131.5 28.5q37 0 78.5 -17.5t64.5 -51.5v131q0 23 -9.5 40t-25.5 29t-31.5 5t-31 -22t-30.5 -32.5t-32 -25.5q-51 -29 -100 -12.5t-74 61.5q-27 51 -14.5 96t49.5 79t90 52t113 16q61 -2 114.5 -25.5t92 -62.5t60 -90 t21.5 -108v-733h72v-193h-268v59q-20 -29 -49 -53t-90 -24q-70 0 -131.5 29.5t-106.5 80.5t-71.5 120t-26.5 146zM254 1485q0 76 53 129t129 53q37 0 70 -14.5t57.5 -39t38.5 -58t14 -70.5t-14 -70t-38.5 -57.5t-57.5 -38.5t-70 -14t-70.5 14t-58 38.5t-39 57.5t-14.5 70z M264 358q0 -78 42 -130t102 -52q55 0 95 32t40 109v215q0 72 -40 106t-95 34q-29 0 -55.5 -14.5t-46 -39t-31 -57.5t-11.5 -69v-134zM385 1485q0 -20 14 -35.5t37 -15.5t37 15t14 36q0 23 -14 37t-37 14t-37 -14.5t-14 -36.5z" />
<glyph unicode="&#xe6;" horiz-adv-x="1214" d="M72 381v115q0 78 26.5 145.5t71.5 118.5t106.5 79.5t133.5 28.5q37 0 70.5 -9t66.5 -23q0 18 2 39.5t-1 43t-12.5 40t-29.5 28.5q-14 10 -23.5 9t-16.5 -7t-13.5 -17t-14.5 -20h-2q-18 -25 -47 -41q-51 -27 -99 -11.5t-73 58.5q-25 49 -14.5 94.5t44.5 80t86 56 t111.5 21.5t118 -23.5t105.5 -76.5q41 41 96 64.5t117 23.5q70 0 130 -29.5t105 -80t71.5 -119t26.5 -146.5v-262h-469l-2 -217q10 -63 50.5 -105t87.5 -42q31 0 58.5 17t47.5 46q6 25 -11.5 58.5t-17.5 64.5q2 59 41 96t93 35q53 -2 85.5 -40t36.5 -97q0 -66 -23.5 -132.5 t-66.5 -120.5t-105.5 -88t-137.5 -34q-37 0 -72 8t-66 23v-31h-194v39q-31 -16 -67 -26.5t-72 -10.5q-72 0 -133.5 29.5t-106.5 81t-71.5 120t-26.5 146.5zM266 381q0 -78 42 -130t102 -52q55 0 95 52t40 130v115q0 37 -11.5 69.5t-30 57t-43 39t-50.5 14.5 q-29 0 -55.5 -14.5t-46 -39t-31 -57.5t-11.5 -69v-115zM745 756h275v67q0 74 -41 126t-98 52q-47 0 -86 -37.5t-50 -97.5v-110z" />
<glyph unicode="&#xe7;" horiz-adv-x="800" d="M72 354v486q0 78 25.5 145.5t70.5 118.5t106.5 79.5t131.5 28.5q104 0 188 -64.5t121 -168.5q6 -18 11 -42t1 -48.5t-20.5 -47t-51.5 -38.5q-47 -23 -98 -4.5t-76 73.5q-14 29 -14 68q-2 23 0 40t-21 28q-20 8 -40 8q-29 0 -54.5 -14.5t-46 -38t-32 -55t-11.5 -68.5v-486 q0 -74 43 -126t101 -52q41 0 48 20.5t9 55.5v2q0 16 4 32.5t10 32.5q25 55 76 74t98 -4q55 -25 63.5 -75t-3.5 -103q-27 -70 -74 -122t-111 -81l11 -14q18 -23 37.5 -54.5t19.5 -78.5q0 -92 -75 -148.5t-197 -56.5q-53 -2 -86 21.5t-39 64.5q-8 43 17.5 80t74.5 45 q27 6 55 -2h2q23 -4 33 -3t-4 23q-14 20 -29.5 47t-26.5 64q-53 14 -99 49t-78.5 82t-51 105.5t-18.5 121.5z" />
<glyph unicode="&#xe8;" d="M72 358v461q0 78 26.5 146.5t71.5 119t105.5 80t130.5 29.5q68 0 129 -29.5t106 -80t71.5 -119t26.5 -146.5v-262h-473v-199q0 -74 41 -128t99 -54q29 0 54 15.5t44 41.5q6 14 0 26.5t-12 29.5v2q-4 16 -7.5 32.5t-1.5 34.5q4 59 46 93t96 30q47 -4 76.5 -36.5 t35.5 -86.5h2q0 -78 -26.5 -146.5t-71.5 -119.5t-106.5 -80.5t-128.5 -29.5q-70 0 -130.5 29.5t-105.5 80.5t-71.5 120t-26.5 146zM266 752h277v67q0 74 -40 126t-97 52t-98.5 -52t-41.5 -126v-67zM272 1589h166l45 -270h-127z" />
<glyph unicode="&#xe9;" d="M72 358v461q0 78 26.5 146.5t71.5 119t105.5 80t130.5 29.5q68 0 129 -29.5t106 -80t71.5 -119t26.5 -146.5v-262h-473v-199q0 -74 41 -128t99 -54q29 0 54 15.5t44 41.5q6 14 0 26.5t-12 29.5v2q-4 16 -7.5 32.5t-1.5 34.5q4 59 46 93t96 30q47 -4 76.5 -36.5 t35.5 -86.5h2q0 -78 -26.5 -146.5t-71.5 -119.5t-106.5 -80.5t-128.5 -29.5q-70 0 -130.5 29.5t-105.5 80.5t-71.5 120t-26.5 146zM266 752h277v67q0 74 -40 126t-97 52t-98.5 -52t-41.5 -126v-67zM330 1333l49 271h162l-80 -271h-131z" />
<glyph unicode="&#xea;" d="M72 358v461q0 78 26.5 146.5t71.5 119t105.5 80t130.5 29.5q68 0 129 -29.5t106 -80t71.5 -119t26.5 -146.5v-262h-473v-199q0 -74 41 -128t99 -54q29 0 54 15.5t44 41.5q6 14 0 26.5t-12 29.5v2q-4 16 -7.5 32.5t-1.5 34.5q4 59 46 93t96 30q47 -4 76.5 -36.5 t35.5 -86.5h2q0 -78 -26.5 -146.5t-71.5 -119.5t-106.5 -80.5t-128.5 -29.5q-70 0 -130.5 29.5t-105.5 80.5t-71.5 120t-26.5 146zM170 1399l256 219l268 -217l-110 -129l-158 127l-145 -127zM266 752h277v67q0 74 -40 126t-97 52t-98.5 -52t-41.5 -126v-67z" />
<glyph unicode="&#xeb;" d="M72 358v461q0 78 26.5 146.5t71.5 119t105.5 80t130.5 29.5q68 0 129 -29.5t106 -80t71.5 -119t26.5 -146.5v-262h-473v-199q0 -74 41 -128t99 -54q29 0 54 15.5t44 41.5q6 14 0 26.5t-12 29.5v2q-4 16 -7.5 32.5t-1.5 34.5q4 59 46 93t96 30q47 -4 76.5 -36.5 t35.5 -86.5h2q0 -78 -26.5 -146.5t-71.5 -119.5t-106.5 -80.5t-128.5 -29.5q-70 0 -130.5 29.5t-105.5 80.5t-71.5 120t-26.5 146zM143 1419q0 47 33 80t80 33t81 -33t34 -80t-34 -79.5t-81 -32.5t-80 32.5t-33 79.5zM266 752h277v67q0 74 -40 126t-97 52t-98.5 -52 t-41.5 -126v-67zM440 1419q0 47 33 80t80 33t81 -33t34 -80t-34 -79.5t-81 -32.5t-80 32.5t-33 79.5z" />
<glyph unicode="&#xec;" horiz-adv-x="471" d="M72 0v193h67v806h-67v193h327v-193h-65v-806h65v-193h-327zM94 1585h166l45 -270h-127z" />
<glyph unicode="&#xed;" horiz-adv-x="471" d="M72 0v193h67v806h-67v193h327v-193h-65v-806h65v-193h-327zM154 1268l49 270h162l-80 -270h-131z" />
<glyph unicode="&#xee;" horiz-adv-x="688" d="M72 1382l256 220l268 -218l-111 -129l-157 127l-146 -127zM162 0v193h67v806h-67v193h327v-193h-65v-806h65v-193h-327z" />
<glyph unicode="&#xef;" horiz-adv-x="667" d="M72 1397q0 47 32.5 79.5t79.5 32.5t81 -32.5t34 -79.5t-34 -80t-81 -33t-79.5 33t-32.5 80zM166 0v193h67v806h-67v193h328v-193h-66v-806h66v-193h-328zM369 1397q0 47 32.5 79.5t79.5 32.5t81 -32.5t34 -79.5t-34 -80t-81 -33t-79.5 33t-32.5 80z" />
<glyph unicode="&#xf0;" horiz-adv-x="778" d="M72 387v375q0 76 27.5 144.5t75.5 119.5t111.5 81t137.5 30q41 0 81 -10.5t73 -30.5v200q0 45 -16.5 82t-45.5 64v-150h-192v142q-4 -2 -5.5 -4.5t-5.5 -6.5q-14 -16 -17 -38.5t1 -43.5q2 0 2 -2q6 -29 4 -53q-6 -47 -45 -72.5t-86 -21.5t-73.5 31.5t-26.5 70.5v2 q0 129 70.5 226.5t181.5 132.5v151h192v-147q55 -16 102.5 -51t81 -83t53 -106.5t19.5 -122.5v-909q0 -78 -26.5 -146.5t-73.5 -118.5t-110.5 -80t-137.5 -30t-137.5 30t-111.5 80t-75.5 118.5t-27.5 146.5zM266 406q0 -74 46 -127.5t112 -53.5t110 53.5t44 127.5v356 q0 76 -44.5 128t-109.5 52q-66 0 -112 -52t-46 -128v-356z" />
<glyph unicode="&#xf1;" horiz-adv-x="978" d="M72.5 1472q1.5 44 31.5 78q18 20 48 38t64 31t70 19.5t66 1.5q41 -6 74 -25.5t61.5 -41t53 -39.5t47.5 -21q23 0 37 8.5t24 30.5q4 14 23 39q29 35 72.5 42.5t76.5 -17.5q41 -51 22.5 -99.5t-64.5 -84t-105.5 -56t-102.5 -14.5h-2q-41 6 -70.5 24.5t-55 39t-51 38 t-58.5 23.5q-18 2 -29.5 -4t-18.5 -17.5t-14.5 -25t-17.5 -25.5q-31 -35 -76 -40t-74 24q-33 29 -31.5 73zM102 1001v193h267v-78q6 25 23.5 42.5t40 29.5t47 18t42.5 6q68 0 127.5 -28.5t102.5 -79.5t67.5 -118.5t24.5 -145.5v-647h63v-193h-327v193h67v647q0 72 -40 124 t-97 52q-29 0 -54.5 -14.5t-45 -38t-30.5 -55t-11 -68.5v-647h67v-193h-327v193h67v808h-74z" />
<glyph unicode="&#xf2;" d="M72 354v486q0 78 25.5 145.5t70.5 118.5t106.5 79.5t131.5 28.5q68 0 128 -28.5t105 -79.5t71.5 -118.5t26.5 -145.5v-486q0 -76 -26.5 -143.5t-71.5 -118.5t-105.5 -80.5t-127.5 -29.5q-70 0 -131.5 29.5t-106.5 80.5t-70.5 119t-25.5 143zM262 354q0 -74 43 -126 t101 -52q55 0 96 52.5t41 125.5v486q0 72 -41 124t-96 52q-29 0 -54.5 -14.5t-46 -38t-32 -55t-11.5 -68.5v-486zM268 1575h166l45 -270h-127z" />
<glyph unicode="&#xf3;" d="M72 354v486q0 78 25.5 145.5t70.5 118.5t106.5 79.5t131.5 28.5q68 0 128 -28.5t105 -79.5t71.5 -118.5t26.5 -145.5v-486q0 -76 -26.5 -143.5t-71.5 -118.5t-105.5 -80.5t-127.5 -29.5q-70 0 -131.5 29.5t-106.5 80.5t-70.5 119t-25.5 143zM262 354q0 -74 43 -126 t101 -52q55 0 96 52.5t41 125.5v486q0 72 -41 124t-96 52q-29 0 -54.5 -14.5t-46 -38t-32 -55t-11.5 -68.5v-486zM309 1303l49 270h162l-80 -270h-131z" />
<glyph unicode="&#xf4;" horiz-adv-x="829" d="M72 354v486q0 78 25.5 145.5t70.5 118.5t106.5 79.5t131.5 28.5q68 0 128 -28.5t105 -79.5t71.5 -118.5t26.5 -145.5v-486q0 -76 -26.5 -143.5t-71.5 -118.5t-105.5 -80.5t-127.5 -29.5q-70 0 -131.5 29.5t-106.5 80.5t-70.5 119t-25.5 143zM150 1411l256 219l268 -217 l-111 -129l-157 127l-146 -127zM262 354q0 -74 43 -126t101 -52q55 0 96 52.5t41 125.5v486q0 72 -41 124t-96 52q-29 0 -54.5 -14.5t-46 -38t-32 -55t-11.5 -68.5v-486z" />
<glyph unicode="&#xf5;" horiz-adv-x="921" d="M72.5 1412q1.5 44 31.5 79q18 20 48 37.5t64 31t70 19.5t66 2q41 -6 74 -25.5t61.5 -41t53 -40t47.5 -20.5q23 0 37 8t24 31q4 14 23 39q29 35 72.5 42t76.5 -18q41 -51 22.5 -99t-64.5 -84t-105.5 -56.5t-102.5 -13.5h-2q-41 6 -70.5 24.5t-55 38.5t-51 37.5t-58.5 23.5 q-18 2 -29.5 -4t-18.5 -17t-14.5 -24.5t-17.5 -25.5q-31 -35 -76 -40t-74 23q-33 29 -31.5 73zM117 354v486q0 78 25.5 145.5t70.5 118.5t106.5 79.5t131.5 28.5q68 0 128 -28.5t105 -79.5t71.5 -118.5t26.5 -145.5v-486q0 -76 -26.5 -143.5t-71.5 -118.5t-105.5 -80.5 t-127.5 -29.5q-70 0 -131.5 29.5t-106.5 80.5t-70.5 119t-25.5 143zM307 354q0 -74 43 -126t101 -52q55 0 96 52.5t41 125.5v486q0 72 -41 124t-96 52q-29 0 -54.5 -14.5t-46 -38t-32 -55t-11.5 -68.5v-486z" />
<glyph unicode="&#xf6;" d="M72 354v486q0 78 25.5 145.5t70.5 118.5t106.5 79.5t131.5 28.5q68 0 128 -28.5t105 -79.5t71.5 -118.5t26.5 -145.5v-486q0 -76 -26.5 -143.5t-71.5 -118.5t-105.5 -80.5t-127.5 -29.5q-70 0 -131.5 29.5t-106.5 80.5t-70.5 119t-25.5 143zM139 1440q0 47 33 79.5 t80 32.5t81 -32.5t34 -79.5t-34 -80t-81 -33t-80 33t-33 80zM262 354q0 -74 43 -126t101 -52q55 0 96 52.5t41 125.5v486q0 72 -41 124t-96 52q-29 0 -54.5 -14.5t-46 -38t-32 -55t-11.5 -68.5v-486zM436 1440q0 47 33 79.5t80 32.5t81 -32.5t34 -79.5t-34 -80t-81 -33 t-80 33t-33 80z" />
<glyph unicode="&#xf7;" horiz-adv-x="806" d="M72 586v192h665v-192h-665zM299 383q0 47 30 78t77 31q43 0 74.5 -31t31.5 -78q0 -45 -31.5 -77t-74.5 -32q-47 0 -77 32t-30 77zM299 979q0 43 29.5 74.5t77.5 31.5q43 0 74.5 -31.5t31.5 -74.5q0 -47 -31.5 -78t-74.5 -31q-47 0 -77 31t-30 78z" />
<glyph unicode="&#xf8;" d="M72 377v446q0 78 26.5 145.5t71.5 119t106.5 80t133.5 28.5q33 0 67 -6l35 117l188 -58l-53 -168q43 -49 68.5 -115.5t25.5 -142.5v-446q0 -78 -26.5 -146.5t-71.5 -119t-105.5 -80t-127.5 -29.5q-57 0 -103 18l-45 -147l-184 57l65 213q-35 47 -53 106.5t-18 127.5z M266 528l150 476h-6q-29 0 -55.5 -14.5t-46 -39t-31 -57.5t-11.5 -70v-295zM367 201l20 -4t23 -2q55 0 95 54t40 128v389z" />
<glyph unicode="&#xf9;" horiz-adv-x="880" d="M72 1001v193h319v-193h-61v-643q0 -74 41 -128t98 -54q55 0 96 54.5t41 127.5v643h-67v193h321v-193h-59v-808h71v-193h-266v45q-27 -27 -63.5 -45t-73.5 -18q-70 0 -130 29.5t-105.5 80.5t-72 120t-26.5 146v643h-63zM379 1626h166l45 -270h-127z" />
<glyph unicode="&#xfa;" horiz-adv-x="880" d="M72 1001v193h319v-193h-61v-643q0 -74 41 -128t98 -54q55 0 96 54.5t41 127.5v643h-67v193h321v-193h-59v-808h71v-193h-266v45q-27 -27 -63.5 -45t-73.5 -18q-70 0 -130 29.5t-105.5 80.5t-72 120t-26.5 146v643h-63zM379 1356l49 270h162l-80 -270h-131z" />
<glyph unicode="&#xfb;" horiz-adv-x="880" d="M72 1001v193h319v-193h-61v-643q0 -74 41 -128t98 -54q55 0 96 54.5t41 127.5v643h-67v193h321v-193h-59v-808h71v-193h-266v45q-27 -27 -63.5 -45t-73.5 -18q-70 0 -130 29.5t-105.5 80.5t-72 120t-26.5 146v643h-63zM203 1444l256 219l268 -217l-111 -129l-157 127 l-146 -127z" />
<glyph unicode="&#xfc;" horiz-adv-x="880" d="M72 1001v193h319v-193h-61v-643q0 -74 41 -128t98 -54q55 0 96 54.5t41 127.5v643h-67v193h321v-193h-59v-808h71v-193h-266v45q-27 -27 -63.5 -45t-73.5 -18q-70 0 -130 29.5t-105.5 80.5t-72 120t-26.5 146v643h-63zM186 1446q0 47 33 80t80 33t81 -33t34 -80t-34 -80 t-81 -33t-80 33t-33 80zM483 1446q0 47 33 80t80 33t81 -33t34 -80t-34 -80t-81 -33t-80 33t-33 80z" />
<glyph unicode="&#xfd;" horiz-adv-x="878" d="M72 1001v193h327v-193h-69v-665q0 -74 40 -127t97 -53q55 0 96 53t41 127v665h-65v193h327v-193h-67v-997q0 -78 -25.5 -147.5t-71 -122.5t-105.5 -85t-130 -32q-45 0 -102.5 21.5t-99.5 58.5t-56 84t29 100q31 39 84 47.5t102 -32.5q10 -10 21.5 -22.5t17.5 -29.5 q10 -14 22.5 -21t34.5 3q37 23 60.5 65.5t23.5 106.5q-63 -35 -137 -35q-70 0 -130.5 30t-105.5 80t-71.5 117.5t-26.5 145.5v665h-61zM426 1356l49 270h162l-80 -270h-131z" />
<glyph unicode="&#xfe;" horiz-adv-x="806" d="M72 -160h67v1422h-67v192h327v-192h-65v-113q65 39 147 39q68 0 128.5 -29t105.5 -80t71.5 -118.5t26.5 -145.5v-448q0 -76 -26.5 -143.5t-71.5 -119t-105.5 -81t-128.5 -29.5q-39 0 -75.5 10t-71.5 27v-191h65v-192h-327v192zM342 367q0 -74 40 -126.5t99 -52.5 q57 0 97 52.5t40 126.5v448q0 37 -11 68.5t-29.5 56.5t-43 39t-53.5 14t-54.5 -14t-43.5 -39t-29.5 -56.5t-11.5 -68.5v-448z" />
<glyph unicode="&#xff;" horiz-adv-x="878" d="M72 1001v193h327v-193h-69v-665q0 -74 40 -127t97 -53q55 0 96 53t41 127v665h-65v193h327v-193h-67v-997q0 -78 -25.5 -147.5t-71 -122.5t-105.5 -85t-130 -32q-45 0 -102.5 21.5t-99.5 58.5t-56 84t29 100q31 39 84 47.5t102 -32.5q10 -10 21.5 -22.5t17.5 -29.5 q10 -14 22.5 -21t34.5 3q37 23 60.5 65.5t23.5 106.5q-63 -35 -137 -35q-70 0 -130.5 30t-105.5 80t-71.5 117.5t-26.5 145.5v665h-61zM233 1446q0 47 33 80t80 33t81 -33t34 -80t-34 -80t-81 -33t-80 33t-33 80zM530 1446q0 47 33 80t80 33t81 -33t34 -80t-34 -80t-81 -33 t-80 33t-33 80z" />
<glyph unicode="&#x152;" horiz-adv-x="1261" d="M72 373v907q0 78 29.5 146.5t80.5 119.5t120 81t147 30h16q47 0 92 -12.5t86 -34.5v47h590v-277h-193v82h-204l4 -606h104v45h193v-278h-193v39h-104l-4 -469h204v86h193v-279h-590v41q-41 -20 -86 -31.5t-92 -11.5h-19q-78 0 -145.5 29.5t-118.5 81t-80.5 120 t-29.5 144.5zM266 373q0 -76 53.5 -127t126.5 -51h19q70 0 119 43t59 106v963q-10 68 -59 111.5t-119 43.5h-19q-37 0 -69.5 -14t-57 -39t-39 -58.5t-14.5 -70.5v-907z" />
<glyph unicode="&#x153;" horiz-adv-x="1214" d="M72 371v450q0 78 26.5 145.5t71.5 119t106.5 80t133.5 28.5q139 0 235 -115q45 55 106.5 85t131.5 30q68 0 129 -29.5t106 -80t72 -119t27 -146.5v-262h-474v-184q0 -74 41 -127t99 -53q55 0 98 53q10 16 2 28.5t-12 30.5q0 2 -2 2q-4 16 -7.5 32.5t-0.5 35.5q4 59 46 93 t95 30q51 -4 81.5 -41t33.5 -97v-14q-2 -74 -30 -138.5t-73 -110.5t-104.5 -72.5t-126.5 -26.5q-70 0 -131.5 29.5t-106.5 83.5q-47 -53 -107.5 -83t-127.5 -30q-72 0 -133.5 29.5t-106.5 81t-71.5 119t-26.5 143.5zM266 371q0 -74 42 -126t102 -52q55 0 95 52t40 126v450 q0 72 -40 124t-95 52q-29 0 -55.5 -14t-46 -37.5t-31 -55.5t-11.5 -69v-450zM743 752h281v67q0 74 -42 126t-99 52t-98.5 -52t-41.5 -126v-67z" />
<glyph unicode="&#x178;" horiz-adv-x="919" d="M72 1464v193h327v-193h-63l151 -481l148 481h-55v193h327v-193h-65l-256 -823v-448h73v-193h-327v193h63v446l-260 825h-63zM227 1847q0 47 33 80t80 33t81 -33t34 -80t-34 -79.5t-81 -32.5t-80 32.5t-33 79.5zM524 1847q0 47 33 80t80 33t81 -33t34 -80t-34 -79.5 t-81 -32.5t-80 32.5t-33 79.5z" />
<glyph unicode="&#x2c6;" horiz-adv-x="667" d="M72 1438l256 219l268 -217l-111 -129l-157 127l-146 -127z" />
<glyph unicode="&#x2dc;" horiz-adv-x="921" d="M72.5 1472q1.5 44 31.5 78q18 20 48 38t64 31t70 19.5t66 1.5q41 -6 74 -25.5t61.5 -41t53 -39.5t47.5 -21q23 0 37 8.5t24 30.5q4 14 23 39q29 35 72.5 42.5t76.5 -17.5q41 -51 22.5 -99.5t-64.5 -84t-105.5 -56t-102.5 -14.5h-2q-41 6 -70.5 24.5t-55 39t-51 38 t-58.5 23.5q-18 2 -29.5 -4t-18.5 -17.5t-14.5 -25t-17.5 -25.5q-31 -35 -76 -40t-74 24q-33 29 -31.5 73z" />
<glyph unicode="&#x2000;" horiz-adv-x="1058" />
<glyph unicode="&#x2001;" horiz-adv-x="2116" />
<glyph unicode="&#x2002;" horiz-adv-x="1058" />
<glyph unicode="&#x2003;" horiz-adv-x="2116" />
<glyph unicode="&#x2004;" horiz-adv-x="705" />
<glyph unicode="&#x2005;" horiz-adv-x="529" />
<glyph unicode="&#x2006;" horiz-adv-x="352" />
<glyph unicode="&#x2007;" horiz-adv-x="352" />
<glyph unicode="&#x2008;" horiz-adv-x="264" />
<glyph unicode="&#x2009;" horiz-adv-x="423" />
<glyph unicode="&#x200a;" horiz-adv-x="117" />
<glyph unicode="&#x2010;" horiz-adv-x="768" d="M72 737v195h626v-195h-626z" />
<glyph unicode="&#x2011;" horiz-adv-x="768" d="M72 737v195h626v-195h-626z" />
<glyph unicode="&#x2012;" horiz-adv-x="768" d="M72 737v195h626v-195h-626z" />
<glyph unicode="&#x2013;" horiz-adv-x="933" d="M72 737v195h792v-195h-792z" />
<glyph unicode="&#x2014;" horiz-adv-x="1325" d="M72 737v195h1198v-195h-1198z" />
<glyph unicode="&#x2018;" horiz-adv-x="374" d="M74 1517.5q2 36.5 17 68.5t48 53.5t92 21.5v-64q-8 0 -16 -2q-16 -4 -27 -20h2q47 0 80 -33t33 -80t-32.5 -79.5t-80.5 -32.5q-45 0 -76.5 29.5t-35.5 72.5l-2 -2q-4 31 -2 67.5z" />
<glyph unicode="&#x2019;" horiz-adv-x="374" d="M72 1548q0 47 32.5 80t79.5 33q45 0 77 -29.5t36 -72.5l2 2q4 -31 2 -68t-17.5 -68.5t-48 -53t-92.5 -21.5v63q6 0 15 2q6 2 14 6t14 15h-2q-47 0 -79.5 32.5t-32.5 79.5z" />
<glyph unicode="&#x201a;" horiz-adv-x="325" d="M72 2v168h182v-168q-2 -39 -18 -70q-14 -27 -46 -48t-92 -21v65q14 0 27 9q10 6 19.5 21t9.5 44h-82z" />
<glyph unicode="&#x201c;" horiz-adv-x="641" d="M74 1517.5q2 36.5 17 68.5t48 53.5t92 21.5v-64q-6 0 -14 -2q-6 -2 -14 -6t-13 -14q47 0 80 -33t33 -80t-32.5 -79.5t-80.5 -32.5q-45 0 -76.5 29.5t-35.5 72.5l-2 -2q-4 31 -2 67.5zM340 1517.5q2 36.5 17.5 68.5t48 53.5t92.5 21.5v-64q-8 0 -17 -2q-16 -4 -26 -20h2 q47 0 79.5 -33t32.5 -80t-32.5 -79.5t-79.5 -32.5q-45 0 -77 29.5t-36 72.5l-2 -2q-4 31 -2 67.5z" />
<glyph unicode="&#x201d;" horiz-adv-x="641" d="M72 1548q0 47 32.5 80t79.5 33q45 0 77 -29.5t36 -72.5l2 2q4 -31 2 -68t-17.5 -68.5t-48 -53t-92.5 -21.5v63q6 0 15 2q6 2 14 6t14 15h-2q-47 0 -79.5 32.5t-32.5 79.5zM338 1548q0 47 32.5 80t80.5 33q45 0 76.5 -29.5t35.5 -72.5l2 2q4 -31 2 -68t-17 -68.5t-48 -53 t-92 -21.5v63q6 0 14 2q16 4 27 21q-47 0 -80 32.5t-33 79.5z" />
<glyph unicode="&#x201e;" horiz-adv-x="641" d="M72 109q0 47 32.5 79.5t79.5 32.5q45 0 77 -29.5t36 -72.5l2 2q4 -31 2 -68t-17.5 -68.5t-48 -53t-92.5 -21.5v63q6 0 15 2q6 2 14 6.5t14 14.5h-2q-47 0 -79.5 32.5t-32.5 80.5zM338 109q0 47 32.5 79.5t80.5 32.5q45 0 76.5 -29.5t35.5 -72.5l2 2q4 -31 2 -68 t-17 -68.5t-48 -53t-92 -21.5v63q6 0 14 2q16 4 27 21q-47 0 -80 32.5t-33 80.5z" />
<glyph unicode="&#x2022;" horiz-adv-x="360" d="M72 864q0 47 31.5 79t76.5 32t77 -32t32 -79q0 -43 -32 -74.5t-77 -31.5t-76.5 31.5t-31.5 74.5z" />
<glyph unicode="&#x2026;" horiz-adv-x="964" d="M72 113q0 47 32.5 79.5t79.5 32.5t81 -32.5t34 -79.5t-34 -80t-81 -33t-79.5 33t-32.5 80zM379 113q0 47 34 79.5t81 32.5t79.5 -32.5t32.5 -79.5t-32.5 -80t-79.5 -33t-81 33t-34 80zM666 113q0 47 33.5 79.5t80.5 32.5t80 -32.5t33 -79.5t-33 -80t-80 -33t-80.5 33 t-33.5 80z" />
<glyph unicode="&#x202f;" horiz-adv-x="423" />
<glyph unicode="&#x2039;" horiz-adv-x="591" d="M72 807l282 448l166 -100l-221 -352l221 -357l-168 -100z" />
<glyph unicode="&#x203a;" horiz-adv-x="591" d="M72 446l221 357l-221 352l166 100l282 -448l-280 -461z" />
<glyph unicode="&#x205f;" horiz-adv-x="529" />
<glyph unicode="&#x20ac;" horiz-adv-x="937" d="M72 578v192h61v145h-61v195h61v184q0 78 30 146.5t80 120t118.5 81t146.5 29.5h18q68 0 128.5 -22.5t108.5 -62.5t82 -93t48 -117q4 -10 6 -21.5t4 -23.5v-18t-2 -19q-6 -47 -38 -79.5t-75 -36.5q-53 -4 -93 34.5t-46 98.5q0 29 6 57q2 12 6.5 28.5t-16.5 33.5 q-47 47 -119 47h-18q-74 0 -126 -53.5t-52 -129.5v-184h432v-195h-432v-145h432v-192h-432v-191q0 -76 52 -129t126 -53h18q35 0 66 12t55 35q16 18 13 33.5t-5 27.5q-8 27 -6 58t14.5 55.5t32 42.5t43 27.5t49.5 7.5q43 -4 74 -37t39 -80v-4q2 -8 2 -16.5v-18.5 q-2 -18 -10 -45q-14 -61 -48 -114.5t-83 -91.5t-108.5 -60.5t-127.5 -22.5h-18q-78 0 -146.5 30t-118.5 81t-80 118.5t-30 143.5v191h-61z" />
<glyph unicode="&#x2122;" horiz-adv-x="1077" d="M61 1612v149h392v-149h-97v53h-51v-494h33v-96h-162v96h33v494h-51v-53h-97zM535 1075v96h38v590h95l94 -323l104 323h97v-590h32v-96h-164v96h35v312l-65 -215h-68l-67 207v-304h32v-96h-163z" />
<glyph unicode="&#xe000;" horiz-adv-x="1198" d="M0 0v1198h1198v-1198h-1198z" />
</font>
</defs>
</svg>
