<?xml version="1.0" standalone="no"?>
<!DOCTYPE svg PUBLIC "-//W3C//DTD SVG 1.1//EN" "http://www.w3.org/Graphics/SVG/1.1/DTD/svg11.dtd" >
<svg xmlns="http://www.w3.org/2000/svg">
<metadata></metadata>
<defs>
<font id="maxwell_slabbook" horiz-adv-x="745" >
<font-face units-per-em="2048" ascent="1536" descent="-512" />
<missing-glyph horiz-adv-x="354" />
<glyph unicode="&#xfb01;" horiz-adv-x="903" d="M70 1069v127h157v117q0 72 23.5 136t64.5 112.5t95.5 76t115.5 27.5q106 0 189 -76q47 -43 75.5 -103.5t36.5 -125.5q0 -18 -5 -40t-15 -38q-29 -37 -72 -41q-29 0 -52.5 14.5t-36.5 37t-16 51t11 57.5q10 18 16.5 28.5t-6.5 32.5q-14 20 -26 31q-14 16 -39 29.5 t-60 13.5t-65.5 -18.5t-54 -49t-38 -70.5t-14.5 -85v-117h166v-127h-166v-948h70v-123h-264v123h67v948h-157zM580 -2v123h67v952h-67v123h264v-123h-66v-952h66v-123h-264z" />
<glyph unicode="&#xfb02;" horiz-adv-x="927" d="M61 1067v127h158v113q0 74 23.5 138t64.5 112.5t95.5 76t115.5 27.5q53 0 112.5 -19.5t98.5 -56.5q55 -53 86 -124.5t31 -153.5v-1182h65v-123h-264v123h68v1182q0 53 -19.5 102t-54.5 82q-14 14 -51 28.5t-72 14.5t-65.5 -18.5t-54 -49t-38 -72.5t-14.5 -87v-113h166 v-127h-166v-942h66v-123h-265v123h72v942h-158z" />
<glyph unicode="&#xfb03;" horiz-adv-x="1331" d="M72 1069v127h116v135q0 147 40 221t143 111q25 8 62.5 12t75.5 0t71.5 -19.5t52.5 -41.5q20 -29 16 -58.5t-22.5 -52t-48 -33t-62.5 -0.5q-16 4 -27.5 17.5t-22.5 28t-22.5 22.5t-29.5 4q-53 -20 -75 -69.5t-22 -141.5v-135h326v117q0 72 23.5 136t64.5 112.5t95.5 76 t115.5 27.5q106 0 188 -76q47 -43 76 -103.5t37 -125.5q0 -18 -5 -40t-15 -38q-29 -37 -72 -41q-29 0 -52.5 14.5t-36.5 37t-16.5 51t11.5 57.5q10 18 16 28.5t-6 32.5q-14 20 -27 31q-14 16 -38.5 29.5t-59.5 13.5t-65.5 -18.5t-54 -49t-38 -70.5t-14.5 -85v-117h166v-127 h-166v-948h70v-123h-265v123h68v948h-326v-938h66v-129h-262v129h67v938h-116zM995 -2v123h68v952h-68v123h265v-123h-66v-952h66v-123h-265z" />
<glyph unicode="&#xfb04;" horiz-adv-x="1429" d="M72 1067v127h116v137q0 147 40 221t143 111q25 8 62.5 12t75.5 0t71.5 -19.5t52.5 -41.5q20 -29 16 -58.5t-22.5 -52t-48 -33t-62.5 -0.5q-16 4 -27.5 17.5t-22.5 28t-22.5 22.5t-29.5 4q-53 -20 -75 -69.5t-22 -141.5v-137h363v113q0 74 23.5 138t64.5 112.5t95.5 76 t115.5 27.5q53 0 112.5 -19.5t98.5 -56.5q55 -53 86 -124.5t31 -153.5v-1182h65v-123h-264v123h68v1182q0 53 -19.5 102t-54.5 82q-14 14 -51 28.5t-72 14.5t-65.5 -18.5t-54 -49t-38 -72.5t-14.5 -87v-113h166v-127h-166v-942h65v-123h-264v123h72v942h-363v-938h66v-129 h-262v129h67v938h-116z" />
<glyph horiz-adv-x="0" />
<glyph unicode="&#xd;" horiz-adv-x="354" />
<glyph horiz-adv-x="0" />
<glyph horiz-adv-x="0" />
<glyph unicode=" "  horiz-adv-x="354" />
<glyph unicode="&#x09;" horiz-adv-x="354" />
<glyph unicode="&#xa0;" horiz-adv-x="354" />
<glyph unicode="!" horiz-adv-x="323" d="M72 100q0 41 26.5 70t63.5 29t63.5 -29t26.5 -70t-26.5 -69.5t-63.5 -28.5t-63.5 28.5t-26.5 69.5zM76 1671h172l-41 -1349h-90z" />
<glyph unicode="&#x22;" horiz-adv-x="393" d="M72 1657h108l-10 -182h-86zM211 1657h111l-13 -182h-86z" />
<glyph unicode="#" horiz-adv-x="1212" d="M72 508v129h211v440h-211v129h211v443h131v-443h424v443h131v-443h172v-129h-172v-440h172v-129h-172v-508h-131v508h-424v-508h-131v508h-211zM414 637h424v440h-424v-440z" />
<glyph unicode="$" horiz-adv-x="837" d="M74 1257q2 121 80.5 209t199.5 111v192h129v-192q57 -12 108.5 -42t89.5 -73t59.5 -97t23.5 -116q0 -23 -4 -43t-21 -41q-16 -20 -42.5 -29.5t-53.5 -2.5q-33 10 -54.5 38.5t-21.5 65.5q0 35 19 63q14 23 14 32t-6 34q-45 57 -111 80v-623q51 -47 103.5 -98t92.5 -111.5 t63.5 -133t21.5 -161.5q-4 -156 -105 -247q-70 -63 -176 -76v-182h-129v184q-59 10 -109 40t-87 74t-59.5 99t-22.5 117q0 23 5 44t21 42q16 20 43 28.5t54 1.5q35 -10 54 -38.5t19 -67.5q0 -35 -18 -62q-10 -14 -18.5 -25t6.5 -36q27 -27 49 -49.5t63 -34.5v633 q-51 45 -102 96t-91 111.5t-63.5 130t-23.5 155.5zM205 1257q-2 -51 9 -94t30.5 -81t48.5 -72.5t61 -67.5v504q-66 -18 -107.5 -69.5t-41.5 -119.5zM483 125q27 6 53.5 18.5t48 35t35 58t15.5 85.5q2 102 -41 179t-111 146v-522z" />
<glyph unicode="%" horiz-adv-x="1585" d="M86 1081v197q0 70 23.5 132.5t64.5 108.5t95.5 72.5t115.5 26.5q63 0 118.5 -26.5t96.5 -72.5t64.5 -108.5t23.5 -132.5v-197q0 -70 -23.5 -132t-64.5 -108t-96 -74t-119 -28q-61 0 -115.5 28t-95.5 74t-64.5 108.5t-23.5 131.5zM215 1081q0 -43 14.5 -80.5t37 -67.5 t53 -46.5t65.5 -16.5t66.5 16.5t55 46.5t37 67.5t13.5 80.5v197q0 43 -13.5 81t-37 66.5t-55 46t-66.5 17.5t-65.5 -17.5t-53 -46t-37 -66.5t-14.5 -81v-197zM422 0l582 1649h161l-581 -1649h-162zM905 371v194q0 70 23.5 132.5t64.5 109.5t95.5 73.5t115.5 26.5 q63 0 118.5 -26.5t96.5 -73.5t64.5 -109.5t23.5 -132.5v-194q0 -72 -23.5 -133.5t-64.5 -108.5t-96 -73.5t-119 -26.5q-61 0 -115.5 26.5t-95.5 73.5t-64.5 108.5t-23.5 133.5zM1032 371q0 -43 14.5 -82t38 -67.5t54 -46t65.5 -17.5t67 17.5t55.5 46t36.5 67.5t13 82v194 q0 43 -13 81t-36.5 67.5t-55.5 46t-67 16.5t-65.5 -16.5t-54 -46t-38 -67.5t-14.5 -81v-194z" />
<glyph unicode="&#x26;" horiz-adv-x="1124" d="M72 403q0 76 23.5 156t60.5 159t84 152.5t94 137.5q-43 92 -66.5 152.5t-34 100t-12.5 60t-2 33.5q0 70 28.5 134t80.5 109q82 70 178 58q61 -8 111.5 -47t72.5 -99q10 -23 18.5 -56.5t4.5 -77.5t-23.5 -96t-64.5 -114l-39 -49q-20 -23 -46 -53.5t-55 -69.5 q59 -119 132 -253t155 -273q12 76 21.5 162t13.5 172q-2 16 -7 24.5t-14 14.5l-10 8l-2 2q-10 10 -17 20.5t-14 22.5q-12 35 -3.5 69.5t36.5 55.5l21 12q39 14 82 -8q37 -20 49 -57q8 -18 8 -43q0 -72 -4 -151t-12.5 -156.5t-18.5 -149.5t-22 -129q-4 -10 -5.5 -18.5 t-5.5 -14.5q47 -80 93.5 -155.5t91.5 -147.5h-150l-104 168q-70 -96 -175.5 -136t-209.5 -30q-63 8 -125 37t-110 79t-77.5 121.5t-29.5 163.5zM203 403q0 -68 19.5 -116.5t51 -81.5t72.5 -50.5t82 -21.5q82 -10 166 28t131 130q-29 49 -58.5 100t-62.5 105 q-129 231 -205 378q-39 -55 -73.5 -114.5t-62 -119.5t-44 -120.5t-16.5 -116.5zM350 1354q0 -35 19.5 -94.5t54.5 -137.5l63 78l35 41q88 127 51 217q-10 29 -33.5 46.5t-50.5 21.5h-12q-20 0 -36.5 -8.5t-26.5 -18.5q-29 -27 -46.5 -65.5t-17.5 -79.5z" />
<glyph unicode="'" horiz-adv-x="145" d="M90 1657h107l-15 -244h-86z" />
<glyph unicode="(" horiz-adv-x="501" d="M72 827.5q0 241.5 50 481t148 460.5h160q-98 -221 -147.5 -460.5t-49.5 -481t49.5 -481.5t147.5 -461h-160q-98 221 -148 461t-50 481.5z" />
<glyph unicode=")" horiz-adv-x="503" d="M72 -115q98 221 147 461t49 481.5t-49 481t-147 460.5h161q98 -221 148.5 -460.5t50.5 -481t-50 -481.5t-149 -461h-161z" />
<glyph unicode="*" horiz-adv-x="608" d="M72 1487l63 112l107 -61v119h127v-119l104 59l64 -110l-101 -60l99 -59l-66 -111l-100 58v-119h-127v119l-105 -60l-63 113l104 59z" />
<glyph unicode="+" horiz-adv-x="806" d="M72 618v130h266v268h129v-268h268v-130h-268v-266h-129v266h-266z" />
<glyph unicode="," horiz-adv-x="325" d="M72 94q0 41 25.5 70t64.5 29q37 0 63.5 -29t26.5 -70v-71q-2 -27 -12 -48q-10 -16 -31 -30.5t-62 -14.5v43q6 0 13 2q12 4 20 23q-6 -2 -18 -2q-39 0 -64.5 28.5t-25.5 69.5z" />
<glyph unicode="-" horiz-adv-x="768" d="M72 760v127h624v-127h-624z" />
<glyph unicode="." horiz-adv-x="323" d="M72 96q0 41 26.5 70t63.5 29t63.5 -29t26.5 -70t-26.5 -69.5t-63.5 -28.5t-63.5 28.5t-26.5 69.5z" />
<glyph unicode="/" horiz-adv-x="884" d="M72 0l581 1649h160l-580 -1649h-161z" />
<glyph unicode="0" horiz-adv-x="860" d="M72 322v1015q0 70 26.5 132.5t72.5 108.5t108.5 72.5t134.5 26.5h32q70 0 132.5 -26.5t108.5 -72.5t72.5 -108.5t26.5 -132.5v-1015q0 -70 -26.5 -132.5t-72.5 -108.5t-108.5 -72.5t-132.5 -26.5h-32q-72 0 -134.5 26.5t-108.5 72.5t-72.5 108.5t-26.5 132.5zM203 322 q0 -43 16.5 -81t45 -68t66.5 -46t83 -16h32q43 0 82 16t68 46t45 68t16 81v1015q0 43 -16 81t-45 68t-68 46t-82 16h-32q-45 0 -83 -16t-66.5 -46t-45 -68t-16.5 -81v-1015z" />
<glyph unicode="1" horiz-adv-x="499" d="M72 1497l159 158h127v-1526h70v-129h-262v129h65v1348l-65 -72z" />
<glyph unicode="2" horiz-adv-x="851" d="M74 63q-2 113 23.5 205t68.5 170t99.5 145.5t113.5 131.5q51 57 100 118.5t87 129t60.5 145.5t22.5 168q0 57 -18.5 106.5t-49 85t-71.5 56t-86 20.5q-59 0 -108.5 -37t-77.5 -96q2 0 -3.5 -9t-5.5 -11q-6 -16 -1 -29.5t18 -30.5q20 -27 26 -61q4 -41 -21.5 -79 t-66.5 -38q-43 -6 -75 27q-29 29 -35 71q0 88 27.5 165t74.5 134.5t111.5 90t136.5 32.5q74 0 138.5 -30.5t111.5 -83t75.5 -125t28.5 -154.5q0 -111 -25.5 -203t-68.5 -171t-98.5 -147.5t-112.5 -131.5q-49 -53 -94 -107.5t-82 -115t-62.5 -128t-31.5 -149.5h444v76h129 v-203h-700z" />
<glyph unicode="3" horiz-adv-x="847" d="M72 399q0 18 2 27q4 41 35 70t75 24l23 -6q33 -14 49 -46t12 -69q-2 -33 -26 -59q-10 -12 -19.5 -20.5t-1.5 -32.5v-2l2 -2v-2q27 -76 81 -122t120 -46q41 0 81 28.5t71.5 84t51 139.5t19.5 194q0 123 -26.5 224.5t-79.5 164.5q-92 109 -262 109h-132l363 469h-309v-70 h-129v203l700 -4l-371 -484q72 -14 131.5 -50t106.5 -89q70 -80 103.5 -202.5t33.5 -270.5q0 -123 -23.5 -227.5t-70.5 -181.5q-49 -82 -114.5 -125t-143.5 -43q-72 0 -136.5 32.5t-111.5 89t-75.5 133t-28.5 162.5z" />
<glyph unicode="4" horiz-adv-x="1007" d="M72 578l512 1079h141v-948h211v-131h-211v-449h74v-129h-262v129h61v449h-526zM276 709h322v677z" />
<glyph unicode="5" horiz-adv-x="849" d="M72 401q0 12 2 17q6 41 37 69q33 29 75 23q6 0 12.5 -2t10.5 -4q33 -14 49 -46t10 -69t-28 -59q-8 -10 -16.5 -18.5t-2.5 -30.5q4 -12 9.5 -23.5t11.5 -21.5q31 -59 79 -91t101 -32q72 0 117 43t69.5 109.5t33.5 148.5t9 161q0 170 -35.5 292t-103.5 173q-113 78 -313 9 l-84 -27v633h610v-205h-129v76h-352v-330q205 45 342 -51q98 -70 145 -216.5t47 -353.5q0 -150 -23.5 -262t-74.5 -186q-43 -72 -109.5 -108.5t-148.5 -36.5q-90 0 -168 50t-127 142q-29 51 -42 109.5t-13 117.5z" />
<glyph unicode="6" horiz-adv-x="778" d="M72 336v983q0 74 25.5 138.5t68.5 113.5t100 76.5t123 27.5q72 -2 129 -32.5t97 -80t63.5 -113t28.5 -130.5q-4 -43 -29 -72q-29 -33 -74 -33l-22 5q-35 10 -54.5 39.5t-17.5 68.5q0 31 20 62q8 12 16.5 26.5t-5.5 38.5h-2q-27 41 -65 65.5t-85 24.5q-39 0 -72.5 -17.5 t-59.5 -48t-40 -71.5t-14 -88v-270q80 68 186 67q66 0 123 -26.5t100 -72.5t69 -108.5t26 -132.5v-440q0 -74 -26 -138.5t-69 -112.5t-100 -75.5t-123 -27.5t-123 27.5t-100 75.5t-68.5 112.5t-25.5 138.5zM203 342q0 -43 14 -82t40 -68.5t59.5 -46t72.5 -16.5t73 16.5 t59.5 46t41 68.5t15.5 82v434q0 43 -15.5 81t-41 67.5t-59.5 46t-73 16.5t-72.5 -16.5t-59.5 -46t-40 -67.5t-14 -81v-434z" />
<glyph unicode="7" horiz-adv-x="880" d="M72 1450v205h737v-144q-31 -49 -86 -150t-115 -247q-35 -86 -71.5 -191.5t-68.5 -228.5t-55.5 -264t-29.5 -301h66v-129h-265v129h68q6 168 30.5 316.5t58.5 278.5t73 239.5t75 201.5q49 121 95.5 211t81.5 150h-465v-76h-129z" />
<glyph unicode="8" horiz-adv-x="843" d="M72 324v473q0 92 45 169.5t119 123.5q-59 45 -93 112.5t-34 147.5q0 68 24.5 126t67.5 102t100 69.5t123 25.5q63 0 120.5 -25.5t99.5 -69.5t66.5 -102.5t24.5 -125.5q0 -80 -34 -147.5t-93 -112.5q74 -45 119 -123t45 -170v-473q0 -70 -26.5 -132.5t-72.5 -108.5 t-108.5 -73.5t-134.5 -27.5h-16q-72 0 -134.5 27.5t-108.5 73.5t-72.5 108.5t-26.5 132.5zM203 324q0 -43 16.5 -82t45 -68t66.5 -45t83 -16h16q45 0 84 16t67.5 45t46 68t17.5 82v473q0 43 -17.5 82t-46 68.5t-67.5 46t-84 16.5h-16q-45 0 -83 -16.5t-66.5 -46t-45 -68.5 t-16.5 -82v-473zM236 1350q0 -39 14 -74t39.5 -60.5t60.5 -41t74 -15.5q37 0 70.5 15.5t59.5 41t40 60.5t14 74t-14 74.5t-40 61t-59.5 41t-70.5 15.5q-39 0 -74 -15.5t-60.5 -41t-39.5 -61t-14 -74.5z" />
<glyph unicode="9" horiz-adv-x="778" d="M72 336q4 43 28 72q31 33 74 32q10 0 23 -4q35 -10 54 -39.5t17 -66.5q0 -39 -20 -62v-2q-8 -10 -15.5 -23.5t3.5 -33.5q25 -45 65.5 -70.5t87.5 -25.5q39 0 73 17t59.5 48t41 71t15.5 87v317q-41 -31 -88.5 -49t-100.5 -18q-66 0 -123 26.5t-100 72.5t-68.5 108.5 t-25.5 132.5v407q0 70 25.5 132.5t68.5 108.5t100.5 72.5t122.5 26.5q66 0 123 -26.5t100 -72.5t69 -108.5t26 -132.5v-997q0 -74 -26 -138.5t-69 -112.5t-100 -75.5t-123 -27.5t-123 27.5t-100 75.5t-68.5 112.5t-25.5 138.5zM203 926q0 -43 14 -81t40 -67.5t59.5 -46 t72.5 -16.5t73 16.5t59.5 46t41 67.5t15.5 81v393q0 47 -15.5 88t-41 71.5t-59.5 48t-73 17.5t-72.5 -17.5t-59.5 -48t-40 -71.5t-14 -88v-393z" />
<glyph unicode=":" horiz-adv-x="323" d="M72 96q0 41 26.5 70t63.5 29t63.5 -29t26.5 -70t-26.5 -69.5t-63.5 -28.5t-63.5 28.5t-26.5 69.5zM72 1094q0 41 26.5 69.5t63.5 28.5t63.5 -28.5t26.5 -69.5t-26.5 -70t-63.5 -29t-63.5 29t-26.5 70z" />
<glyph unicode=";" horiz-adv-x="339" d="M72 1090q0 41 26.5 69.5t63.5 28.5t63.5 -29t26.5 -69q0 -41 -26.5 -70t-63.5 -29t-63.5 29t-26.5 70zM86 94q0 41 25.5 70t64.5 29q37 0 63.5 -29t26.5 -70v-71q-2 -27 -12 -48q-10 -16 -30.5 -30.5t-61.5 -14.5v43q6 0 12 2q12 4 21 23q-6 -2 -19 -2q-39 0 -64.5 28.5 t-25.5 69.5z" />
<glyph unicode="&#x3c;" horiz-adv-x="681" d="M72 807l428 657l110 -67l-385 -590l361 -576l-111 -69z" />
<glyph unicode="=" horiz-adv-x="768" d="M72 588v127h624v-127h-624zM72 897v127h624v-127h-624z" />
<glyph unicode="&#x3e;" horiz-adv-x="681" d="M72 1397l110 67l428 -657l-403 -645l-111 69l363 576z" />
<glyph unicode="?" horiz-adv-x="851" d="M74 1221q-4 80 17.5 152.5t67.5 129t112.5 92t152.5 41.5q74 0 138.5 -29.5t111.5 -80.5t75.5 -121t28.5 -152q0 -106 -17.5 -184t-46 -136.5t-64.5 -103.5t-72 -84q-35 -39 -70 -77.5t-62.5 -88t-44 -113t-14.5 -153.5l-90 -2q-2 111 13.5 190t41 139t59 105.5 t70.5 85.5q33 39 65 77t54.5 85t35.5 109.5t13 150.5q0 53 -18.5 100.5t-49 81t-71.5 53t-86 19.5q-63 0 -114.5 -38.5t-80.5 -104.5q-4 -14 1.5 -27.5t13.5 -29t16 -31.5t10 -35q4 -37 -13 -68.5t-50 -44.5q-41 -10 -85 13.5t-48 79.5zM260 96q0 41 26.5 70t63.5 29 t63.5 -29t26.5 -70t-25.5 -69.5t-64.5 -28.5q-37 0 -63.5 28.5t-26.5 69.5z" />
<glyph unicode="@" horiz-adv-x="1306" d="M72 340v420q0 119 46 225.5t123.5 184t183 123.5t226.5 46t227.5 -46t185.5 -123.5t125 -184t46 -225.5v-500q0 -43 -17.5 -84t-46 -74.5t-69.5 -58.5t-86 -33q-10 -2 -19.5 -2h-19.5q-70 0 -121 43q-39 29 -61 82q-72 -68 -156 -67q-55 0 -103.5 26.5t-84 72.5 t-56 108.5t-20.5 132.5v294q0 70 20.5 132.5t56 108.5t84 72.5t103.5 26.5q37 0 71.5 -12t63.5 -35v51h129v-808q0 -57 33 -86q25 -18 55 -13q47 10 81 46t34 77l-2 500q0 92 -35 175t-96.5 144.5t-144.5 97t-177 35.5q-92 0 -174 -35.5t-143.5 -97t-96 -144.5t-34.5 -175 v-420q0 -76 23.5 -144.5t65.5 -126t100.5 -98.5t125.5 -61q14 -4 26.5 2t26 14t27.5 16.5t31 10.5q37 4 67.5 -13.5t42.5 -50.5q19 -53 -20 -98q-20 -20 -48 -28.5t-57 -4.5q-113 8 -212 56.5t-172.5 127t-115.5 181t-42 217.5zM502 406q0 -41 11 -80t29.5 -68t43 -46 t53.5 -17q27 0 51.5 17t43 46t29.5 68t11 80v294q0 43 -11 81t-29.5 67t-43 46t-51.5 17q-29 0 -53.5 -17t-43 -46t-29.5 -67t-11 -81v-294z" />
<glyph unicode="A" horiz-adv-x="1007" d="M72 0v129h71l295 1532h137l289 -1532h72v-129h-262v129h59l-65 346h-326l-68 -346h62v-129h-264zM367 602h276l-135 727z" />
<glyph unicode="B" horiz-adv-x="862" d="M72 2v129h82v1401h-82v129h374q57 0 109.5 -26.5t92.5 -72.5t63.5 -108.5t23.5 -134.5v-33q0 -86 -30.5 -158.5t-83.5 -119.5q76 -43 123 -122t47 -177v-369q0 -72 -26 -133.5t-69 -107.5t-100 -72.5t-123 -26.5zM283 131h190q39 0 73 16.5t59.5 44t41 66.5t15.5 82v369 q0 43 -15.5 80.5t-41 67.5t-59.5 46.5t-73 16.5h-190v-789zM283 1071h166q66 0 111.5 61.5t47.5 147.5v33q0 45 -13 85t-35.5 69.5t-51.5 47t-62 17.5h-163v-461z" />
<glyph unicode="C" horiz-adv-x="837" d="M72 336v993q0 72 26.5 135.5t72.5 111.5t108.5 75.5t134.5 27.5h16q70 0 132.5 -25.5t109.5 -74.5q61 -68 90 -158q4 -15 4 -28q0 -25 -12 -47q-18 -41 -62 -54q-12 -4 -24 -4q-26 0 -52 18q-36 26 -45 66q-4 23 -1 36t7.5 24.5t5.5 23.5t-5 35q-66 61 -148 61h-16 q-45 0 -83 -17t-66.5 -48t-45 -72t-16.5 -86v-993q0 -47 16.5 -87t45 -71t66.5 -48t83 -17h16q70 0 123 41q16 16 19 29.5t-7 35.5q-5 15 -5 30q0 18 7 36q12 41 49 61q24 13 50 14q14 0 28 -4q42 -16 56 -57q7 -22 7 -44q0 -20 -5 -40q-37 -104 -124 -168.5t-198 -64.5h-16 q-72 0 -134.5 27.5t-108.5 75.5t-72.5 112.5t-26.5 138.5z" />
<glyph unicode="D" horiz-adv-x="886" d="M78 0v131h72v1401h-72v129h409q68 0 127.5 -26.5t104.5 -71.5t70.5 -105.5t25.5 -130.5v-987q0 -72 -25.5 -133.5t-69.5 -107.5t-102.5 -72.5t-123.5 -26.5h-416zM279 131h215q39 0 73.5 16.5t60 44t41 66.5t15.5 82v987q0 43 -15.5 80t-42 65.5t-62.5 45t-77 16.5h-208 v-1403z" />
<glyph unicode="E" horiz-adv-x="761" d="M80 2v129h82v1401h-82v129h610v-197h-129v68h-270v-711h248v-129h-248v-565h270v70h129v-197h-528z" />
<glyph unicode="F" horiz-adv-x="741" d="M72 0v129h67v1403h-59v129h590v-197h-129v70h-273v-713h248v-129h-248v-563h68v-129h-264z" />
<glyph unicode="G" horiz-adv-x="843" d="M72 334v995q0 72 26.5 135.5t72.5 111.5t108.5 75.5t134.5 27.5h16q143 0 242 -102q20 -23 40.5 -48.5t34 -55t17.5 -61.5q1 -7 1 -14q0 -25 -11 -50q-10 -23 -33 -39.5t-51 -16.5q-35 0 -62.5 22.5t-38.5 57.5q-5 17 -5 32q0 18 7 34v2q4 14 10.5 27.5t-12.5 29.5 q0 2 -4 5t-6 3q-29 23 -60.5 35t-68.5 12h-16q-45 0 -83 -17t-66.5 -48t-45 -72t-16.5 -86v-995q0 -47 16.5 -87t45 -70t66.5 -47t83 -17h16q45 0 84 17t67.5 47t46 70t17.5 87v356h-252v131h379v-487q0 -74 -26.5 -137.5t-72.5 -111.5t-108.5 -75.5t-134.5 -27.5h-16 q-72 0 -134.5 27.5t-108.5 75.5t-72.5 111.5t-26.5 137.5z" />
<glyph unicode="H" horiz-adv-x="950" d="M72 0v129h65v1401h-63v129h264v-129h-72v-711h416v711h-68v129h263v-129h-64v-1401h66v-129h-263v129h66v561h-416v-561h70v-129h-264z" />
<glyph unicode="I" horiz-adv-x="407" d="M72 -2v129h63v1401h-63v129h264v-129h-70v-1401h70v-129h-264z" />
<glyph unicode="J" horiz-adv-x="909" d="M74 526q-1 34 -1 69t1 71q2 73 12 127q12 41 45 63q24 16 51 16q14 0 29 -4q29 -8 46 -31.5t21.5 -52t-6 -57.5t-34.5 -47q-10 -8 -17.5 -19.5t-9.5 -33.5v-291q0 -47 16.5 -88t45 -72t67.5 -49t84 -18q43 0 82 18t68.5 49t46 72t16.5 88v1196h-64v129h265v-129h-74 v-1196q0 -74 -26.5 -138.5t-73 -112.5t-108.5 -75.5t-132 -27.5q-72 0 -134.5 27.5t-108.5 75.5t-72.5 112.5t-26.5 138.5q0 14 -3 67.5t-5 122.5z" />
<glyph unicode="K" horiz-adv-x="958" d="M72 0v129h67v1401h-67v129h264v-129h-66v-563l363 563h-47v129h262v-129h-64l-311 -479l352 -922h62v-129h-264v129h49l-289 793l-113 -189v-604h66v-129h-264z" />
<glyph unicode="L" horiz-adv-x="737" d="M72 1534v129h264v-129h-68v-1401h269v64h129v-197l-529 2v1532h-65z" />
<glyph unicode="M" horiz-adv-x="1124" d="M78 0v129h67v1530h134l282 -914l283 914h137v-1530h70v-129h-265v129h66v1118l-240 -770h-102l-234 752v-1100h66v-129h-264z" />
<glyph unicode="N" horiz-adv-x="1024" d="M72 0v129h80v1532h151l463 -1317v1188h-76v129h262v-129h-59v-1532h-143l-467 1329v-1200h53v-129h-264z" />
<glyph unicode="O" horiz-adv-x="843" d="M72 324v1013q0 72 26.5 134.5t72.5 108.5t108.5 72.5t134.5 26.5h16q70 0 132.5 -26.5t109.5 -72.5t73.5 -108.5t26.5 -134.5v-1013q0 -72 -26.5 -134.5t-73.5 -108.5t-109.5 -72.5t-132.5 -26.5h-16q-72 0 -134.5 26.5t-108.5 72.5t-72.5 108.5t-26.5 134.5zM201 324 q0 -45 16 -84t45 -69t68 -46t84 -16h16q45 0 84 16t67.5 46t45 69t16.5 84v1013q0 90 -61.5 151.5t-151.5 61.5h-16q-90 0 -151.5 -61.5t-61.5 -151.5v-1013z" />
<glyph unicode="P" horiz-adv-x="874" d="M72 0v129h67v1405h-59v129h403q66 0 124.5 -26.5t101.5 -72.5t68.5 -107.5t25.5 -131.5v-373q0 -70 -25.5 -131t-68.5 -107t-101.5 -73t-124.5 -27h-215v-485h68v-129h-264zM268 743h215q39 0 74 16.5t60.5 45.5t40 66.5t14.5 80.5v373q0 43 -14.5 81t-40 66.5t-60.5 45 t-74 16.5h-215v-791z" />
<glyph unicode="Q" horiz-adv-x="841" d="M72 326v1013q0 72 26.5 134.5t72.5 108.5t108.5 72.5t134.5 26.5h16q70 0 132.5 -26.5t109.5 -72.5t73.5 -108.5t26.5 -134.5v-1013q0 -63 -21.5 -119.5t-60.5 -102.5q45 -35 84 -78.5t80 -84.5q16 -16 37 -13t39 19q25 23 55.5 21.5t55 -20t37.5 -48.5q8 -16 8 -33 q0 -14 -5 -29q-12 -39 -55 -67.5t-88 -28.5q-23 0 -51.5 9t-57.5 38q-129 129 -184 180t-63 51q-66 -36 -148 -36h-4h-16q-72 0 -134.5 26.5t-108.5 72.5t-72.5 108.5t-26.5 134.5zM201 326q0 -45 16 -84t45 -69t68 -46t84 -16h16q45 0 84 16t67.5 46t45 69t16.5 84v1013 q0 90 -61.5 151.5t-151.5 61.5h-16q-90 0 -151.5 -61t-61.5 -152v-1013z" />
<glyph unicode="R" horiz-adv-x="952" d="M72 2v129h73v1403h-65v129h409q66 0 124.5 -26.5t101.5 -71.5t68.5 -106.5t25.5 -131.5v-371q0 -88 -38 -159.5t-97 -118.5q63 -47 101 -116.5t38 -155.5v-275h68v-129h-263v129h66v275q0 43 -16.5 80.5t-46 67.5t-68.5 46t-82 16h-197v-485h62v-129h-264zM274 748h215 q39 0 74 16t60.5 44t40 66.5t14.5 81.5v371q0 43 -14.5 81t-40 66.5t-60.5 45t-74 16.5h-215v-788z" />
<glyph unicode="S" horiz-adv-x="837" d="M74 1348q0 70 27.5 131t73.5 106t109.5 70.5t135.5 25.5q70 0 131 -27.5t107.5 -75.5t74 -112.5t31.5 -138.5q0 -41 -27 -72q-20 -25 -50 -29.5t-57 5.5q-28 9 -46 35q-17 23 -17 56v7q0 14 7.5 29.5t14.5 31t12 30t1 26.5q-29 49 -76 78.5t-106 29.5q-45 0 -85 -16 t-68.5 -44t-46 -65.5t-17.5 -80.5q0 -72 20.5 -135.5t56 -121t83 -107.5t98.5 -97q55 -49 109.5 -107.5t98.5 -127.5q45 -68 71 -150q25 -76 24 -165v-13q-4 -162 -107 -256q-88 -84 -237 -84q-72 0 -134.5 27.5t-108.5 76.5t-73.5 113.5t-27.5 138.5q0 41 26 72 q28 34 72 34h2q6 0 11.5 -1t11.5 -3q35 -10 55 -38q18 -26 18 -59v-7q0 -14 -7 -29.5t-15 -32t-11 -33t5 -28.5q0 -2 1 -3t1 -3q29 -43 75 -68.5t99 -25.5q29 0 65.5 7t69.5 29.5t55.5 64.5t22.5 112v13q-1 67 -19 124q-20 63 -57 120.5t-85 108.5t-99 99q-53 49 -106.5 107 t-96.5 127t-69.5 148.5t-26.5 172.5z" />
<glyph unicode="T" horiz-adv-x="778" d="M72 1468v197h635v-197h-129v66h-123v-1403h63v-129h-264v129h72v1403h-125v-66h-129z" />
<glyph unicode="U" horiz-adv-x="968" d="M72 1536v129h264v-129h-72v-1210q0 -90 61.5 -150.5t151.5 -60.5h17q90 0 151.5 60.5t61.5 150.5v1210h-72v129h262v-129h-61v-1210q0 -72 -27 -134.5t-74 -108.5t-109.5 -72.5t-131.5 -26.5h-17q-72 0 -134 26.5t-108.5 72.5t-73 108.5t-26.5 134.5v1210h-63z" />
<glyph unicode="V" horiz-adv-x="974" d="M72 1536v129h264v-129h-64l207 -1112l205 1112h-45v129h264v-129h-86l-285 -1534h-106l-285 1534h-69z" />
<glyph unicode="W" horiz-adv-x="1437" d="M72 1536v129h264v-129h-68l174 -1014l31 -239l33 239l151 918h117l148 -899l32 -258l33 258l174 995h-57v129h262v-129h-74l-284 -1534h-107l-158 922l-28 211l-27 -211l-160 -922h-106l-285 1534h-65z" />
<glyph unicode="X" horiz-adv-x="923" d="M72 1536v129h264v-129h-64l187 -551l188 551h-59v129h264v-129h-68l-258 -750l226 -655h77v-129h-264v129h49l-155 457l-156 -457h68v-129h-265v129h60l225 655l-256 750h-63z" />
<glyph unicode="Y" horiz-adv-x="919" d="M72 1536v129h264v-129h-72l199 -657l192 657h-71v129h264v-129h-57l-261 -891v-514h70v-129h-264v129h63v510l-270 895h-57z" />
<glyph unicode="Z" horiz-adv-x="854" d="M72 2l528 1528h-362v-66h-129v197l673 2l-528 -1534h362v70h129v-197h-673z" />
<glyph unicode="[" horiz-adv-x="624" d="M72 -63v1781h481v-131h-350v-1521h350v-129h-481z" />
<glyph unicode="\" horiz-adv-x="884" d="M72 1649h159l582 -1649h-162z" />
<glyph unicode="]" horiz-adv-x="624" d="M72 -63v129h354v1521h-354v131h481v-1781h-481z" />
<glyph unicode="^" horiz-adv-x="1032" d="M72 1409l440 371l449 -371l-80 -98l-369 301l-356 -301z" />
<glyph unicode="_" horiz-adv-x="1114" d="M72 -2h970v-131h-970v131z" />
<glyph unicode="`" horiz-adv-x="282" d="M51 1583h129l31 -182h-86z" />
<glyph unicode="a" horiz-adv-x="825" d="M72 326v137q0 70 23.5 132t64.5 108.5t96 74t117 27.5q49 0 99 -23.5t77 -64.5v231q0 35 -15.5 63.5t-40 46t-57.5 20.5q-6 1 -12 1q-27 0 -53 -12q-20 -18 -14.5 -32.5t12.5 -28.5q11 -27 11 -50q0 -10 -2 -20q-7 -31 -28.5 -51.5t-51.5 -28.5t-56.5 0t-46 35t-19.5 74 q0 49 20.5 94t55.5 78.5t81 54t101 20.5q51 0 95 -21.5t78 -57t53.5 -84t19.5 -101.5l-2 -819h67v-129h-196v66q-31 -41 -79 -62.5t-97 -21.5q-61 0 -116.5 27.5t-96.5 73.5t-64.5 108.5t-23.5 134.5zM203 326q0 -43 13 -82t36.5 -68t54.5 -46t66 -17t65.5 17t54 46t38 68 t14.5 82v137q0 43 -14.5 81t-38 67.5t-54 46t-65.5 16.5t-66 -16.5t-54.5 -46t-36.5 -67.5t-13 -81v-137z" />
<glyph unicode="b" horiz-adv-x="813" d="M72 0v129h67v1421h-65v129h262v-129h-66v-417q31 39 77 59t93 20q61 0 116.5 -26.5t96.5 -73.5t64.5 -110.5t23.5 -135.5v-538q0 -72 -23.5 -134.5t-64.5 -109.5t-96 -74.5t-117 -27.5q-47 0 -97 16t-73 63v-61h-198zM270 328q0 -43 13.5 -82t37 -69t54.5 -47t65 -17 q35 0 66 17t54.5 47t37.5 69t14 82v538q0 43 -14 82t-37.5 70t-54.5 48t-66 17t-65.5 -17t-54 -48t-37 -70t-13.5 -82v-538z" />
<glyph unicode="c" horiz-adv-x="702" d="M72 334v524q0 74 23.5 138.5t64.5 112.5t96 75.5t117 27.5q68 0 131 -31.5t100 -97.5q20 -35 20 -66q0 -11 -2 -21q-10 -40 -38 -62q-23 -18 -52 -17q-6 1 -13 1q-38 4 -70 45q-20 29 -23 61q-2 12 -2 23.5t-3 19.5t-13.5 12t-34.5 4q-35 0 -66 -18t-54.5 -49t-36.5 -72 t-13 -86v-524q0 -45 13 -86t36.5 -72t54.5 -49t66 -18q18 0 26 2q16 4 20.5 19t4.5 38q2 33 25 61q20 27 48.5 36t56.5 3t49.5 -27.5t25.5 -58.5q0 -45 -21.5 -82t-57.5 -63.5t-82 -40.5t-95 -14q-61 0 -116.5 27.5t-96.5 75.5t-64.5 111.5t-23.5 137.5z" />
<glyph unicode="d" horiz-adv-x="823" d="M72 330v534q0 72 23.5 135.5t64.5 110.5t96 74.5t117 27.5q49 0 94 -26.5t84 -57.5v422h-68v129h262v-129h-65v-1421h72v-129h-201v66q-35 -41 -82 -62.5t-96 -21.5q-61 0 -116.5 27.5t-96.5 74.5t-64.5 110.5t-23.5 135.5zM203 330q0 -43 13 -83t36.5 -68.5t54.5 -46 t66 -17.5t65.5 17.5t54 46t38 68.5t14.5 83v534q0 43 -14.5 83t-38 68.5t-54 46t-65.5 17.5t-66 -17.5t-54.5 -46t-36.5 -68.5t-13 -83v-534z" />
<glyph unicode="e" d="M72 340v514q0 74 23.5 139.5t64.5 113.5t96 76.5t117 28.5q61 0 116.5 -28.5t96.5 -76.5t64.5 -113.5t23.5 -139.5v-242h-471v-272q0 -47 13 -88t36.5 -71.5t54.5 -48t66 -17.5q27 0 57.5 13t52 34.5t28.5 49.5t-13 56q-20 31 -21 64q-2 33 14.5 58.5t42 39.5t55 11 t56.5 -29q27 -29 29 -86q-2 -72 -26.5 -134.5t-65.5 -109.5t-94.5 -73.5t-114.5 -26.5t-116.5 28.5t-96.5 76.5t-64.5 113.5t-23.5 139.5zM203 743h342v111q0 45 -14.5 86t-38 71.5t-54 49t-65.5 18.5t-66 -18.5t-54.5 -49t-36.5 -71.5t-13 -86v-111z" />
<glyph unicode="f" horiz-adv-x="792" d="M72 1067v127h116v131q0 74 24 138.5t64.5 112.5t96 75.5t116.5 27.5q27 0 63 -9t70.5 -27.5t61.5 -44t33 -58.5q3 -12 3 -24q0 -20 -10 -38q-14 -26 -39.5 -39.5t-57 -13.5t-58.5 23q-12 10 -18.5 26.5t-11.5 33t-13 29.5t-27 15q-70 -4 -119 -69.5t-49 -157.5v-131h164 v-127h-164v-938h66v-129h-262v129h67v938h-116z" />
<glyph unicode="g" horiz-adv-x="817" d="M72 324v550q0 70 23.5 131.5t64.5 107.5t96 72.5t117 26.5q47 0 94 -18t78 -61l2 61h198v-129h-71v-1079q0 -72 -23.5 -136.5t-64.5 -111.5t-96.5 -75t-116.5 -28q-41 0 -80 14.5t-69.5 36t-51 46t-27.5 45.5q-6 29 3.5 51t31.5 45q20 14 47 17.5t50.5 -6t42 -28 t26.5 -42.5q6 -14 13.5 -34t35.5 -13q35 0 62.5 22.5t47 55t30 71.5t10.5 70v75q-33 -47 -79 -63t-93 -16q-61 0 -116.5 27.5t-96.5 73.5t-64.5 108.5t-23.5 132.5zM203 324q0 -88 50 -149.5t120 -61.5q35 0 65.5 16t54 45t38 68t14.5 82v550q0 43 -14.5 81t-38 67t-54 46 t-65.5 17t-66 -17t-54.5 -46t-36.5 -66.5t-13 -81.5v-550z" />
<glyph unicode="h" horiz-adv-x="878" d="M72 0v129h65v1421h-65v129h264v-129h-68v-417q23 39 73 59t97 20q61 0 116.5 -26.5t96.5 -72.5t64.5 -108.5t23.5 -134.5v-741h68v-129h-264v129h67v741q0 43 -14 83t-37.5 69t-54.5 46t-66 17t-65.5 -17t-54 -46t-37 -69t-13.5 -83v-741h68v-129h-264z" />
<glyph unicode="i" horiz-adv-x="407" d="M72 0v129h73v944h-73v129h264v-129h-60v-944h60v-129h-264zM119 1425q0 35 24.5 67t65.5 32q39 0 64.5 -29t25.5 -70q0 -31 -15.5 -54t-39.5 -33q-17 -8 -36 -8q-6 0 -14 1q-28 4 -51 27q-25 35 -24 67z" />
<glyph unicode="j" horiz-adv-x="413" d="M-256 -215q-1 8 -1 16q0 17 6 35q9 27 32 43q26 18 57 18q4 0 8 -1q35 -2 64 -25q27 -25 37 -57q4 -12 9 -22.5t28 -10.5q33 2 62.5 19.5t53 48t37 70.5t13.5 85v1059h-72v129h264v-129h-63v-1059q0 -72 -24 -136.5t-64.5 -112.5t-96 -75.5t-117.5 -27.5q-31 0 -68.5 7 t-72.5 22.5t-60.5 41t-31.5 62.5zM117 1425q0 35 24.5 67t65.5 32q39 0 64.5 -29t25.5 -70q0 -31 -15.5 -54t-39.5 -33q-17 -8 -36 -8q-7 0 -14 1q-28 4 -51 27q-25 35 -24 67z" />
<glyph unicode="k" horiz-adv-x="876" d="M72 0v129h65v1421h-65v129h264v-129h-70v-839l289 354h-47v129h303v-129h-92l-213 -277l248 -659h80v-129h-265v129h39l-200 547l-142 -180v-367h70v-129h-264z" />
<glyph unicode="l" horiz-adv-x="407" d="M72 0v129h65v1421h-65v129h264v-129h-68v-1421h68v-129h-264z" />
<glyph unicode="m" horiz-adv-x="1357" d="M72 0v129h69v932h-69v129h200v-57q23 35 73 57t97 22q72 0 134.5 -34.5t103.5 -94.5q41 59 102.5 94t132.5 35q61 0 116.5 -26.5t96.5 -72.5t65 -108.5t24 -134.5v-741h69v-129h-264v129h65v741q0 43 -13 82t-36.5 69t-55.5 46t-67 16t-65.5 -16t-54 -46t-38 -69 t-14.5 -82v-741h68v-129h-262v129h65v741q0 43 -14 82t-37.5 69t-54.5 46t-66 16t-65.5 -16t-54 -46t-37 -69t-13.5 -82v-741h64v-129h-264z" />
<glyph unicode="n" horiz-adv-x="884" d="M72 0v129h73v934h-73v129h202v-2h2v-62q25 35 74 58.5t96 23.5q61 0 116.5 -26.5t96.5 -72.5t65 -108.5t24 -134.5v-739h65v-129h-264v129h69v739q0 43 -14 83t-37.5 69t-54.5 46t-66 17t-65.5 -17t-54 -46t-37 -69t-13.5 -83v-739h60v-129h-264z" />
<glyph unicode="o" d="M72 322v552q0 70 23.5 131.5t64.5 107.5t96.5 72.5t116.5 26.5t116.5 -26.5t96.5 -72.5t64.5 -107.5t23.5 -131.5v-552q0 -72 -23.5 -133.5t-64.5 -107.5t-96.5 -72.5t-116.5 -26.5t-116.5 26.5t-96.5 72.5t-64.5 107.5t-23.5 133.5zM203 322q0 -43 13 -82t36.5 -68 t54.5 -46t66 -17t65.5 17t54 46t38 68t14.5 82v552q0 43 -14.5 81t-38 67t-54 46t-65.5 17t-66 -17t-54.5 -46t-36.5 -66.5t-13 -81.5v-552z" />
<glyph unicode="p" horiz-adv-x="827" d="M72 1065v129h213v-64q29 41 76 61.5t94 20.5q61 0 116.5 -26.5t96.5 -72.5t64.5 -108.5t23.5 -134.5v-524q0 -72 -23.5 -137.5t-64.5 -116.5t-96.5 -80.5t-116.5 -29.5q-96 0 -170 61v-258h63v-129h-262v129h68v1280h-82zM285 324q0 -43 13 -83t36.5 -69t54.5 -46t66 -17 t65.5 17t54 46t38 69t14.5 83v546q0 43 -14.5 82t-38 69t-54.5 46t-65 16q-35 0 -66 -16t-54.5 -46t-36.5 -69t-13 -82v-546z" />
<glyph unicode="q" horiz-adv-x="819" d="M72 324v546q0 72 23.5 134.5t64.5 108.5t96 72.5t117 26.5q49 0 96 -19t82 -67v68h211v-129h-82v-1212q0 -29 15.5 -36t31.5 -3q19 6 39 6q49 -2 78 -33q29 -32 29 -70q0 -35 -29 -64q-29 -30 -96 -30q-41 2 -77 19.5t-62.5 47t-42 66.5t-15.5 80v211q-39 -31 -84 -48 t-94 -17q-61 0 -116.5 26.5t-96.5 72.5t-64.5 108.5t-23.5 134.5zM203 324q0 -88 50 -149.5t120 -61.5q35 0 65.5 16t54 45t38 68t14.5 82v546q0 43 -14.5 82t-38 69t-54 46t-65.5 16t-66 -16t-54.5 -46t-36.5 -69t-13 -82v-546z" />
<glyph unicode="r" horiz-adv-x="735" d="M72 2v129h67v934h-67v129h202v-61q33 41 76 60t88 19q43 0 90 -16t86 -44q40 -28 62 -66q21 -34 20 -73v-7q0 -37 -20.5 -57.5t-49 -27t-59 4t-51.5 37.5q-20 28 -22 61q-4 25 -10.5 42t-45.5 17q-35 0 -65.5 -18t-53 -49t-37 -72t-14.5 -86v-727h68v-129h-264z" />
<glyph unicode="s" horiz-adv-x="706" d="M74 948q2 51 24.5 99.5t60.5 85t88 58t107 21.5q80 0 145.5 -38.5t102.5 -106.5q18 -30 18 -66q0 -10 -2 -21q-6 -48 -57 -67q-16 -6 -32 -6q-17 1 -35 7q-34 12 -54 42q-20 27 -20 62t-13.5 48t-52.5 13q-63 0 -106 -41t-43 -94q0 -45 14 -83t41 -73.5t60.5 -67.5 t72.5 -65q43 -37 87 -76.5t78 -88t56 -105.5q20 -52 19 -117v-12q0 -59 -20.5 -109.5t-57.5 -87t-88 -57t-113 -20.5q-45 0 -96 18t-92 51q-42 33 -66 78q-20 36 -19 77q0 10 1 21q8 33 31.5 52.5t52.5 22.5t56.5 -10t45.5 -44q16 -35 15 -66q0 -39 13 -53t58 -14 q51 0 99.5 33.5t50.5 111.5v11q0 41 -14 75q-16 39 -42 74t-61 67.5t-74 65.5q-43 37 -86 77t-76.5 88t-55 104.5t-21.5 125.5z" />
<glyph unicode="t" horiz-adv-x="729" d="M72 1067v127h116v272h129v-272h228v-127h-228v-731q0 -86 32 -145.5t71 -73.5q16 -6 23.5 1t10.5 19.5t3 26.5t4 24q10 35 36.5 58.5t61.5 23.5q27 0 50.5 -14t35.5 -41q11 -28 11 -55q0 -16 -4 -32q-11 -42 -41.5 -75t-76 -52t-94.5 -19q-53 0 -98 27.5t-80 75.5 t-54.5 112.5t-19.5 138.5v731h-116z" />
<glyph unicode="u" horiz-adv-x="880" d="M72 1063v129h264v-129h-70v-739q0 -88 50.5 -149.5t119.5 -61.5q35 0 65.5 16t54.5 45t38 68t14 82v739h-63v129h264v-129h-72v-932h70v-129l-199 -2v43q-37 -29 -81 -45t-91 -16q-61 0 -116.5 27.5t-96.5 73.5t-64.5 108.5t-23.5 132.5v739h-63z" />
<glyph unicode="v" horiz-adv-x="778" d="M72 1065v129h264v-129h-66l121 -643l117 643h-66v129h265v-129h-68l-195 -1065h-106l-199 1065h-67z" />
<glyph unicode="w" horiz-adv-x="1210" d="M72 1065v129h264v-129h-60l103 -619q2 -47 6 -84q4 -33 6 -58t6 -25q2 0 4 25.5t7 57.5q4 37 6 84l125 746h139l125 -746q4 -47 8 -84q4 -33 6 -58t4 -25t5 25.5t8 57.5q4 37 8 84l104 619h-69v129h262v-129h-64l-209 -1065h-88l-123 692l-45 246l-43 -242l-127 -696h-86 l-209 1065h-73z" />
<glyph unicode="x" horiz-adv-x="882" d="M72 0v129h63l234 502l-205 434h-60v129h265v-129h-64l135 -283l135 283h-57v129h264v-129h-63l-205 -434l236 -502h61v-129h-264v129h61l-166 350l-163 -350h57v-129h-264z" />
<glyph unicode="y" horiz-adv-x="878" d="M72 1065v129h264v-129h-72v-741q0 -43 13.5 -83t37 -69t54 -46t65.5 -17t65.5 17t54.5 46t38 69t14 83v741h-63v129h264v-129h-72v-1065q0 -74 -23.5 -137.5t-64.5 -111.5t-96.5 -75.5t-116.5 -27.5q-31 0 -67.5 9t-70.5 27.5t-58.5 46t-30.5 62.5q-1 9 -1 17q0 36 21 61 q4 4 8.5 8t10.5 8q26 18 56 18q4 0 8 -1q34 -2 63 -27q27 -20 37 -53v-2q4 -12 5 -27.5t23 -15.5q39 0 70 20.5t52.5 53t32.5 71.5t13 76v61q-35 -47 -80 -63t-92 -16q-61 0 -116.5 26.5t-96.5 72.5t-64.5 108.5t-23.5 134.5v741h-61z" />
<glyph unicode="z" horiz-adv-x="751" d="M72 0l415 1065h-239v-72h-129v203l561 -2l-416 -1063h252v76h129v-207h-573z" />
<glyph unicode="{" horiz-adv-x="624" d="M72 811q0 82 78 135q16 10 33.5 34t30.5 54.5t21.5 64.5t8.5 68v162q0 55 14 102.5t40 82t59.5 54t72.5 19.5h123v-129h-123q-14 0 -36.5 -34.5t-22.5 -94.5v-162q0 -47 -11.5 -97t-32 -94t-48 -81t-58.5 -57q-10 -4 -16 -12.5t-2 -14.5q0 -6 4 -12t16 -17 q33 -23 62.5 -58.5t50 -80.5t33 -94t12.5 -96v-195q0 -61 20.5 -96t34.5 -35h117v-127h-117q-39 0 -72.5 19.5t-58 54.5t-38 82t-13.5 102v195q0 33 -9 67.5t-22.5 64t-31 53.5t-35.5 36q-39 27 -61.5 61.5t-22.5 75.5z" />
<glyph unicode="|" horiz-adv-x="274" d="M72 -199v1956h131v-1956h-131z" />
<glyph unicode="}" horiz-adv-x="624" d="M72 0v127h118q12 0 33 35t21 96v195q0 47 12 96t33.5 94t50.5 81t61 58q20 16 25 29q0 14 -23 27q-31 20 -58.5 57t-48 81t-31.5 94t-11 97v162q0 59 -21.5 94t-37.5 35h-123v129h123q39 0 73.5 -19.5t59 -54t39 -82t14.5 -102.5v-162q0 -35 8 -68.5t21.5 -64t31 -54.5 t33.5 -34q78 -53 78 -135t-84 -137q-16 -12 -33.5 -36t-32 -53.5t-23.5 -64.5t-9 -67v-195q0 -55 -13.5 -102t-38 -82t-57.5 -54.5t-72 -19.5h-118z" />
<glyph unicode="~" horiz-adv-x="1067" d="M74 766q4 18 12 36.5t25 31.5q98 63 168.5 79.5t123.5 6.5q57 -10 98.5 -43t76.5 -66q41 -39 78.5 -62.5t99.5 -7.5q27 8 28.5 20.5t6.5 26.5v3q8 29 34 55q29 25 65 29t64 -15q10 -6 17 -16q29 -29 22 -78q-2 -18 -11 -36.5t-26 -31.5l-2 -2q-98 -63 -170.5 -79.5 t-128 -4t-95.5 44t-73 62.5q-27 27 -53 46t-55 26q-29 6 -74 -5q-20 -8 -22 -20t-7 -27q-8 -29 -34 -55q-29 -25 -65 -28t-64 16l-19 16q-27 31 -20 78z" />
<glyph unicode="&#xa1;" horiz-adv-x="323" d="M31 1245q0 41 26.5 69.5t63.5 28.5t63.5 -28.5t26.5 -69.5t-26.5 -69.5t-63.5 -28.5t-63.5 28.5t-26.5 69.5zM35 -326l41 1350h90l41 -1350h-172z" />
<glyph unicode="&#xa2;" horiz-adv-x="727" d="M72 418v651q0 43 17 82t47 71.5t69 57.5t82 37v170h143v-162q80 -16 137 -68q53 -45 76 -114l2 -4q16 -37 6 -76q-16 -47 -53 -62q-12 -6 -23 -6q-35 -6 -65.5 12.5t-44.5 53.5q-14 29 -8 65q2 14 7 29.5t-13 26.5l-21 10v-897l16 6q14 10 10.5 25.5t-3.5 27.5 q-4 35 12 66q16 33 48 49t67 8q12 -4 22 -8q37 -23 47 -66q8 -37 -10 -75q-27 -66 -83 -109t-126 -59v-160h-143v168q-43 12 -82 35.5t-69 56.5t-47 73t-17 85zM201 418q0 -35 28.5 -63.5t57.5 -47.5v871q-29 -16 -57.5 -45t-28.5 -64v-651z" />
<glyph unicode="&#xa3;" horiz-adv-x="987" d="M72 590v131h159v543q0 70 24 133t64.5 109t95 74t115.5 28q96 0 183 -68q2 -2 4 -3t4 -5q35 -25 41 -66q8 -41 -19 -77l-18 -17q-29 -20 -64.5 -17t-64.5 25q-25 20 -37 54q-4 14 -5 27.5t-24 15.5q-35 0 -65.5 -17.5t-54 -46.5t-38 -67.5t-14.5 -81.5v-543h279v-131 h-279v-250q0 -125 -53 -209q86 0 183.5 1t168.5 1q57 0 88 37q14 16 7 31.5t-17 31.5q-20 29 -16 64q0 37 20.5 65.5t55.5 36.5q16 4 22 4q47 -4 74 -36q25 -31 24 -74v-4q0 -8 -3.5 -48t-26.5 -87q-31 -72 -90.5 -112t-137.5 -40q-68 0 -154.5 -1t-168.5 -1t-145.5 -1 t-79.5 -1h-9v127h4q20 2 43 17.5t41.5 43t30.5 66.5t12 88v250h-159z" />
<glyph unicode="&#xa4;" horiz-adv-x="858" d="M72 -16l123 237q-29 66 -29 160v293q0 92 29 162l-123 237l114 60l93 -177q33 29 70.5 44.5t78.5 15.5q43 0 81 -15.5t69 -44.5l94 177l114 -60l-124 -237q33 -78 32 -162v-293q0 -47 -8 -91t-20 -79l120 -227l-114 -60l-94 176q-66 -61 -150 -61q-82 0 -149 61l-93 -176 zM293 381q0 -43 11 -81t29.5 -66.5t43 -46t51.5 -17.5t52.5 17.5t44 46t29.5 66.5t11 81v293q0 43 -11 81t-29.5 67.5t-44 47t-52.5 17.5t-51.5 -17.5t-43 -47t-29.5 -67.5t-11 -81v-293z" />
<glyph unicode="&#xa5;" horiz-adv-x="978" d="M72 1536v129h264v-129h-66l228 -692l202 692h-57v129h264v-129h-71l-215 -733h157v-127h-219v-111h219v-127h-219v-309h66v-129h-265v129h68v309h-219v127h219l2 111h-221v127h166l-240 733h-63z" />
<glyph unicode="&#xa6;" horiz-adv-x="274" d="M72 242v643h131v-643h-131zM72 1012v645h131v-645h-131z" />
<glyph unicode="&#xa7;" horiz-adv-x="1142" d="M74 762q0 63 27.5 119.5t74.5 98.5t108.5 65.5t133.5 23.5h12q-51 96 -51 211q0 63 27.5 119.5t73.5 98.5t109.5 65.5t135.5 23.5q70 0 132.5 -24.5t108.5 -67.5t73.5 -100.5t29.5 -122.5v-6q2 -23 -5 -40.5t-17 -33.5q-31 -37 -74 -37q-14 0 -23 2q-35 8 -55.5 37 t-22.5 66q0 35 17 63q8 14 17 25.5t-9 33.5q-35 35 -77 55.5t-95 20.5q-45 0 -85 -14t-68.5 -39t-46 -57.5t-17.5 -69.5q0 -61 20.5 -112.5t55 -96.5t82 -87t98.5 -87q55 -45 110.5 -95t99.5 -108.5t70.5 -130.5t24.5 -160q-4 -154 -106 -235q-47 -37 -106.5 -57.5 t-131.5 -20.5h-10q47 -90 45 -205q-2 -154 -107 -237q-92 -76 -235 -76q-70 0 -132.5 25.5t-108.5 70.5t-73.5 104.5t-27.5 127.5q0 43 24 73q27 33 72 37q16 0 23 -2q35 -8 56 -36.5t21 -65.5q4 -35 -16 -64q-6 -12 -15.5 -23.5t3.5 -29.5q29 -39 75 -62.5t99 -23.5 q29 0 65.5 6t68.5 25.5t54.5 55.5t24.5 97q2 66 -18.5 119t-55.5 99.5t-83 88t-101 87.5q-53 45 -106.5 94t-96.5 107.5t-69.5 127t-26.5 154.5zM205 760q-2 -63 18.5 -114.5t55 -96.5t81 -87t97.5 -85q29 -25 58.5 -48.5t57.5 -52.5v3q63 -59 152 -60q29 0 65.5 6 t69.5 25.5t56.5 56.5t25.5 96q0 66 -20.5 119t-56.5 99.5t-84 88.5t-101 87q-23 20 -47 40.5t-47 43.5q-31 29 -76 44t-92 15q-90 0 -151.5 -52t-61.5 -128z" />
<glyph unicode="&#xa8;" horiz-adv-x="548" d="M72 1532q0 41 26.5 69.5t63.5 28.5t63.5 -28.5t26.5 -69.5t-26.5 -69.5t-63.5 -28.5t-63.5 28.5t-26.5 69.5zM297 1532q0 41 26.5 69.5t63.5 28.5q39 0 64.5 -28.5t25.5 -69.5t-25.5 -69.5t-62.5 -28.5h-2q-37 0 -63.5 28.5t-26.5 69.5z" />
<glyph unicode="&#xa9;" horiz-adv-x="1228" d="M72 578v505q0 119 43 225.5t116.5 185.5t171.5 125t211 46t212.5 -46t173 -125t115.5 -185.5t42 -225.5v-505q0 -121 -42 -226.5t-115.5 -183.5t-173 -124t-212.5 -46t-211 46t-171.5 124t-116.5 183.5t-43 226.5zM203 578q0 -92 32.5 -175.5t88 -144.5t130 -97 t160.5 -36t162 36t132.5 97t89 144t32.5 176v505q0 94 -32.5 176t-89 143.5t-132.5 97.5t-162 36t-160.5 -36t-130 -97.5t-88 -143t-32.5 -176.5v-505zM326 608v447q0 70 23.5 132t64.5 108t96.5 74t116.5 28q70 0 129 -34t104 -95q25 -31 25 -74q-4 -47 -37 -72l-21 -12 q-31 -14 -65.5 -3t-56.5 40q-23 27 -25 61q-2 14 0 29.5t-16 24.5q-10 2 -18.5 3t-18.5 1q-35 0 -66 -16.5t-54.5 -46t-37.5 -67.5t-14 -81v-447q0 -43 14 -82t37.5 -68.5t54.5 -46t66 -16.5q12 0 18 2h4q4 0 5 1t5 1q20 6 19.5 22.5t1.5 31.5q2 33 25 61q23 29 57.5 38 t66.5 -5q4 -2 10.5 -5t10.5 -7q33 -29 35 -74q0 -39 -27 -72q-45 -57 -105.5 -90t-125.5 -33q-61 0 -116.5 26.5t-96.5 74t-64.5 109t-23.5 132.5z" />
<glyph unicode="&#xaa;" horiz-adv-x="520" d="M63 1133v75q0 39 13.5 74t36 60.5t53.5 41t65 15.5q29 0 56.5 -13.5t42.5 -35.5v131q0 39 -31 60.5t-70 4.5q-10 -10 -7 -18t7 -17q14 -33 -1 -55t-38.5 -28.5t-46 7t-22.5 54.5q2 55 43 97t102 42q57 0 97 -44t40 -103l-2 -459h39v-72h-110v37q-16 -23 -43 -35t-56 -12 q-70 0 -119 56.5t-49 136.5zM135 1133q0 -47 29 -83t67 -36q39 0 68 35.5t29 83.5v75q0 47 -29 83t-68 36t-67.5 -36t-28.5 -83v-75z" />
<glyph unicode="&#xab;" horiz-adv-x="819" d="M72 797l270 432l111 -70l-230 -362l230 -375l-111 -68zM367 797l270 432l111 -70l-230 -362l230 -375l-111 -68z" />
<glyph unicode="&#xac;" horiz-adv-x="1253" d="M72 666v131h1110v-414h-131v283h-979z" />
<glyph unicode="&#xad;" horiz-adv-x="768" d="M72 760v127h624v-127h-624z" />
<glyph unicode="&#xae;" horiz-adv-x="1114" d="M72 557v711q0 80 30.5 150.5t83 122.5t124 83t151.5 31h196q80 0 150 -31t122 -83t82.5 -122.5t30.5 -150.5v-711q0 -80 -30.5 -150.5t-82.5 -123t-122 -82t-150 -29.5h-196q-80 0 -151.5 29.5t-124 82t-83 123t-30.5 150.5zM203 557q0 -53 20.5 -100t55 -82t82 -55.5 t100.5 -20.5h196q51 0 98.5 20.5t83 55.5t56 82t20.5 100v711q0 53 -20.5 100t-56 82t-82.5 55.5t-99 20.5h-196q-53 0 -100.5 -20.5t-82 -55.5t-55 -82t-20.5 -100v-711zM309 469v129h47v778h219q43 0 80 -16.5t65 -45t44 -66.5t16 -81v-194q0 -92 -65 -152q31 -35 49 -82 t18 -100v-41h52v-129h-228v129h45v41q0 49 -26.5 86t-63.5 37h-76v-164h52v-129h-228zM485 893h90q31 0 52.5 23.5t21.5 56.5v194q0 35 -21.5 56.5t-52.5 21.5h-90v-352z" />
<glyph unicode="&#xaf;" horiz-adv-x="768" d="M72 1528v129h624v-129h-624z" />
<glyph unicode="&#xb0;" horiz-adv-x="503" d="M72 1475q0 37 14 70.5t39 58t57.5 39t69.5 14.5q76 0 128 -53t52 -129q0 -74 -52 -127.5t-128 -53.5q-37 0 -69.5 14.5t-57.5 39t-39 57.5t-14 70zM182 1475q0 -29 19.5 -51.5t50.5 -22.5t50.5 22.5t19.5 51.5q0 31 -19.5 52t-50.5 21t-50.5 -21.5t-19.5 -51.5z" />
<glyph unicode="&#xb1;" horiz-adv-x="806" d="M72 236v131h663v-131h-663zM72 739v131h266v269h129v-269h268v-131h-268v-264h-129v264h-266z" />
<glyph unicode="&#xb2;" horiz-adv-x="536" d="M74 760v59q0 61 13 110.5t34.5 91.5t48.5 77t53 67q25 31 46.5 59.5t38 59.5t25.5 66.5t9 79.5q0 45 -21.5 74.5t-52.5 29.5q-4 0 -20 -4q-18 -10 -15 -20.5t11 -20.5l4 -4v-2l6 -8q20 -29 16 -64q0 -37 -21.5 -65.5t-55.5 -36.5q-8 -2 -25 -2q-45 4 -72 36 q-23 33 -22 74q0 51 15 94t41 75t61.5 50.5t76.5 18.5t77 -17.5t61.5 -48t42 -71.5t16.5 -88q0 -59 -13.5 -107.5t-35 -89.5t-47 -75.5t-52.5 -67.5q-43 -49 -74.5 -97.5t-43.5 -111.5h104v82h129v-203h-358z" />
<glyph unicode="&#xb3;" horiz-adv-x="579" d="M72 1481v178h436l-184 -258q66 -29 113.5 -105t47.5 -215q0 -82 -17 -142t-45 -99t-62.5 -57.5t-71.5 -18.5q-41 0 -77 18.5t-61.5 51t-41 76.5t-15.5 94v16q0 43 29 72q27 33 74 32l22 -4q35 -10 54.5 -39.5t17.5 -68.5q0 -31 -21 -62q-8 -12 -19 -23.5t5 -27.5 q2 0 2 -1t2 -1v-2q16 -10 29 -10q23 0 48 50t25 146q0 31 -5 70t-19 72.5t-43 56.5t-74 23h-117l170 235h-73v-57h-129z" />
<glyph unicode="&#xb4;" horiz-adv-x="282" d="M72 1401l32 182h127l-73 -182h-86z" />
<glyph unicode="&#xb5;" horiz-adv-x="874" d="M72 1034v129h264v-129h-66v-692q0 -43 13.5 -81t37 -66.5t53 -46t64.5 -17.5t67 17.5t55.5 46t36.5 66.5t13 81v692h-71v129h264v-129h-62v-1034h-131v63q-78 -61 -172 -61q-96 0 -168 61v-354h-131v1325h-67z" />
<glyph unicode="&#xb6;" horiz-adv-x="1077" d="M72 913v353q0 68 25.5 127t68.5 104t101.5 70.5t123.5 25.5l615 -4v-1589h-132v1460h-139v-1460h-131v586h-213q-66 0 -124 25.5t-101 70.5t-68.5 104.5t-25.5 126.5z" />
<glyph unicode="&#xb7;" horiz-adv-x="360" d="M72 864q0 47 31.5 79t76.5 32t77 -32t32 -79q0 -43 -32 -74.5t-77 -31.5t-76.5 31.5t-31.5 74.5z" />
<glyph unicode="&#xb8;" horiz-adv-x="497" d="M74 -223l6 22q12 33 43 51.5t70 14.5q37 -6 59 -27q10 -6 16 -14t15 -4l4 4l6 8q2 0 2 2t2 4q0 4 -6 13.5t-17 21.5q-20 25 -43.5 66t-23.5 112h127q0 -35 13 -55.5t30 -42.5q16 -23 32.5 -48.5t16.5 -66.5q0 -76 -66.5 -123t-175.5 -49q-4 0 -7 1t-7 1q-41 4 -68 33 q-33 33 -28 76z" />
<glyph unicode="&#xb9;" horiz-adv-x="401" d="M72 1550l94 109h164l-2 -2h2v-895h-123v760l-43 -49z" />
<glyph unicode="&#xba;" d="M72 432v512q0 70 23.5 131.5t64.5 107.5t96.5 72.5t116.5 26.5t116.5 -26.5t96.5 -72.5t64.5 -107.5t23.5 -131.5v-512q0 -70 -23.5 -131t-64.5 -107.5t-96.5 -73t-116.5 -26.5t-116.5 26.5t-96.5 73t-64.5 107.5t-23.5 131zM203 432q0 -43 13 -81t36.5 -66.5t54.5 -46 t66 -17.5t65.5 17.5t54 46t38 66.5t14.5 81v512q0 43 -14.5 81t-38 66.5t-54 46t-65.5 17.5t-66 -17.5t-54.5 -46t-36.5 -66.5t-13 -81v-512z" />
<glyph unicode="&#xbb;" horiz-adv-x="819" d="M72 422l229 375l-229 362l110 70l271 -432l-271 -443zM367 422l229 375l-229 362l110 70l271 -432l-271 -443z" />
<glyph unicode="&#xbc;" horiz-adv-x="1085" d="M72 1550l94 109h164l-2 -2h2v-766h73v-129h-264v129h68v631l-43 -49zM201 0l581 1649h160l-580 -1649h-161zM563 295l271 606h110v-485h70v-121h-70v-166h70v-129h-264v129h73v166h-260zM750 416h73v170z" />
<glyph unicode="&#xbd;" horiz-adv-x="1124" d="M72 1550l94 109h164l-2 -2h2v-766h76v-129h-265v129h66v631l-43 -49zM182 0l582 1649h160l-580 -1649h-162zM662 4v59q0 61 13 110.5t34.5 91.5t48 77t53.5 68q25 31 46.5 59.5t37.5 59t25.5 66.5t9.5 79q0 45 -21.5 74.5t-52.5 29.5q-4 0 -20 -4q-18 -10 -15.5 -20.5 t10.5 -20.5l5 -4v-2l6 -8q20 -29 16 -64q0 -37 -21.5 -65.5t-56.5 -36.5q-8 -2 -24 -2q-45 4 -72 37q-23 33 -22 74q0 51 15 94t40.5 74.5t61.5 50t77 18.5t77 -17.5t61.5 -48t42 -71.5t16.5 -88q0 -59 -13.5 -107.5t-35 -89.5t-47 -75.5t-52.5 -67.5q-43 -49 -74.5 -97.5 t-44.5 -111.5h105v82h129v-203h-358z" />
<glyph unicode="&#xbe;" horiz-adv-x="1208" d="M72 1481v178h436l-184 -258q66 -29 113.5 -105t47.5 -215q0 -82 -17 -142t-45 -99t-62.5 -57.5t-71.5 -18.5q-41 0 -77 18.5t-61.5 51t-41 76.5t-15.5 94v16q0 43 29 72q27 33 74 32l22 -4q35 -10 54.5 -39.5t17.5 -68.5q0 -31 -21 -62q-8 -12 -19 -23.5t5 -27.5 q2 0 2 -1t2 -1v-2q16 -10 29 -10q23 0 48 50t25 146q0 31 -5 70t-19 72.5t-43 56.5t-74 23h-117l170 235h-73v-57h-129zM270 0l582 1649h160l-580 -1649h-162zM686 295l270 606h111v-485h70v-121h-70v-162h70v-129h-263v129h72v162h-260zM872 416h74v170z" />
<glyph unicode="&#xbf;" horiz-adv-x="851" d="M23 84q0 106 17 184t46 136.5t64.5 103.5t72.5 84l70 78t62.5 88t44 112.5t14.5 153.5l90 2q2 -111 -13.5 -190.5t-41 -139t-59.5 -104.5t-71 -86q-35 -39 -65.5 -77t-53 -85t-35.5 -109.5t-13 -150.5q0 -53 17 -100t48 -81t72 -53.5t88 -19.5q63 0 114.5 39t79.5 104 q4 14 -1 27.5t-13 29t-16.5 32t-10.5 34.5q-4 37 13.5 69t50.5 44q41 10 85 -13.5t48 -78.5q4 -80 -17.5 -153t-67.5 -129t-112.5 -92t-152.5 -42q-74 0 -138.5 29.5t-111.5 81t-75.5 121t-28.5 151.5zM360 1241q0 41 26 69.5t65 28.5q37 0 63.5 -28.5t26.5 -69.5 t-26.5 -69.5t-63.5 -28.5t-64 28.5t-27 69.5z" />
<glyph unicode="&#xc0;" horiz-adv-x="1007" d="M72 0v129h71l295 1532h137l289 -1532h72v-129h-262v129h59l-65 346h-326l-68 -346h62v-129h-264zM367 602h276l-135 727zM393 1905h129l31 -183h-86z" />
<glyph unicode="&#xc1;" horiz-adv-x="1007" d="M72 0v129h71l295 1532h137l289 -1532h72v-129h-262v129h59l-65 346h-326l-68 -346h62v-129h-264zM367 602h276l-135 727zM455 1745l32 182h127l-73 -182h-86z" />
<glyph unicode="&#xc2;" horiz-adv-x="1007" d="M72 0v129h71l295 1532h137l289 -1532h72v-129h-262v129h59l-65 346h-326l-68 -346h62v-129h-264zM145 1690l353 284l333 -293l-81 -98l-252 223l-269 -215zM367 602h276l-135 727z" />
<glyph unicode="&#xc3;" horiz-adv-x="1007" d="M72 0v129h71l295 1532h137l289 -1532h72v-129h-262v129h59l-65 346h-326l-68 -346h62v-129h-264zM168 1815q4 35 27 55q59 59 112 70.5t94 3.5q39 -8 70 -32t55 -48q31 -29 57.5 -47.5t71.5 -1.5q18 6 19.5 16t5.5 22q2 23 22 45q18 20 44 23.5t49 -10.5q6 -4 12 -13 q20 -25 18 -57q-3 -35 -26 -55q-68 -53 -120 -66.5t-92 -5.5t-70 30.5t-54 45.5q-18 18 -37.5 33.5t-40.5 19.5q-18 4 -51 -6q-12 -4 -15.5 -12t-5.5 -25q-6 -25 -22 -43q-20 -20 -46 -24t-46 12q-10 4 -15 12q-20 23 -16 58zM367 602h276l-135 727z" />
<glyph unicode="&#xc4;" horiz-adv-x="1007" d="M72 0v129h71l295 1532h137l289 -1532h72v-129h-262v129h59l-65 346h-326l-68 -346h62v-129h-264zM303 1808q0 41 26.5 70t63.5 29t63.5 -29t26.5 -70t-26.5 -69.5t-63.5 -28.5t-63.5 28.5t-26.5 69.5zM367 602h276l-135 727zM528 1808q0 41 26.5 70t63.5 29q39 0 65 -29 t26 -70t-26 -69.5t-62 -28.5h-3q-37 0 -63.5 28.5t-26.5 69.5z" />
<glyph unicode="&#xc5;" horiz-adv-x="1007" d="M72 0v129h71l283 1473q-45 23 -73.5 65.5t-28.5 95.5q0 37 14 71t38.5 58.5t57.5 39t70 14.5q76 0 128 -53.5t52 -129.5q0 -53 -26.5 -95t-71.5 -64l278 -1475h72v-129h-262v129h59l-65 346h-326l-68 -346h62v-129h-264zM367 602h276l-135 727zM434 1763q0 -29 19.5 -51 t50.5 -22t50 22.5t19 50.5q0 31 -19 52.5t-50 21.5t-50.5 -21.5t-19.5 -52.5z" />
<glyph unicode="&#xc6;" horiz-adv-x="1325" d="M72 0v129h67l566 1528h548v-203h-129v72h-268v-705h203v76h129v-264h-129v59h-203l4 -565h264v76h129v-203h-526l-2 475h-326l-129 -346h66v-129h-264zM446 602h275l-6 727z" />
<glyph unicode="&#xc7;" horiz-adv-x="837" d="M72 336v993q0 72 26.5 135.5t72.5 111.5t108.5 75.5t134.5 27.5h16q70 0 132.5 -25.5t109.5 -74.5q61 -68 90 -158q10 -41 -8 -75q-18 -41 -62 -54q-39 -12 -75.5 14.5t-45.5 65.5q-4 23 -1 36t7.5 24.5t5.5 23.5t-5 35q-66 61 -148 61h-16q-45 0 -83 -17t-66.5 -48 t-45 -72t-16.5 -86v-993q0 -47 16.5 -87t45 -71t66.5 -48t83 -17h16q70 0 123 41q16 16 19 29.5t-7 35.5q-10 33 2 66q12 41 49 61.5t78 9.5q43 -16 56.5 -57t1.5 -84q-31 -86 -98.5 -147.5t-153.5 -77.5l8 -10q16 -23 32.5 -48.5t16.5 -66.5q0 -76 -66.5 -123t-175.5 -49 q-4 0 -7 1t-7 1q-41 4 -68 33q-33 33 -28 75l6 23q12 33 43 51.5t70 13.5q37 -6 59 -26q10 -6 16.5 -14.5t14.5 -4.5l4 4l6 9q2 0 2 2t2 4q0 4 -6 13t-16 22q-12 16 -28 37.5t-26 50.5q-59 10 -110.5 41.5t-89 78t-59 104.5t-21.5 124z" />
<glyph unicode="&#xc8;" horiz-adv-x="671" d="M80 2v129h82v1401h-82v129h610v-197h-129v68h-270v-711h248v-129h-248v-565h270v70h129v-197h-528zM227 1915h129l31 -182h-86z" />
<glyph unicode="&#xc9;" horiz-adv-x="671" d="M80 2v129h82v1401h-82v129h610v-197h-129v68h-270v-711h248v-129h-248v-565h270v70h129v-197h-528zM272 1737l33 182h127l-74 -182h-86z" />
<glyph unicode="&#xca;" horiz-adv-x="829" d="M72 1806l352 285l334 -293l-82 -98l-252 223l-268 -215zM154 2v129h82v1401h-82v129h610v-197h-129v68h-270v-711h247v-129h-247v-565h270v70h129v-197h-528z" />
<glyph unicode="&#xcb;" horiz-adv-x="671" d="M80 2v129h82v1401h-82v129h610v-197h-129v68h-270v-711h248v-129h-248v-565h270v70h129v-197h-528zM133 1812q0 41 26.5 70t63.5 29t63.5 -29t26.5 -70t-26.5 -69.5t-63.5 -28.5t-63.5 29t-26.5 69zM358 1812q0 41 27 70t64 29q39 0 64.5 -29t25.5 -70t-26 -69.5 t-62 -28.5h-2q-37 0 -64 29t-27 69z" />
<glyph unicode="&#xcc;" horiz-adv-x="407" d="M72 -2v129h63v1401h-63v129h264v-129h-70v-1401h70v-129h-264zM102 1915h129l31 -182h-86z" />
<glyph unicode="&#xcd;" horiz-adv-x="407" d="M72 -2v129h63v1401h-63v129h264v-129h-70v-1401h70v-129h-264zM162 1745l33 182h127l-74 -182h-86z" />
<glyph unicode="&#xce;" horiz-adv-x="829" d="M72 1757l352 285l334 -293l-82 -98l-252 223l-268 -215zM283 -2v129h63v1401h-63v129h264v-129h-70v-1401h70v-129h-264z" />
<glyph unicode="&#xcf;" horiz-adv-x="548" d="M72 1837q0 41 26.5 69.5t63.5 28.5t63.5 -28.5t26.5 -69.5t-26.5 -69.5t-63.5 -28.5t-63.5 28.5t-26.5 69.5zM139 -2v129h64v1401h-64v129h264v-129h-69v-1401h69v-129h-264zM297 1837q0 41 26.5 69.5t63.5 28.5q39 0 64.5 -28.5t25.5 -69.5t-25.5 -69.5t-62.5 -28.5h-2 q-37 0 -63.5 28.5t-26.5 69.5z" />
<glyph unicode="&#xd0;" horiz-adv-x="901" d="M72 760v127h92v768h338q68 0 127 -26.5t104 -73t70.5 -106.5t25.5 -130v-979q0 -72 -25.5 -133.5t-69.5 -107.5t-102.5 -72.5t-123.5 -26.5h-344v760h-92zM293 131h215q39 0 73.5 16.5t60.5 44t41 66.5t15 82v979q0 43 -15 81t-42 65.5t-62.5 44t-76.5 16.5h-209v-639 h280v-127h-280v-629z" />
<glyph unicode="&#xd1;" horiz-adv-x="1024" d="M72 0v129h80v1532h151l463 -1317v1188h-76v129h262v-129h-59v-1532h-143l-467 1329v-1200h53v-129h-264zM170 1858q6 37 31 63q72 68 133 82t108 4q47 -8 82 -35.5t64 -56.5q35 -35 66.5 -55.5t82.5 -1.5q23 6 24 17t5 26q6 33 27 53q23 23 52 27t54 -13q4 -2 14 -12 q27 -31 21 -70q0 -39 -29 -63l-2 -2q-80 -61 -140.5 -78t-106.5 -6.5t-80.5 37t-61.5 53.5q-23 23 -45.5 41t-44.5 22q-25 6 -59 -8q-16 -4 -18.5 -14t-6.5 -27q-10 -35 -27 -53q-23 -23 -53.5 -27t-54.5 13l-7 7t-8 7q-25 27 -20 70z" />
<glyph unicode="&#xd2;" horiz-adv-x="843" d="M72 324v1013q0 72 26.5 134.5t72.5 108.5t108.5 72.5t134.5 26.5h16q70 0 132.5 -26.5t109.5 -72.5t73.5 -108.5t26.5 -134.5v-1013q0 -72 -26.5 -134.5t-73.5 -108.5t-109.5 -72.5t-132.5 -26.5h-16q-72 0 -134.5 26.5t-108.5 72.5t-72.5 108.5t-26.5 134.5zM201 324 q0 -45 16 -84t45 -69t68 -46t84 -16h16q45 0 84 16t67.5 46t45 69t16.5 84v1013q0 90 -61.5 151.5t-151.5 61.5h-16q-90 0 -151.5 -61.5t-61.5 -151.5v-1013zM328 1962h129l30 -182h-86z" />
<glyph unicode="&#xd3;" horiz-adv-x="843" d="M72 324v1013q0 72 26.5 134.5t72.5 108.5t108.5 72.5t134.5 26.5h16q70 0 132.5 -26.5t109.5 -72.5t73.5 -108.5t26.5 -134.5v-1013q0 -72 -26.5 -134.5t-73.5 -108.5t-109.5 -72.5t-132.5 -26.5h-16q-72 0 -134.5 26.5t-108.5 72.5t-72.5 108.5t-26.5 134.5zM201 324 q0 -45 16 -84t45 -69t68 -46t84 -16h16q45 0 84 16t67.5 46t45 69t16.5 84v1013q0 90 -61.5 151.5t-151.5 61.5h-16q-90 0 -151.5 -61.5t-61.5 -151.5v-1013zM379 1767l33 183h127l-74 -183h-86z" />
<glyph unicode="&#xd4;" horiz-adv-x="843" d="M72 324v1013q0 72 26.5 134.5t72.5 108.5t108.5 72.5t134.5 26.5h16q70 0 132.5 -26.5t109.5 -72.5t73.5 -108.5t26.5 -134.5v-1013q0 -72 -26.5 -134.5t-73.5 -108.5t-109.5 -72.5t-132.5 -26.5h-16q-72 0 -134.5 26.5t-108.5 72.5t-72.5 108.5t-26.5 134.5zM84 1804 l352 285l334 -293l-82 -98l-252 223l-268 -215zM201 324q0 -45 16 -84t45 -69t68 -46t84 -16h16q45 0 84 16t67.5 46t45 69t16.5 84v1013q0 90 -61.5 151.5t-151.5 61.5h-16q-90 0 -151.5 -61.5t-61.5 -151.5v-1013z" />
<glyph unicode="&#xd5;" horiz-adv-x="884" d="M72 324v1013q0 72 26.5 134.5t72.5 108.5t108.5 72.5t134.5 26.5h16q70 0 132.5 -26.5t109.5 -72.5t73.5 -108.5t26.5 -134.5v-1013q0 -72 -26.5 -134.5t-73.5 -108.5t-109.5 -72.5t-132.5 -26.5h-16q-72 0 -134.5 26.5t-108.5 72.5t-72.5 108.5t-26.5 134.5zM78 1847 q4 37 28 62q68 66 127.5 79t102.5 5q45 -8 77.5 -36t61.5 -54q35 -35 65.5 -54.5t77.5 -1.5q23 6 24 17.5t5 25.5q2 27 25 49q23 23 50.5 27t51.5 -12q2 0 14 -12q25 -31 19 -66q-4 -41 -27 -61q0 -1 -2 -3q-76 -59 -134 -75.5t-102 -7t-77 36t-59 51.5q-20 23 -42 40 t-45 21q-12 4 -26 1t-31 -7q-14 -6 -17 -15.5t-5 -25.5q-10 -33 -27 -51q-23 -23 -51.5 -27t-50.5 12l-7.5 7.5l-7.5 7.5q-23 27 -18 67zM201 324q0 -45 16 -84t45 -69t68 -46t84 -16h16q45 0 84 16t67.5 46t45 69t16.5 84v1013q0 90 -61.5 151.5t-151.5 61.5h-16 q-90 0 -151.5 -61.5t-61.5 -151.5v-1013z" />
<glyph unicode="&#xd6;" horiz-adv-x="843" d="M72 324v1013q0 72 26.5 134.5t72.5 108.5t108.5 72.5t134.5 26.5h16q70 0 132.5 -26.5t109.5 -72.5t73.5 -108.5t26.5 -134.5v-1013q0 -72 -26.5 -134.5t-73.5 -108.5t-109.5 -72.5t-132.5 -26.5h-16q-72 0 -134.5 26.5t-108.5 72.5t-72.5 108.5t-26.5 134.5zM201 324 q0 -45 16 -84t45 -69t68 -46t84 -16h16q45 0 84 16t67.5 46t45 69t16.5 84v1013q0 90 -61.5 151.5t-151.5 61.5h-16q-90 0 -151.5 -61.5t-61.5 -151.5v-1013zM211 1831q0 41 26.5 69.5t63.5 28.5t63.5 -28.5t26.5 -69.5t-26.5 -69.5t-63.5 -28.5t-63.5 28.5t-26.5 69.5z M436 1831q0 41 26.5 69.5t63.5 28.5q39 0 64.5 -28.5t25.5 -69.5t-25.5 -69.5t-62.5 -28.5h-2q-37 0 -63.5 28.5t-26.5 69.5z" />
<glyph unicode="&#xd7;" horiz-adv-x="702" d="M72 500l188 188l-188 189l90 92l190 -191l189 191l90 -92l-189 -189l189 -188l-90 -92l-189 190l-190 -190z" />
<glyph unicode="&#xd8;" horiz-adv-x="864" d="M72 344v907q0 70 26.5 132.5t72.5 108.5t108.5 72.5t134.5 26.5h16q53 0 102.5 -15t92.5 -44l45 139l123 -39l-68 -209q47 -76 47 -172v-907q0 -72 -26.5 -133t-72.5 -108.5t-108.5 -74t-134.5 -26.5h-16q-35 0 -69 7t-62 18l-50 -152l-122 39l59 190q-47 47 -72.5 107.5 t-25.5 132.5zM203 344q0 -23 3 -45.5t13 -42.5l365 1143q-31 29 -70 46t-84 17h-16q-45 0 -83 -16t-66.5 -46t-45 -68t-16.5 -81v-907zM322 154q39 -23 92 -23h16q45 0 84 16.5t67.5 46t46 68.5t17.5 82v823z" />
<glyph unicode="&#xd9;" horiz-adv-x="968" d="M72 1536v129h264v-129h-72v-1210q0 -90 61.5 -150.5t151.5 -60.5h17q90 0 151.5 60.5t61.5 150.5v1210h-72v129h262v-129h-61v-1210q0 -72 -27 -134.5t-74 -108.5t-109.5 -72.5t-131.5 -26.5h-17q-72 0 -134 26.5t-108.5 72.5t-73 108.5t-26.5 134.5v1210h-63zM389 1964 h129l31 -182h-86z" />
<glyph unicode="&#xda;" horiz-adv-x="968" d="M72 1536v129h264v-129h-72v-1210q0 -90 61.5 -150.5t151.5 -60.5h17q90 0 151.5 60.5t61.5 150.5v1210h-72v129h262v-129h-61v-1210q0 -72 -27 -134.5t-74 -108.5t-109.5 -72.5t-131.5 -26.5h-17q-72 0 -134 26.5t-108.5 72.5t-73 108.5t-26.5 134.5v1210h-63zM430 1774 l33 182h127l-74 -182h-86z" />
<glyph unicode="&#xdb;" horiz-adv-x="968" d="M72 1536v129h264v-129h-72v-1210q0 -90 61.5 -150.5t151.5 -60.5h17q90 0 151.5 60.5t61.5 150.5v1210h-72v129h262v-129h-61v-1210q0 -72 -27 -134.5t-74 -108.5t-109.5 -72.5t-131.5 -26.5h-17q-72 0 -134 26.5t-108.5 72.5t-73 108.5t-26.5 134.5v1210h-63zM129 1855 l352 285l334 -293l-82 -98l-252 223l-268 -215z" />
<glyph unicode="&#xdc;" horiz-adv-x="968" d="M72 1536v129h264v-129h-72v-1210q0 -90 61.5 -150.5t151.5 -60.5h17q90 0 151.5 60.5t61.5 150.5v1210h-72v129h262v-129h-61v-1210q0 -72 -27 -134.5t-74 -108.5t-109.5 -72.5t-131.5 -26.5h-17q-72 0 -134 26.5t-108.5 72.5t-73 108.5t-26.5 134.5v1210h-63zM291 1853 q0 41 26.5 70t63.5 29t63.5 -29t26.5 -70t-26.5 -69.5t-63.5 -28.5t-63.5 28.5t-26.5 69.5zM516 1853q0 41 26.5 70t63.5 29q39 0 64.5 -29t25.5 -70t-25.5 -69.5t-62.5 -28.5h-2q-37 0 -63.5 28.5t-26.5 69.5z" />
<glyph unicode="&#xdd;" horiz-adv-x="919" d="M72 1536v129h264v-129h-72l199 -657l192 657h-71v129h264v-129h-57l-261 -891v-514h70v-129h-264v129h63v510l-270 895h-57zM412 1755l32 182h127l-73 -182h-86z" />
<glyph unicode="&#xde;" horiz-adv-x="806" d="M72 -143h61v1699h-61v130h264v-130h-72v-180q74 62 170 62q61 0 116.5 -27t96.5 -73t64.5 -108.5t23.5 -133.5v-486q0 -72 -23.5 -137t-64.5 -116.5t-96 -81t-117 -29.5q-96 0 -170 61v-450h72v-129h-264v129zM264 588q0 -43 13.5 -83t37 -68.5t54 -46t65.5 -17.5 t65.5 17.5t54.5 46t38 68.5t14 83v508q0 43 -14 82t-38 67.5t-54.5 45t-65.5 16.5q-70 0 -120 -61.5t-50 -149.5v-508z" />
<glyph unicode="&#xdf;" horiz-adv-x="964" d="M72 -2v129h73v1257q0 88 44 160t124 113q86 45 182.5 40t174.5 -57q23 -16 50.5 -44.5t49 -71.5t31.5 -104.5t0 -141.5q-12 -88 -54 -149.5t-98 -100.5q20 -10 39 -24.5t39 -30.5q84 -72 125 -191.5t41 -281.5q0 -141 -29.5 -240.5t-95.5 -161.5q-41 -39 -85 -59.5 t-88 -28.5t-86 -8h-77q-29 0 -54.5 5t-47.5 28q-25 25 -27 54.5t11.5 55t41 41t62.5 13.5q39 -4 67 -29q18 -16 19.5 -28.5t23.5 -10.5q37 0 78 15.5t70 43.5q88 86 88 310q0 268 -119 374q-33 29 -66.5 43.5t-63.5 20.5t-50.5 6h-26.5h-6l-14 127h6q6 2 43 10.5t80 32 t80 67.5t47 115q18 166 -78 238q-47 31 -109.5 35t-115.5 -25q-29 -16 -62 -53t-33 -107v-1386h-204z" />
<glyph unicode="&#xe0;" horiz-adv-x="817" d="M72 326v137q0 70 23.5 132t64.5 108.5t96 74t117 27.5q49 0 99 -23.5t77 -64.5v231q0 35 -15.5 63.5t-40 46t-57.5 20.5t-65 -11q-20 -18 -14.5 -32.5t12.5 -28.5q16 -39 9 -70t-28.5 -51.5t-51.5 -28.5t-56.5 0t-46 35t-19.5 74q0 49 20.5 94t55.5 78.5t81 54t101 20.5 q51 0 95 -21.5t78 -57t53.5 -84t19.5 -101.5l-2 -819h67v-129h-196v66q-31 -41 -79 -62.5t-97 -21.5q-61 0 -116.5 27.5t-96.5 73.5t-64.5 108.5t-23.5 134.5zM203 326q0 -43 13 -82t36.5 -68t54.5 -46t66 -17t65.5 17t54 46t38 68t14.5 82v137q0 43 -14.5 81t-38 67.5 t-54 46t-65.5 16.5t-66 -16.5t-54.5 -46t-36.5 -67.5t-13 -81v-137zM313 1473h129l31 -183h-86z" />
<glyph unicode="&#xe1;" horiz-adv-x="817" d="M72 326v137q0 70 23.5 132t64.5 108.5t96 74t117 27.5q49 0 99 -23.5t77 -64.5v231q0 35 -15.5 63.5t-40 46t-57.5 20.5t-65 -11q-20 -18 -14.5 -32.5t12.5 -28.5q16 -39 9 -70t-28.5 -51.5t-51.5 -28.5t-56.5 0t-46 35t-19.5 74q0 49 20.5 94t55.5 78.5t81 54t101 20.5 q51 0 95 -21.5t78 -57t53.5 -84t19.5 -101.5l-2 -819h67v-129h-196v66q-31 -41 -79 -62.5t-97 -21.5q-61 0 -116.5 27.5t-96.5 73.5t-64.5 108.5t-23.5 134.5zM203 326q0 -43 13 -82t36.5 -68t54.5 -46t66 -17t65.5 17t54 46t38 68t14.5 82v137q0 43 -14.5 81t-38 67.5 t-54 46t-65.5 16.5t-66 -16.5t-54.5 -46t-36.5 -67.5t-13 -81v-137zM356 1294l33 183h127l-74 -183h-86z" />
<glyph unicode="&#xe2;" horiz-adv-x="817" d="M72 326v137q0 70 23.5 132t64.5 108.5t96 74t117 27.5q49 0 99 -23.5t77 -64.5v231q0 35 -15.5 63.5t-40 46t-57.5 20.5t-65 -11q-20 -18 -14.5 -32.5t12.5 -28.5q16 -39 9 -70t-28.5 -51.5t-51.5 -28.5t-56.5 0t-46 35t-19.5 74q0 49 20.5 94t55.5 78.5t81 54t101 20.5 q51 0 95 -21.5t78 -57t53.5 -84t19.5 -101.5l-2 -819h67v-129h-196v66q-31 -41 -79 -62.5t-97 -21.5q-61 0 -116.5 27.5t-96.5 73.5t-64.5 108.5t-23.5 134.5zM162 1315l278 225l267 -231l-66 -80l-201 178l-213 -170zM203 326q0 -43 13 -82t36.5 -68t54.5 -46t66 -17 t65.5 17t54 46t38 68t14.5 82v137q0 43 -14.5 81t-38 67.5t-54 46t-65.5 16.5t-66 -16.5t-54.5 -46t-36.5 -67.5t-13 -81v-137z" />
<glyph unicode="&#xe3;" horiz-adv-x="817" d="M72 326v137q0 70 23.5 132t64.5 108.5t96 74t117 27.5q49 0 99 -23.5t77 -64.5v231q0 35 -15.5 63.5t-40 46t-57.5 20.5t-65 -11q-20 -18 -14.5 -32.5t12.5 -28.5q16 -39 9 -70t-28.5 -51.5t-51.5 -28.5t-56.5 0t-46 35t-19.5 74q0 49 20.5 94t55.5 78.5t81 54t101 20.5 q51 0 95 -21.5t78 -57t53.5 -84t19.5 -101.5l-2 -819h67v-129h-196v66q-31 -41 -79 -62.5t-97 -21.5q-61 0 -116.5 27.5t-96.5 73.5t-64.5 108.5t-23.5 134.5zM123 1389q4 29 22 47q53 49 99.5 59t81.5 4t60.5 -26.5t47.5 -40.5q29 -27 51.5 -42.5t61.5 -0.5q16 4 16 13 t4 19q2 10 7.5 19.5t11.5 19.5q18 16 40.5 19.5t39.5 -9.5q4 -2 12 -10q20 -20 14 -51q0 -12 -5 -24.5t-15 -20.5l-2 -2q-59 -45 -104.5 -57.5t-79 -5t-59.5 28t-46 38.5q-16 16 -33.5 29.5t-36.5 17.5q-18 2 -43 -6q-10 -4 -13 -11t-5 -20q-8 -27 -21 -39 q-16 -16 -38.5 -19t-40.5 9q-4 2 -5.5 4t-5.5 6q-16 18 -16 52zM203 326q0 -43 13 -82t36.5 -68t54.5 -46t66 -17t65.5 17t54 46t38 68t14.5 82v137q0 43 -14.5 81t-38 67.5t-54 46t-65.5 16.5t-66 -16.5t-54.5 -46t-36.5 -67.5t-13 -81v-137z" />
<glyph unicode="&#xe4;" horiz-adv-x="817" d="M72 326v137q0 70 23.5 132t64.5 108.5t96 74t117 27.5q49 0 99 -23.5t77 -64.5v231q0 35 -15.5 63.5t-40 46t-57.5 20.5t-65 -11q-20 -18 -14.5 -32.5t12.5 -28.5q16 -39 9 -70t-28.5 -51.5t-51.5 -28.5t-56.5 0t-46 35t-19.5 74q0 49 20.5 94t55.5 78.5t81 54t101 20.5 q51 0 95 -21.5t78 -57t53.5 -84t19.5 -101.5l-2 -819h67v-129h-196v66q-31 -41 -79 -62.5t-97 -21.5q-61 0 -116.5 27.5t-96.5 73.5t-64.5 108.5t-23.5 134.5zM203 326q0 -43 13 -82t36.5 -68t54.5 -46t66 -17t65.5 17t54 46t38 68t14.5 82v137q0 43 -14.5 81t-38 67.5 t-54 46t-65.5 16.5t-66 -16.5t-54.5 -46t-36.5 -67.5t-13 -81v-137zM233 1376q0 41 27 70t64 29t63.5 -29t26.5 -70t-27 -69.5t-63 -28.5q-37 0 -64 28.5t-27 69.5zM459 1376q0 41 26.5 70t63.5 29q39 0 64.5 -29t25.5 -70t-25.5 -69.5t-62.5 -28.5h-2q-37 0 -63.5 28.5 t-26.5 69.5z" />
<glyph unicode="&#xe5;" horiz-adv-x="817" d="M72 326v137q0 70 23.5 132t64.5 108.5t96 74t117 27.5q49 0 99 -23.5t77 -64.5v231q0 35 -15.5 63.5t-40 46t-57.5 20.5t-65 -11q-20 -18 -14.5 -32.5t12.5 -28.5q16 -39 9 -70t-28.5 -51.5t-51.5 -28.5t-56.5 0t-46 35t-19.5 74q0 49 20.5 94t55.5 78.5t81 54t101 20.5 q51 0 95 -21.5t78 -57t53.5 -84t19.5 -101.5l-2 -819h67v-129h-196v66q-31 -41 -79 -62.5t-97 -21.5q-61 0 -116.5 27.5t-96.5 73.5t-64.5 108.5t-23.5 134.5zM203 326q0 -43 13 -82t36.5 -68t54.5 -46t66 -17t65.5 17t54 46t38 68t14.5 82v137q0 43 -14.5 81t-38 67.5 t-54 46t-65.5 16.5t-66 -16.5t-54.5 -46t-36.5 -67.5t-13 -81v-137zM252 1417q0 37 14.5 71t39 58.5t57 38.5t69.5 14q76 0 128 -53t52 -129q0 -74 -52 -127t-128 -53q-37 0 -69.5 14.5t-57 39t-39 57t-14.5 69.5zM362 1417q0 -29 19.5 -51.5t50.5 -22.5t50.5 23t19.5 51 q0 31 -19.5 52.5t-50.5 21.5t-50.5 -21.5t-19.5 -52.5z" />
<glyph unicode="&#xe6;" horiz-adv-x="1214" d="M72 344v145q0 70 23.5 132.5t64.5 108.5t96 73.5t117 27.5q90 0 168 -61q2 25 4 47q2 20 3 45t1 51v17q0 55 -35 93t-86 42q-20 0 -45 -10l-2 -2q-2 0 -10 -4q-20 -12 -14.5 -27.5t10.5 -30.5q10 -27 4 -65q-10 -35 -37 -58.5t-62 -25.5q-4 0 -10 1t-12 1q-43 12 -64 51 q-16 37 -8 74q4 45 25.5 86t53.5 71.5t75 48t90 19.5h12q59 -4 109.5 -32.5t83.5 -76.5q41 51 96 80t119 29q61 0 116.5 -28.5t96.5 -77t64.5 -114t23.5 -138.5v-242h-463l-4 -291q16 -72 62 -121t104 -49q41 0 75.5 23.5t57.5 62.5q2 0 2 2l6 10q10 23 3 31t-15 19 q-23 27 -25 61q-4 39 14.5 69.5t53.5 41.5l22 6q45 4 76 -31q27 -27 31 -70v-26q-4 -70 -30 -130.5t-66.5 -105.5t-93 -70.5t-111.5 -25.5q-47 0 -89 15.5t-77 43.5v-59h-127v63q-37 -29 -82 -46t-94 -17q-61 0 -116.5 27.5t-96.5 73.5t-64.5 108.5t-23.5 134.5zM203 344 q0 -43 13 -82t36.5 -67.5t54.5 -46t66 -17.5q33 0 62.5 15.5t53 41t38 60.5t18.5 74q2 27 2 62.5t-2 66.5q-2 37 -4 73q-10 76 -58.5 126t-109.5 50q-35 0 -66 -16t-54.5 -46t-36.5 -68t-13 -81v-145zM680 725h334v111q0 45 -14.5 86t-38 71.5t-54 49t-65.5 18.5 q-55 0 -100.5 -45t-61.5 -117v-174z" />
<glyph unicode="&#xe7;" horiz-adv-x="702" d="M72 334v524q0 74 23.5 138.5t64.5 112.5t96 75.5t117 27.5q68 0 131 -31.5t100 -97.5q27 -47 17.5 -87t-37 -61.5t-65.5 -17t-70 45.5q-20 29 -23 61q-2 12 -2 23.5t-3 19.5t-13.5 12t-34.5 4q-35 0 -66 -18t-54.5 -49t-36.5 -72t-13 -86v-524q0 -45 13 -86t36.5 -72 t54.5 -49t66 -18q18 0 26 2q16 4 20.5 19t4.5 38q2 33 25 61q20 27 48.5 36t56.5 3t49.5 -27.5t25.5 -58.5q0 -74 -56.5 -125t-134.5 -67q4 -8 10.5 -14.5t12.5 -14.5q16 -23 32.5 -48.5t16.5 -66.5q0 -76 -66.5 -123t-175.5 -49q-4 0 -7 1t-7 1q-41 4 -68 33q-33 33 -28 76 l6 22q12 33 43 51.5t69 14.5q37 -6 60 -27q10 -6 16 -14t15 -4l4 4l6 8q2 0 2 2t2 4q0 4 -6 13.5t-17 21.5q-16 18 -33.5 45t-27.5 68q-49 14 -90 46t-71 76t-47 100t-17 118z" />
<glyph unicode="&#xe8;" d="M72 340v514q0 74 23.5 139.5t64.5 113.5t96 76.5t117 28.5q61 0 116.5 -28.5t96.5 -76.5t64.5 -113.5t23.5 -139.5v-242h-471v-272q0 -47 13 -88t36.5 -71.5t54.5 -48t66 -17.5q27 0 57.5 13t52 34.5t28.5 49.5t-13 56q-20 31 -21 64q-2 33 14.5 58.5t42 39.5t55 11 t56.5 -29q27 -29 29 -86q-2 -72 -26.5 -134.5t-65.5 -109.5t-94.5 -73.5t-114.5 -26.5t-116.5 28.5t-96.5 76.5t-64.5 113.5t-23.5 139.5zM203 743h342v111q0 45 -14.5 86t-38 71.5t-54 49t-65.5 18.5t-66 -18.5t-54.5 -49t-36.5 -71.5t-13 -86v-111zM287 1468h129l30 -182 h-86z" />
<glyph unicode="&#xe9;" d="M72 340v514q0 74 23.5 139.5t64.5 113.5t96 76.5t117 28.5q61 0 116.5 -28.5t96.5 -76.5t64.5 -113.5t23.5 -139.5v-242h-471v-272q0 -47 13 -88t36.5 -71.5t54.5 -48t66 -17.5q27 0 57.5 13t52 34.5t28.5 49.5t-13 56q-20 31 -21 64q-2 33 14.5 58.5t42 39.5t55 11 t56.5 -29q27 -29 29 -86q-2 -72 -26.5 -134.5t-65.5 -109.5t-94.5 -73.5t-114.5 -26.5t-116.5 28.5t-96.5 76.5t-64.5 113.5t-23.5 139.5zM203 743h342v111q0 45 -14.5 86t-38 71.5t-54 49t-65.5 18.5t-66 -18.5t-54.5 -49t-36.5 -71.5t-13 -86v-111zM299 1296l33 183h127 l-74 -183h-86z" />
<glyph unicode="&#xea;" d="M72 340v514q0 74 23.5 139.5t64.5 113.5t96 76.5t117 28.5q61 0 116.5 -28.5t96.5 -76.5t64.5 -113.5t23.5 -139.5v-242h-471v-272q0 -47 13 -88t36.5 -71.5t54.5 -48t66 -17.5q27 0 57.5 13t52 34.5t28.5 49.5t-13 56q-20 31 -21 64q-2 33 14.5 58.5t42 39.5t55 11 t56.5 -29q27 -29 29 -86q-2 -72 -26.5 -134.5t-65.5 -109.5t-94.5 -73.5t-114.5 -26.5t-116.5 28.5t-96.5 76.5t-64.5 113.5t-23.5 139.5zM109 1315l278 225l266 -231l-65 -80l-201 178l-213 -170zM203 743h342v111q0 45 -14.5 86t-38 71.5t-54 49t-65.5 18.5t-66 -18.5 t-54.5 -49t-36.5 -71.5t-13 -86v-111z" />
<glyph unicode="&#xeb;" d="M72 340v514q0 74 23.5 139.5t64.5 113.5t96 76.5t117 28.5q61 0 116.5 -28.5t96.5 -76.5t64.5 -113.5t23.5 -139.5v-242h-471v-272q0 -47 13 -88t36.5 -71.5t54.5 -48t66 -17.5q27 0 57.5 13t52 34.5t28.5 49.5t-13 56q-20 31 -21 64q-2 33 14.5 58.5t42 39.5t55 11 t56.5 -29q27 -29 29 -86q-2 -72 -26.5 -134.5t-65.5 -109.5t-94.5 -73.5t-114.5 -26.5t-116.5 28.5t-96.5 76.5t-64.5 113.5t-23.5 139.5zM170 1384q0 41 26.5 70t63.5 29t63.5 -29t26.5 -70t-26.5 -69.5t-63.5 -28.5t-63.5 28.5t-26.5 69.5zM203 743h342v111q0 45 -14.5 86 t-38 71.5t-54 49t-65.5 18.5t-66 -18.5t-54.5 -49t-36.5 -71.5t-13 -86v-111zM395 1384q0 41 26.5 70t63.5 29q39 0 64.5 -29t25.5 -70t-25.5 -69.5t-62.5 -28.5h-2q-37 0 -63.5 28.5t-26.5 69.5z" />
<glyph unicode="&#xec;" horiz-adv-x="407" d="M76 0v129h69v944h-67v129h264v-129h-66v-944h64v-129h-264zM96 1477h129l31 -183h-86z" />
<glyph unicode="&#xed;" horiz-adv-x="407" d="M76 0v129h69v944h-67v129h264v-129h-66v-944h64v-129h-264zM162 1294l33 183h127l-74 -183h-86z" />
<glyph unicode="&#xee;" horiz-adv-x="688" d="M68 1337l278 226l266 -232l-65 -80l-201 179l-213 -170zM219 0v129h70v944h-68v129h264v-129h-65v-944h63v-129h-264z" />
<glyph unicode="&#xef;" horiz-adv-x="548" d="M72 1380q0 41 26.5 70t63.5 29t63.5 -29t26.5 -70t-26.5 -69.5t-63.5 -28.5t-63.5 28.5t-26.5 69.5zM143 0v129h70v944h-68v129h265v-129h-66v-944h64v-129h-265zM297 1380q0 41 26.5 70t63.5 29q39 0 64.5 -29t25.5 -70t-25.5 -69.5t-62.5 -28.5h-2q-37 0 -63.5 28.5 t-26.5 69.5z" />
<glyph unicode="&#xf0;" horiz-adv-x="778" d="M72 346v373q0 72 25.5 134t68.5 108.5t100.5 73t122.5 26.5q53 0 100.5 -17.5t88.5 -48.5v258q0 70 -36 125.5t-91 75.5v-205h-132v203q-55 -25 -88 -86q-6 -12 -2 -22.5t15 -22.5q20 -25 24 -59q4 -37 -13 -69t-50 -44l-23 -6q-43 -2 -76 26q-29 29 -34 70v14 q0 61 18.5 116.5t52 99.5t78.5 75t98 43v172h132v-170q55 -10 101 -40.5t81 -76t54.5 -101.5t19.5 -118v-907q0 -72 -26 -134t-69 -108.5t-100 -73t-123 -26.5t-123 26.5t-100 73t-68.5 108.5t-25.5 134zM203 362q0 -43 14 -81.5t40 -67.5t59.5 -45t72.5 -16t73 16t59.5 45 t41 67.5t15.5 81.5v357q0 45 -15.5 84t-41 67.5t-59.5 46t-73 17.5t-72.5 -17.5t-59.5 -46t-40 -67.5t-14 -84v-357z" />
<glyph unicode="&#xf1;" horiz-adv-x="884" d="M72 0v129h73v934h-73v129h202v-2h2v-62q25 35 74 58.5t96 23.5q61 0 116.5 -26.5t96.5 -72.5t65 -108.5t24 -134.5v-739h65v-129h-264v129h69v739q0 43 -14 83t-37.5 69t-54.5 46t-66 17t-65.5 -17t-54 -46t-37 -69t-13.5 -83v-739h60v-129h-264zM76 1368q6 35 26 57 q63 61 117.5 73.5t95.5 4.5t72 -32.5t57 -51.5q33 -31 59.5 -49t71.5 -2q20 6 21.5 16.5t5.5 24.5q2 25 23 47q20 23 45.5 26t48.5 -14q6 -4 12 -12q25 -27 19 -61q-4 -39 -25 -58l-2 -2q-70 -55 -123 -70.5t-94 -6t-70.5 34t-54.5 48.5q-20 20 -39.5 37t-42.5 21 q-25 4 -51 -8q-12 -4 -15.5 -13.5t-7.5 -23.5q-6 -31 -22 -47q-20 -20 -46 -25.5t-48 10.5q-8 6 -15 15q-10 12 -14 28.5t-4 32.5z" />
<glyph unicode="&#xf2;" d="M72 322v552q0 70 23.5 131.5t64.5 107.5t96.5 72.5t116.5 26.5t116.5 -26.5t96.5 -72.5t64.5 -107.5t23.5 -131.5v-552q0 -72 -23.5 -133.5t-64.5 -107.5t-96.5 -72.5t-116.5 -26.5t-116.5 26.5t-96.5 72.5t-64.5 107.5t-23.5 133.5zM203 322q0 -43 13 -82t36.5 -68 t54.5 -46t66 -17t65.5 17t54 46t38 68t14.5 82v552q0 43 -14.5 81t-38 67t-54 46t-65.5 17t-66 -17t-54.5 -46t-36.5 -66.5t-13 -81.5v-552zM272 1468h129l31 -182h-86z" />
<glyph unicode="&#xf3;" d="M72 322v552q0 70 23.5 131.5t64.5 107.5t96.5 72.5t116.5 26.5t116.5 -26.5t96.5 -72.5t64.5 -107.5t23.5 -131.5v-552q0 -72 -23.5 -133.5t-64.5 -107.5t-96.5 -72.5t-116.5 -26.5t-116.5 26.5t-96.5 72.5t-64.5 107.5t-23.5 133.5zM203 322q0 -43 13 -82t36.5 -68 t54.5 -46t66 -17t65.5 17t54 46t38 68t14.5 82v552q0 43 -14.5 81t-38 67t-54 46t-65.5 17t-66 -17t-54.5 -46t-36.5 -66.5t-13 -81.5v-552zM309 1286l33 182h127l-74 -182h-86z" />
<glyph unicode="&#xf4;" horiz-adv-x="829" d="M72 1323l352 285l334 -293l-82 -98l-252 223l-268 -215zM111 322v552q0 70 23.5 131.5t64.5 107.5t96.5 72.5t116.5 26.5t116.5 -26.5t96.5 -72.5t64.5 -107.5t23.5 -131.5v-552q0 -72 -23.5 -133.5t-64.5 -107.5t-96.5 -72.5t-116.5 -26.5t-116.5 26.5t-96.5 72.5 t-64.5 107.5t-23.5 133.5zM242 322q0 -43 13 -82t36.5 -68t54.5 -46t66 -17t65.5 17t54 46t38 68t14.5 82v552q0 43 -14.5 81t-38 67t-54.5 46t-65 17q-35 0 -66 -17t-54.5 -46t-36.5 -66.5t-13 -81.5v-552z" />
<glyph unicode="&#xf5;" horiz-adv-x="821" d="M68 1362q6 35 26 57q63 61 117.5 73.5t95.5 4.5t72 -32.5t57 -51.5q33 -31 59.5 -49t71.5 -2q20 6 21.5 16.5t5.5 24.5q2 25 22 47q20 23 46 26t49 -14q6 -4 12 -12q25 -27 18 -61q-4 -39 -24 -58l-2 -2q-70 -55 -123 -70.5t-94 -6t-71 34t-54 48.5q-20 20 -40 37t-42 21 q-25 4 -51 -9q-12 -4 -15.5 -13t-7.5 -23q-6 -31 -22 -48q-20 -20 -46 -25t-49 11q-8 6 -14 14q-10 12 -14 29t-4 33zM92 322v552q0 70 23.5 131.5t64.5 107.5t96.5 72.5t116.5 26.5t116.5 -26.5t96.5 -72.5t64.5 -107.5t23.5 -131.5v-552q0 -72 -23.5 -133.5t-64.5 -107.5 t-96 -72.5t-117 -26.5q-61 0 -116.5 26.5t-96.5 72.5t-64.5 107.5t-23.5 133.5zM223 322q0 -43 13.5 -82t37 -68t54 -46t65.5 -17t65.5 17t54.5 46t38 68t14 82v552q0 43 -14 81t-38 67t-54.5 46t-65.5 17t-65.5 -17t-54 -46t-37 -66.5t-13.5 -81.5v-552z" />
<glyph unicode="&#xf6;" d="M72 322v552q0 70 23.5 131.5t64.5 107.5t96.5 72.5t116.5 26.5t116.5 -26.5t96.5 -72.5t64.5 -107.5t23.5 -131.5v-552q0 -72 -23.5 -133.5t-64.5 -107.5t-96.5 -72.5t-116.5 -26.5t-116.5 26.5t-96.5 72.5t-64.5 107.5t-23.5 133.5zM190 1384q0 41 27 70t64 29t63.5 -29 t26.5 -70t-27 -69.5t-63 -28.5q-37 0 -64 28.5t-27 69.5zM203 322q0 -43 13 -82t36.5 -68t54.5 -46t66 -17t65.5 17t54 46t38 68t14.5 82v552q0 43 -14.5 81t-38 67t-54 46t-65.5 17t-66 -17t-54.5 -46t-36.5 -66.5t-13 -81.5v-552zM416 1384q0 41 26.5 70t63.5 29 q39 0 64.5 -29t25.5 -70t-25.5 -69.5t-62.5 -28.5h-2q-37 0 -63.5 28.5t-26.5 69.5z" />
<glyph unicode="&#xf7;" horiz-adv-x="806" d="M72 674v127h663v-127h-663zM332 492q0 29 21 50t50 21t50.5 -21.5t21.5 -49.5q0 -29 -21.5 -50.5t-50.5 -21.5t-50 21.5t-21 50.5zM332 1004q0 29 21.5 49t49.5 20q29 0 50.5 -20.5t21.5 -48.5q0 -33 -21.5 -53.5t-50.5 -20.5t-50 20.5t-21 53.5z" />
<glyph unicode="&#xf8;" d="M72 319v447q0 72 23.5 134.5t64.5 108.5t95 72.5t116 26.5q49 0 92 -16l37 116l123 -39l-48 -151q45 -47 72 -112.5t27 -139.5v-447q0 -72 -23.5 -133t-64.5 -108t-96.5 -74t-118.5 -27q-57 0 -117 27l-47 -147l-123 41l63 196q-35 47 -55 103.5t-20 121.5zM203 298 q0 -11 2 -24l219 695q-27 10 -53 10q-35 0 -65 -16.5t-53.5 -46t-36.5 -68.5t-13 -82v-447v-21zM295 131q31 -23 76 -22q35 0 66.5 16t55 46t37 67.5t13.5 80.5v447q0 51 -17 94z" />
<glyph unicode="&#xf9;" horiz-adv-x="880" d="M72 1063v129h264v-129h-70v-739q0 -88 50.5 -149.5t119.5 -61.5q35 0 65.5 16t54.5 45t38 68t14 82v739h-63v129h264v-129h-72v-932h70v-129l-199 -2v43q-37 -29 -81 -45t-91 -16q-61 0 -116.5 27.5t-96.5 73.5t-64.5 108.5t-23.5 132.5v739h-63zM326 1473h129l30 -183 h-86z" />
<glyph unicode="&#xfa;" horiz-adv-x="880" d="M72 1063v129h264v-129h-70v-739q0 -88 50.5 -149.5t119.5 -61.5q35 0 65.5 16t54.5 45t38 68t14 82v739h-63v129h264v-129h-72v-932h70v-129l-199 -2v43q-37 -29 -81 -45t-91 -16q-61 0 -116.5 27.5t-96.5 73.5t-64.5 108.5t-23.5 132.5v739h-63zM379 1288l33 182h127 l-74 -182h-86z" />
<glyph unicode="&#xfb;" horiz-adv-x="880" d="M72 1063v129h264v-129h-70v-739q0 -88 50.5 -149.5t119.5 -61.5q35 0 65.5 16t54.5 45t38 68t14 82v739h-63v129h264v-129h-72v-932h70v-129l-199 -2v43q-37 -29 -81 -45t-91 -16q-61 0 -116.5 27.5t-96.5 73.5t-64.5 108.5t-23.5 132.5v739h-63zM82 1386l352 285 l334 -293l-82 -98l-252 223l-268 -215z" />
<glyph unicode="&#xfc;" horiz-adv-x="880" d="M72 1063v129h264v-129h-70v-739q0 -88 50.5 -149.5t119.5 -61.5q35 0 65.5 16t54.5 45t38 68t14 82v739h-63v129h264v-129h-72v-932h70v-129l-199 -2v43q-37 -29 -81 -45t-91 -16q-61 0 -116.5 27.5t-96.5 73.5t-64.5 108.5t-23.5 132.5v739h-63zM248 1384q0 41 26.5 70 t63.5 29t63.5 -29t26.5 -70t-26.5 -69.5t-63.5 -28.5t-63.5 28.5t-26.5 69.5zM473 1384q0 41 26.5 70t63.5 29q39 0 64.5 -29t25.5 -70t-25.5 -69.5t-62.5 -28.5h-2q-37 0 -63.5 28.5t-26.5 69.5z" />
<glyph unicode="&#xfd;" horiz-adv-x="878" d="M72 1065v129h264v-129h-72v-741q0 -43 13.5 -83t37 -69t54 -46t65.5 -17t65.5 17t54.5 46t38 69t14 83v741h-63v129h264v-129h-72v-1065q0 -74 -23.5 -137.5t-64.5 -111.5t-96.5 -75.5t-116.5 -27.5q-31 0 -67.5 9t-70.5 27.5t-58.5 46t-30.5 62.5q-6 47 20 78q4 4 8.5 8 t10.5 8q29 20 63.5 17.5t63.5 -27.5q27 -20 37 -53v-2q4 -12 5 -27.5t23 -15.5q39 0 70 20.5t52.5 53t32.5 71.5t13 76v61q-35 -47 -80 -63t-92 -16q-61 0 -116.5 26.5t-96.5 72.5t-64.5 108.5t-23.5 134.5v741h-61zM408 1286l32 182h127l-73 -182h-86z" />
<glyph unicode="&#xfe;" horiz-adv-x="806" d="M72 -217h61v1528h-61v129h264v-129h-72v-181q74 62 170 62q61 0 116.5 -26.5t96.5 -72.5t64.5 -108.5t23.5 -134.5v-485q0 -72 -23.5 -137.5t-64.5 -117t-96 -81t-117 -29.5q-96 0 -170 61v-278h72v-129h-264v129zM264 342q0 -43 13.5 -83t37 -68.5t54 -46t65.5 -17.5 t65.5 17.5t54.5 46t38 68.5t14 83v508q0 43 -14 82t-38 67.5t-54.5 45t-65.5 16.5q-70 0 -120 -61.5t-50 -149.5v-508z" />
<glyph unicode="&#xff;" horiz-adv-x="878" d="M72 1065v129h264v-129h-72v-741q0 -43 13.5 -83t37 -69t54 -46t65.5 -17t65.5 17t54.5 46t38 69t14 83v741h-63v129h264v-129h-72v-1065q0 -74 -23.5 -137.5t-64.5 -111.5t-96.5 -75.5t-116.5 -27.5q-31 0 -67.5 9t-70.5 27.5t-58.5 46t-30.5 62.5q-6 47 20 78q4 4 8.5 8 t10.5 8q29 20 63.5 17.5t63.5 -27.5q27 -20 37 -53v-2q4 -12 5 -27.5t23 -15.5q39 0 70 20.5t52.5 53t32.5 71.5t13 76v61q-35 -47 -80 -63t-92 -16q-61 0 -116.5 26.5t-96.5 72.5t-64.5 108.5t-23.5 134.5v741h-61zM246 1382q0 41 26.5 70t63.5 29t63.5 -29t26.5 -70 t-26.5 -69.5t-63.5 -28.5t-63.5 28.5t-26.5 69.5zM471 1382q0 41 26.5 70t63.5 29q39 0 64.5 -29t25.5 -70t-25.5 -69.5t-62.5 -28.5h-2q-37 0 -63.5 28.5t-26.5 69.5z" />
<glyph unicode="&#x152;" horiz-adv-x="1261" d="M72 344v971q0 70 26.5 132t72.5 109.5t107.5 74t133.5 26.5h18q59 0 111.5 -19.5t97.5 -52.5v74h551v-203h-129v72h-293l4 -705h182v68h129v-262h-129v65h-182l-4 -565h293v76h129v-203h-551v72q-45 -35 -97.5 -53.5t-111.5 -18.5h-18q-72 0 -133.5 26.5t-107.5 72.5 t-72.5 108.5t-26.5 134.5zM201 344q0 -45 16 -84t45 -68.5t68 -46t82 -16.5h18q78 0 135.5 48t73.5 120v1061q-16 72 -73.5 120t-135.5 48h-18q-43 0 -82 -16.5t-68 -45t-45 -67.5t-16 -82v-971z" />
<glyph unicode="&#x153;" horiz-adv-x="1214" d="M72 344v510q0 70 23.5 132.5t64.5 108.5t96 72.5t117 26.5q72 0 133 -36t104 -95q41 61 100.5 97t131.5 36q61 0 116.5 -28.5t96.5 -77t64.5 -114t23.5 -138.5v-242h-469v-270q10 -80 57 -135.5t111 -55.5q41 0 77.5 25.5t59.5 66.5q12 23 7 34t-15 24q-20 25 -25 61 q-4 37 14.5 67.5t51.5 43.5q16 4 22 4q43 4 76 -29q29 -31 33 -70v-18q-4 -72 -28.5 -134.5t-64.5 -108.5t-93.5 -72.5t-114.5 -26.5q-72 0 -131.5 36t-100.5 97q-43 -59 -104.5 -95t-132.5 -36q-61 0 -116.5 26.5t-96.5 73t-64.5 108.5t-23.5 132zM203 344q0 -43 13 -81 t36.5 -66.5t54.5 -46t66 -17.5q33 0 62.5 15.5t53 41t38 60.5t18.5 74q4 55 6 131.5t2 154.5t-2 148.5t-6 115.5q-4 39 -18.5 75t-38 61.5t-53 41t-62.5 15.5q-35 0 -66 -17.5t-54.5 -46t-36.5 -67.5t-13 -82v-510zM674 727h340v111q0 45 -14.5 86t-38 71.5t-54 49 t-65.5 18.5q-63 0 -110.5 -54.5t-57.5 -136.5v-145z" />
<glyph unicode="&#x178;" horiz-adv-x="919" d="M72 1536v129h264v-129h-72l199 -657l192 657h-71v129h264v-129h-57l-261 -891v-514h70v-129h-264v129h63v510l-270 895h-57zM272 1837q0 41 26.5 69.5t63.5 28.5t64 -28.5t27 -69.5t-27 -69.5t-64 -28.5t-63.5 28.5t-26.5 69.5zM498 1837q0 41 26.5 69.5t63.5 28.5 q39 0 64.5 -28.5t25.5 -69.5t-25.5 -69.5t-62.5 -28.5h-2q-37 0 -63.5 28.5t-26.5 69.5z" />
<glyph unicode="&#x2c6;" horiz-adv-x="829" d="M72 1397l352 284l334 -292l-82 -99l-252 223l-268 -215z" />
<glyph unicode="&#x2dc;" horiz-adv-x="1069" d="M74 1442q6 43 37 69q43 37 82.5 58.5t76.5 32t70 10.5t61 -4q55 -10 98.5 -41t78.5 -62q43 -39 80.5 -61.5t99.5 -1.5q27 8 28.5 20.5t6.5 28.5q6 33 30 57q29 27 65 31t64 -14q6 -2 19 -15q31 -35 24 -75q-2 -20 -10 -39t-24 -31q-1 0 -3 -2q-96 -68 -168.5 -86.5 t-128 -8t-97.5 41t-75 59.5q-27 25 -54 45.5t-56 24.5q-27 6 -72 -9q-16 -6 -20 -17t-8 -30q-10 -35 -33 -57q-29 -25 -65 -30t-64 14l-19 16q-29 31 -24 76z" />
<glyph unicode="&#x2000;" horiz-adv-x="1070" />
<glyph unicode="&#x2001;" horiz-adv-x="2140" />
<glyph unicode="&#x2002;" horiz-adv-x="1070" />
<glyph unicode="&#x2003;" horiz-adv-x="2140" />
<glyph unicode="&#x2004;" horiz-adv-x="713" />
<glyph unicode="&#x2005;" horiz-adv-x="535" />
<glyph unicode="&#x2006;" horiz-adv-x="356" />
<glyph unicode="&#x2007;" horiz-adv-x="356" />
<glyph unicode="&#x2008;" horiz-adv-x="267" />
<glyph unicode="&#x2009;" horiz-adv-x="428" />
<glyph unicode="&#x200a;" horiz-adv-x="118" />
<glyph unicode="&#x2010;" horiz-adv-x="768" d="M72 760v127h624v-127h-624z" />
<glyph unicode="&#x2011;" horiz-adv-x="768" d="M72 760v127h624v-127h-624z" />
<glyph unicode="&#x2012;" horiz-adv-x="768" d="M72 760v127h624v-127h-624z" />
<glyph unicode="&#x2013;" horiz-adv-x="933" d="M72 760v127h790v-127h-790z" />
<glyph unicode="&#x2014;" horiz-adv-x="1325" d="M72 770v129h1181v-129h-1181z" />
<glyph unicode="&#x2018;" horiz-adv-x="325" d="M74 1548v72q2 25 12 45q10 16 30.5 31.5t61.5 15.5v-43q-8 0 -14 -2q-12 -2 -19 -22q6 2 19 2q37 0 63.5 -29t26.5 -70t-26.5 -68.5t-63.5 -29.5q-37 0 -63.5 28.5t-26.5 69.5z" />
<glyph unicode="&#x2019;" horiz-adv-x="325" d="M72 1614q0 41 26.5 68.5t63.5 29.5q37 0 63.5 -28.5t26.5 -69.5v-72q-2 -27 -12 -47q-10 -16 -31 -30.5t-62 -14.5v43q4 0 13 2q4 2 10 7t10 16q-6 -2 -18 -2q-37 0 -63.5 28.5t-26.5 69.5z" />
<glyph unicode="&#x201a;" horiz-adv-x="325" d="M72 94q0 41 25.5 70t64.5 29q37 0 63.5 -29t26.5 -70v-71q-2 -27 -12 -48q-10 -16 -31 -30.5t-62 -14.5v43q6 0 13 2q12 4 20 23q-6 -2 -18 -2q-39 0 -64.5 28.5t-25.5 69.5z" />
<glyph unicode="&#x201c;" horiz-adv-x="548" d="M74 1548v72q2 25 12 45q10 16 30.5 31.5t61.5 15.5v-43q-8 0 -14 -2q-12 -2 -19 -22q6 2 19 2q37 0 63.5 -29t26.5 -70t-26.5 -68.5t-63.5 -29.5q-37 0 -63.5 28.5t-26.5 69.5zM297 1548v72q2 25 12 45q10 16 30.5 31.5t61.5 15.5v-43q-8 0 -14 -2q-12 -2 -18 -22 q6 2 18 2q37 0 63.5 -29t26.5 -70t-26.5 -68.5t-63.5 -29.5q-37 0 -63.5 28.5t-26.5 69.5z" />
<glyph unicode="&#x201d;" horiz-adv-x="548" d="M72 1614q0 41 26.5 68.5t63.5 29.5q37 0 63.5 -28.5t26.5 -69.5v-72q-2 -27 -12 -47q-10 -16 -31 -30.5t-62 -14.5v43q4 0 13 2q4 2 10 7t10 16q-6 -2 -18 -2q-37 0 -63.5 28.5t-26.5 69.5zM295 1614q0 41 26.5 68.5t63.5 29.5q37 0 63.5 -28.5t26.5 -69.5v-72 q-2 -27 -12 -47q-10 -16 -30.5 -30.5t-61.5 -14.5v43q4 0 12 2q4 2 10 7t10 16q-6 -2 -18 -2q-37 0 -63.5 28.5t-26.5 69.5z" />
<glyph unicode="&#x201e;" horiz-adv-x="485" d="M51 94q0 41 25.5 70t64.5 29q37 0 63.5 -29t26.5 -70v-71q-2 -27 -12 -48q-10 -16 -30.5 -30.5t-61.5 -14.5v43q6 0 12 2q12 4 21 23q-6 -2 -19 -2q-39 0 -64.5 28.5t-25.5 69.5zM256 94q0 41 25.5 70t64.5 29q37 0 63.5 -29t26.5 -70v-71q-2 -27 -12 -48 q-10 -16 -30.5 -30.5t-61.5 -14.5v43q6 0 12 2q12 4 21 23q-6 -2 -19 -2q-39 0 -64.5 28.5t-25.5 69.5z" />
<glyph unicode="&#x2022;" horiz-adv-x="286" d="M72 864q0 31 21 51.5t50 20.5t50.5 -20.5t21.5 -51.5q0 -29 -21.5 -49t-50.5 -20t-50 20.5t-21 48.5z" />
<glyph unicode="&#x2026;" horiz-adv-x="776" d="M72 102q0 41 26.5 70t63.5 29t63.5 -29t26.5 -70t-26.5 -69.5t-63.5 -28.5t-63.5 28.5t-26.5 69.5zM297 102q0 41 26.5 70t63.5 29q39 0 64.5 -29t25.5 -70t-25.5 -69.5t-62.5 -28.5h-2q-37 0 -63.5 28.5t-26.5 69.5zM524 102q0 41 25.5 70t64.5 29q37 0 64 -29t27 -70 t-27 -69.5t-64 -28.5t-63.5 28.5t-26.5 69.5z" />
<glyph unicode="&#x202f;" horiz-adv-x="428" />
<glyph unicode="&#x2039;" horiz-adv-x="524" d="M72 797l270 432l111 -70l-230 -362l230 -375l-111 -68z" />
<glyph unicode="&#x203a;" horiz-adv-x="524" d="M72 422l229 375l-229 362l110 70l271 -432l-271 -443z" />
<glyph unicode="&#x205f;" horiz-adv-x="535" />
<glyph unicode="&#x20ac;" horiz-adv-x="937" d="M72 567v127h94v211h-94v129h94v215q0 72 26.5 134.5t72.5 108.5t107.5 72.5t131.5 26.5h20q70 0 132.5 -26.5t108.5 -71.5t73.5 -107.5t27.5 -132.5v-4q0 -39 -24 -69q-29 -35 -72 -35q-10 -2 -22 2q-35 8 -56.5 36.5t-21.5 65.5q0 39 16 64q8 12 17.5 22.5t1.5 26.5 l-11 14q-23 43 -73 64.5t-97 23.5h-20q-43 0 -81 -17t-67.5 -46t-46 -68t-16.5 -84v-215h467v-129h-467v-211h467v-127h-467v-223q0 -43 16.5 -82t46 -68.5t67.5 -46t81 -16.5h20q57 0 104.5 28.5t76.5 76.5q6 14 -2.5 24t-16.5 23q-16 25 -16 63q0 39 21.5 66.5t56.5 36.5 q12 4 22 4q45 -4 72 -37q25 -31 24 -74q0 -70 -27.5 -131t-73.5 -107.5t-108.5 -73t-132.5 -26.5h-20q-70 0 -131.5 26.5t-107.5 73t-72.5 107.5t-26.5 133v223h-94z" />
<glyph unicode="&#x2122;" horiz-adv-x="856" d="M35 1556v99h315v-99h-59v33h-68v-559h33v-61h-133v61h37v559h-64v-33h-61zM352 969v61h31v625h70l108 -352l109 352h71v-625h35v-61h-133v61h35v426l-90 -287h-51l-88 281v-420h36v-61h-133z" />
<glyph unicode="&#xe000;" horiz-adv-x="1198" d="M0 0v1198h1198v-1198h-1198z" />
</font>
</defs>
</svg>
